<svg width="200" height="200" viewBox="0 0 200 200" fill="none" xmlns="http://www.w3.org/2000/svg">
<g opacity="0.4">
<path d="M0 28C0 12.536 12.536 0 28 0H72C87.464 0 100 12.536 100 28C100 16.9543 89.2548 8 76 8H28C16.9543 8 8 16.9543 8 28H0ZM100 100H4H100ZM28 100C12.536 100 0 87.464 0 72V28C0 12.536 12.536 0 28 0V8C16.9543 8 8 16.9543 8 28V76C8 89.2548 16.9543 100 28 100ZM100 4V100V4Z" fill="#BA3A29"/>
</g>
<g opacity="0.4">
<path d="M100 100H196H100ZM200 172C200 187.464 187.464 200 172 200H128C112.536 200 100 187.464 100 172C100 183.046 110.745 192 124 192H172C183.046 192 192 183.046 192 172H200ZM100 196V100V196ZM172 100C187.464 100 200 112.536 200 128V172C200 187.464 187.464 200 172 200V192C183.046 192 192 183.046 192 172V124C192 110.745 183.046 100 172 100Z" fill="#BA3A29"/>
</g>
<g opacity="0.4">
<path d="M28 124H76H28ZM76 164C76 170.627 70.6274 176 64 176H36C29.3726 176 24 170.627 24 164H32C32 166.209 33.7909 168 36 168H68C72.4183 168 76 166.209 76 164ZM36 176C29.3726 176 24 170.627 24 164V136C24 129.373 29.3726 124 36 124C33.7909 124 32 127.582 32 132V164C32 166.209 33.7909 168 36 168V176ZM76 124V172V124Z" fill="#BA3A29"/>
</g>
<g opacity="0.4">
<path d="M124 36C124 29.3726 129.373 24 136 24H164C170.627 24 176 29.3726 176 36H168C168 33.7909 166.209 32 164 32H132C127.582 32 124 33.7909 124 36ZM172 76H124H172ZM124 76V28V76ZM164 24C170.627 24 176 29.3726 176 36V64C176 70.6274 170.627 76 164 76C166.209 76 168 72.4183 168 68V36C168 33.7909 166.209 32 164 32V24Z" fill="#BA3A29"/>
</g>
<rect x="51.5" y="52" width="96" height="96" rx="16" fill="#BA3A29"/>
<g clip-path="url(#clip0_1590_5418)">
<path d="M122.914 76.5863C122.539 76.2114 122.03 76.0007 121.5 76.0007C120.97 76.0007 120.461 76.2114 120.086 76.5863L99.5001 97.1723L78.9141 76.5863C78.539 76.2114 78.0304 76.0007 77.5001 76.0007C76.9697 76.0007 76.4611 76.2114 76.0861 76.5863C75.7111 76.9614 75.5005 77.47 75.5005 78.0003C75.5005 78.5306 75.7111 79.0393 76.0861 79.4143L96.6721 100L76.0861 120.586C75.7111 120.961 75.5005 121.47 75.5005 122C75.5005 122.531 75.7111 123.039 76.0861 123.414C76.4611 123.789 76.9697 124 77.5001 124C78.0304 124 78.539 123.789 78.9141 123.414L99.5001 102.828L120.086 123.414C120.461 123.789 120.97 124 121.5 124C122.03 124 122.539 123.789 122.914 123.414C123.289 123.039 123.5 122.531 123.5 122C123.5 121.47 123.289 120.961 122.914 120.586L102.328 100L122.914 79.4143C123.289 79.0393 123.5 78.5306 123.5 78.0003C123.5 77.47 123.289 76.9614 122.914 76.5863Z" fill="white"/>
</g>
<defs>
<clipPath id="clip0_1590_5418">
<rect width="48" height="48" fill="white" transform="translate(75.5 76)"/>
</clipPath>
</defs>
</svg>
