<svg width="300" height="64" viewBox="0 0 300 64" fill="none" xmlns="http://www.w3.org/2000/svg">
<mask id="mask0_1268_75567" style="mask-type:luminance" maskUnits="userSpaceOnUse" x="0" y="0" width="299" height="64">
<path d="M298.614 0H0V64H298.614V0Z" fill="white"/>
</mask>
<g mask="url(#mask0_1268_75567)">
<path d="M60.8358 41.4878V25.8968C60.8358 25.8968 60.8358 25.5078 60.3969 25.5078C60.0078 25.5078 60.0078 25.8968 60.0078 25.8968V41.4878C60.0078 41.4878 60.0078 41.837 60.4368 41.837C60.8758 41.837 60.8358 41.4878 60.8358 41.4878Z" fill="#0069B4"/>
<path d="M0 64H298.614V0H0V64ZM26.5555 41.8354C26.9445 41.8354 26.9445 41.5262 26.9445 41.5262V24.5886H28.0319V41.4863C28.0319 41.4863 28.1216 42.793 26.6352 42.793C25.1488 42.793 25.1589 41.4863 25.1589 41.4863V24.5886H26.2462V41.4464C26.2462 41.4464 26.1565 41.8354 26.5555 41.8354ZM64.2739 45.4863H22.7248V43.7407H64.2739V45.4863ZM32.0022 42.793V24.5886H32.8702L33.9575 34.3142V24.5886H34.8752V42.793H33.9575L32.8702 31.8504V42.793H32.0022ZM41.3196 32.6085V33.6059H40.1425V41.8354H41.7086V42.793H38.9255V24.5886H41.3196V25.5063H40.1425V32.6085H41.3196ZM46.6965 41.8154C46.9759 41.8354 46.9759 41.4863 46.9759 41.4863V37.2867C46.9759 35.5211 45.28 31.6709 45.28 29.3865V25.9053C45.28 25.9053 45.28 24.6384 46.7165 24.5985C48.153 24.5586 48.1131 25.9053 48.1131 25.9053V29.995H46.9858V25.9053C46.9858 25.9053 46.9858 25.5162 46.6766 25.5162C46.3674 25.5162 46.4172 25.9053 46.4172 25.9053V29.995C46.4172 31.3416 48.1131 35.4114 48.1131 37.5561C48.1131 38.4439 48.1131 41.4962 48.1131 41.4962C48.1131 41.4962 48.1131 42.803 46.6766 42.803C45.2401 42.803 45.28 41.4962 45.28 41.4962V36.9277H46.4172V41.4962C46.4172 41.4863 46.4172 41.7955 46.6965 41.8154ZM53.51 25.5063C53.121 25.5063 53.121 25.8953 53.121 25.8953V41.4863C53.121 41.4863 53.1908 41.8354 53.51 41.8354C53.8591 41.8354 53.8591 41.4863 53.8591 41.4863V36.9177H54.9465V41.4863C54.9465 41.4863 54.9465 42.793 53.51 42.793C52.0735 42.793 52.1134 41.4863 52.1134 41.4863V25.8953C52.1134 25.8953 52.1134 24.5886 53.51 24.5886C54.9066 24.5886 54.9465 25.8953 54.9465 25.8953V29.985H53.8591V25.8953C53.8591 25.8953 53.8591 25.5063 53.51 25.5063ZM58.9168 41.4863V25.8953C58.9168 25.8953 58.9168 24.5886 60.4431 24.5886C61.9695 24.5886 61.8796 25.8953 61.8796 25.8953V41.4863C61.8796 41.4863 61.8796 42.793 60.3534 42.793C58.9168 42.793 58.9168 41.4863 58.9168 41.4863ZM22.7248 21.7855H64.2739V23.5312H22.7248V21.7855ZM26.0767 20.6683L43.4944 15.3517L60.6526 20.6683H55.6049L43.4944 16.9675L31.1243 20.6683H26.0767ZM22.7248 18.793L43.4944 12.389L64.2739 18.793V20.6683L43.3646 14.3542L22.7248 20.6683V18.793ZM20.3705 46.7032H66.5384V48.4389H20.3705V46.7032ZM68.8029 51.4114H18.1958V49.6658H68.8029V51.4114ZM296.809 62.1945H86.9886V1.80549H296.809V62.1945Z" fill="#0069B4"/>
<path d="M249.212 38.784C247.885 40.1006 246.13 40.8289 244.254 40.8289C240.383 40.8289 237.231 37.6768 237.231 33.8064C237.231 29.9361 240.373 26.784 244.254 26.784C246.109 26.784 247.856 27.5021 249.182 28.8089L249.362 28.9884L252.554 22.1954L252.434 22.1057C250.02 20.4 247.177 19.4922 244.214 19.4922C236.353 19.4922 229.969 25.8862 229.969 33.7365C229.969 41.5969 236.363 47.981 244.214 47.981C247.167 47.981 250 47.0832 252.414 45.3774L252.534 45.2877L249.392 38.6044L249.212 38.784Z" fill="#0069B4"/>
<path d="M269.445 40.8476C265.584 40.8476 262.442 37.7054 262.442 33.8451C262.442 29.9847 265.584 26.8426 269.445 26.8426C273.306 26.8426 276.447 29.9847 276.447 33.8451C276.447 37.7054 273.306 40.8476 269.445 40.8476ZM269.405 19.5508C261.564 19.5508 255.18 25.9349 255.18 33.7752C255.18 41.6157 261.564 47.9997 269.405 47.9997C277.245 47.9997 283.63 41.6157 283.63 33.7752C283.63 25.9349 277.256 19.5508 269.405 19.5508Z" fill="#0069B4"/>
<path d="M113.797 20.3984V35.1016C113.797 36.2987 113.916 38.1541 115.293 39.4109C115.892 39.9495 116.969 40.6678 118.884 40.6678C120.5 40.6678 121.758 40.1291 122.536 39.4109C123.792 38.2139 123.971 36.4184 123.971 35.1016V20.3984H132.581V35.9396C132.581 38.9919 132.282 41.8548 129.588 44.4883C126.536 47.4807 122.057 47.9596 118.884 47.9596C115.593 47.9596 111.173 47.4807 108.12 44.4883C105.666 42.0942 105.188 39.4109 105.188 36.4782V20.3984H113.797Z" fill="#0069B4"/>
<path d="M139.266 20.3979H147.874V23.57C150.508 20.2183 153.611 19.6797 156.124 19.6797C158.459 19.6797 161.512 20.0987 163.776 22.3729C166.289 24.8867 166.469 28.0487 166.469 30.2033V47.0613H157.86V33.3755C157.86 31.6398 157.801 29.4353 156.423 28.0588C155.765 27.4004 154.687 26.8617 153.142 26.8617C151.346 26.8617 150.209 27.5799 149.55 28.2982C148.114 29.7345 147.874 31.6497 147.874 33.3755V47.0712H139.266V20.3979Z" fill="#0069B4"/>
<path d="M192.533 30.0857C192.473 29.8462 192.054 28.1705 190.797 26.9734C189.839 26.0757 188.463 25.4772 186.727 25.4772C184.512 25.4772 183.195 26.3749 182.358 27.2129C181.699 27.931 181.1 28.8886 180.862 30.0857H192.533ZM200.483 35.2228H180.572C180.572 36.6593 181.111 38.5745 182.188 39.7715C183.505 41.2078 185.301 41.4473 186.607 41.4473C187.864 41.4473 189.181 41.2078 190.079 40.6692C190.198 40.6093 191.217 39.951 191.934 38.4548L200.065 39.2926C198.867 43.0532 196.473 45.0283 194.928 45.9859C192.354 47.542 189.48 47.961 186.497 47.961C182.497 47.961 178.965 47.2428 175.853 44.1306C173.519 41.7964 171.844 38.2752 171.844 33.8462C171.844 30.0258 173.22 26.0757 175.914 23.3226C179.146 20.0907 183.146 19.4922 186.138 19.4922C189.132 19.4922 193.43 20.0308 196.723 23.5021C199.895 26.8538 200.494 31.0333 200.494 34.3251V35.2228H200.483Z" fill="#0069B4"/>
<path d="M222.189 27.2145C220.873 26.4365 219.136 25.7183 217.47 25.7183C216.573 25.7183 215.554 25.9577 215.016 26.4964C214.717 26.7957 214.478 27.2744 214.478 27.6934C214.478 28.2919 214.896 28.651 215.316 28.8904C215.914 29.2495 216.812 29.429 217.889 29.7881L220.164 30.5063C221.66 30.9852 223.217 31.5837 224.582 32.8405C226.139 34.2769 226.678 35.8929 226.678 37.9278C226.678 41.459 225.122 43.7233 223.924 44.9204C221.291 47.5537 218.059 47.9628 215.256 47.9628C211.664 47.9628 207.784 47.1847 204.312 44.1423L207.963 38.3468C208.801 39.0649 209.999 39.9029 210.896 40.3218C212.094 40.9204 213.35 41.1597 214.487 41.1597C215.026 41.1597 216.402 41.1597 217.181 40.5612C217.719 40.1423 218.079 39.4839 218.079 38.8255C218.079 38.3468 217.9 37.7482 217.121 37.2694C216.522 36.9103 215.744 36.671 214.487 36.3118L212.333 35.6535C210.777 35.1746 209.161 34.3368 208.024 33.1996C206.766 31.8829 206.108 30.3866 206.108 28.3517C206.108 25.7782 207.125 23.6335 208.682 22.1972C211.075 19.9826 214.298 19.5039 216.752 19.5039C220.692 19.5039 223.445 20.5213 225.601 21.7782L222.189 27.2145Z" fill="#0069B4"/>
</g>
</svg>
