<svg width="167" height="47" viewBox="0 0 167 47" fill="none" xmlns="http://www.w3.org/2000/svg">
<path d="M56.8546 1.00436C56.073 1.24344 55.4293 2.04344 55.2178 3.04574C55.0707 3.7262 55.0891 6.21815 55.2454 6.78827C55.5765 8.05723 56.3029 8.7285 57.4247 8.82965C58.7673 8.95838 59.8247 8.19516 60.0362 6.97218C60.073 6.76988 60.119 6.5308 60.1466 6.43884C60.1834 6.30091 60.119 6.28252 59.6868 6.28252H59.1903L59.1351 6.69631C59.0063 7.60666 58.5466 8.02965 57.6914 8.02965C57.0109 8.02965 56.5971 7.75379 56.3121 7.09172C56.119 6.66873 56.0914 6.42045 56.0546 5.17907C55.9811 2.67792 56.3949 1.79516 57.6638 1.70321C58.1144 1.67562 58.2523 1.70321 58.519 1.88712C58.85 2.117 59.1443 2.7147 59.1535 3.17447C59.1627 3.42275 59.1811 3.43195 59.65 3.43195H60.1466L60.0638 2.917C59.9075 1.9147 59.3834 1.23424 58.5742 0.995164C58.0132 0.829647 57.4155 0.829647 56.8546 1.00436Z" fill="white"/>
<path d="M17.7837 1.02343C17.7837 1.06021 18.2527 2.37515 18.832 3.92917L19.8802 6.76136L19.7331 7.21193C19.5216 7.82803 19.3285 8.03032 18.9331 8.03032C18.6113 8.03032 18.6113 8.03032 18.6113 8.44412V8.85791H18.9791C19.5216 8.85791 19.9446 8.64642 20.2113 8.24182C20.34 8.04871 20.9653 6.40274 21.5906 4.58205C22.2159 2.76136 22.7584 1.19814 22.7952 1.10619C22.8504 0.968255 22.7952 0.949864 22.2986 0.949864H21.7469L21.094 2.99124C20.7354 4.12228 20.4228 5.09699 20.3952 5.17055C20.3768 5.24412 20.3308 5.2809 20.3124 5.25331C20.2848 5.22573 19.9354 4.26021 19.54 3.10159L18.8136 0.995841L18.2986 0.968255C18.0136 0.949864 17.7837 0.97745 17.7837 1.02343Z" fill="white"/>
<path d="M24.1289 4.85807V8.76611H24.5887H25.0484V6.97301V5.17991H26.6576H28.2668V6.97301V8.76611H28.7266H29.1864V4.85807V0.950021H28.7266H28.2668L28.2484 2.62358L28.2209 4.30634L26.6393 4.33393L25.0484 4.35232V2.65117V0.950021H24.5887H24.1289V4.85807Z" fill="white"/>
<path d="M30.9336 4.85807V8.76611H31.4393H31.9451L33.4347 5.796L34.9336 2.83508L34.9612 5.796L34.9796 8.76611H35.4393H35.8991V4.85807V0.950021H35.4393H34.9796L33.4715 3.95692L31.9543 6.97301V3.95692L31.9451 0.950021H31.4393H30.9336V4.85807Z" fill="white"/>
<path d="M37.7383 4.84887V8.76611H39.0532C40.7084 8.76611 41.1498 8.64657 41.6739 8.08565C42.0877 7.63508 42.1981 7.27646 42.1889 6.42129C42.1797 5.63968 41.7383 4.87646 41.2049 4.69255C41.1498 4.67416 41.2601 4.51784 41.4532 4.34313C41.8946 3.95692 42.0601 3.57991 42.0601 2.95462C42.0509 2.06267 41.7659 1.54772 41.0946 1.1983C40.782 1.03278 40.5245 1.00519 39.2371 0.968413L37.7383 0.931632V4.84887ZM40.5337 1.90634C40.9383 2.07186 41.1774 2.65117 41.0946 3.23968C40.9751 4.04887 40.3314 4.40749 39.1636 4.33393L38.7038 4.30634L38.6762 3.03738L38.6486 1.77761H39.4394C39.8992 1.77761 40.3498 1.83278 40.5337 1.90634ZM40.6348 5.23508C41.0394 5.41899 41.2325 5.85117 41.2325 6.54083C41.2325 6.95462 41.1866 7.15692 41.021 7.396C40.7176 7.84657 40.4693 7.93853 39.513 7.93853H38.6578V6.51324V5.08795H39.4946C40.0647 5.08795 40.4325 5.13393 40.6348 5.23508Z" fill="white"/>
<path d="M43.7148 4.85807V8.76611H45.7838H47.8528V8.35232V7.93853H46.2436H44.6344V6.55922V5.17991H46.0137H47.393V4.76611V4.36152L46.0413 4.33393L44.6804 4.30634L44.6528 3.03738L44.6252 1.77761H46.2436H47.8528V1.36381V0.950021H45.7838H43.7148V4.85807Z" fill="white"/>
<path d="M49.2324 4.84887V8.76611H49.6922H50.152V7.25807V5.75922L51.2462 5.70404C52.4508 5.64887 52.9566 5.49255 53.3887 5.03278C53.7841 4.60979 53.9405 4.13163 53.9405 3.34083C53.9405 2.54083 53.8025 2.15462 53.3795 1.66726C52.8922 1.11554 52.5244 1.01439 50.7772 0.968413L49.2324 0.931632V4.84887ZM52.2577 1.94313C52.8094 2.21899 52.9566 2.52244 52.9566 3.34083C52.9566 4.55462 52.5336 4.90404 51.0531 4.90404H50.152V3.34083V1.77761H51.0531C51.7244 1.77761 52.0278 1.81439 52.2577 1.94313Z" fill="white"/>
<path d="M61.5547 4.85807V8.76611H62.042H62.5202L63.9455 5.90634C64.7271 4.33393 65.426 3.00979 65.4903 2.95462C65.5731 2.88106 65.6007 3.46037 65.6007 5.81439V8.76611H66.0604H66.5202V4.84887V0.940827L66.042 0.968413L65.5547 0.995999L64.0834 3.91094C63.2742 5.52014 62.5846 6.83508 62.5478 6.83508C62.5018 6.83508 62.4742 5.51094 62.4742 3.89255V0.950022H62.0145H61.5547V4.85807Z" fill="white"/>
<path d="M67.623 1.36381V1.77761H68.6805H69.738V5.27186V8.76611H70.1978H70.6575V5.27186V1.77761H71.669H72.6805V1.36381V0.950021H70.1518H67.623V1.36381Z" fill="white"/>
<path d="M73.875 4.85807V8.76611H75.944H78.0129V8.35232V7.93853H76.4037H74.7945V6.55922V5.17991H76.1739H77.5532V4.76611V4.36152L76.2014 4.33393L74.8405 4.30634L74.8129 3.03738L74.7853 1.77761H76.4037H78.0129V1.36381V0.950021H75.944H73.875V4.85807Z" fill="white"/>
<path d="M78.9341 1.36381V1.77761H79.9456H80.9571V5.27186V8.76611H81.4168H81.8766V5.27186V1.77761H82.9341H83.9916V1.36381V0.950021H81.4628H78.9341V1.36381Z" fill="white"/>
<path d="M87.4018 1.70307C87.5582 2.12606 88.0363 3.42261 88.4685 4.59963C89.2501 6.72376 89.2593 6.73296 89.1398 7.15595C88.9651 7.79963 88.7352 8.02951 88.303 8.02951H87.9444V8.4525V8.87549L88.4961 8.83871C88.9467 8.80193 89.0938 8.75595 89.3329 8.52606C89.4892 8.37894 89.6823 8.13986 89.7559 7.99273C89.903 7.71687 92.1743 1.16974 92.1743 1.03181C92.1743 0.985833 91.9352 0.949051 91.6501 0.949051H91.1168L90.4363 3.10997C90.0593 4.30537 89.7191 5.2433 89.6915 5.20652C89.6547 5.16055 89.2961 4.19503 88.9007 3.03641L88.1834 0.949051H87.6501H87.126L87.4018 1.70307Z" fill="white"/>
<path d="M93.5542 4.85807V8.76611H94.014H94.4737V5.27186V1.77761H96.037H97.6002V5.27186V8.76611H98.0599H98.5197V4.85807V0.950021H96.037H93.5542V4.85807Z" fill="white"/>
<path d="M100.359 4.84887V8.76611H100.819H101.278V7.25807V5.75922L102.382 5.71324C103.375 5.66726 103.55 5.63968 104.019 5.4006C104.46 5.17071 104.58 5.05117 104.809 4.6006C105.039 4.14083 105.085 3.96611 105.076 3.35922C105.076 2.27416 104.727 1.63048 103.899 1.1983C103.577 1.03278 103.338 1.00519 101.95 0.968413L100.359 0.931632V4.84887ZM103.384 1.94313C103.899 2.2006 104.074 2.52244 104.111 3.27646C104.138 3.84657 104.12 3.9845 103.927 4.26037C103.586 4.76611 103.219 4.90404 102.18 4.90404H101.278V3.34083V1.77761H102.18C102.851 1.77761 103.154 1.81439 103.384 1.94313Z" fill="white"/>
<path d="M106.528 4.1868C105.949 5.97071 105.388 7.73623 105.269 8.09485L105.066 8.76611H105.545H106.023L106.179 8.27876C106.253 8.02129 106.391 7.56152 106.473 7.26726L106.62 6.74312H108C108.965 6.74312 109.37 6.77071 109.37 6.84427C109.37 6.90864 109.499 7.35922 109.646 7.85577L109.931 8.76611H110.418H110.905L109.655 4.87646L108.395 0.995999L107.981 0.968413L107.568 0.940827L106.528 4.1868ZM108.533 4.13163C108.791 4.996 109.002 5.75002 109.002 5.80519C109.002 5.88795 108.68 5.91554 107.935 5.91554C107.043 5.91554 106.878 5.89715 106.915 5.7868C106.942 5.71324 107.181 4.92244 107.448 4.03048C107.715 3.14772 107.963 2.44887 108 2.48565C108.037 2.53163 108.276 3.26726 108.533 4.13163Z" fill="white"/>
<path d="M112.037 4.84887V8.76611H113.333C114.823 8.76611 115.283 8.67416 115.761 8.27876C116.248 7.87416 116.45 7.396 116.45 6.56841C116.45 5.5937 116.239 5.1891 115.457 4.67416C115.448 4.66496 115.595 4.49025 115.798 4.29715C116.68 3.40519 116.469 1.7868 115.393 1.23508C114.97 1.01439 114.832 0.995999 113.489 0.959218L112.037 0.931632V4.84887ZM115.08 2.12703C115.31 2.3845 115.347 2.49485 115.347 2.96382C115.347 3.96611 114.887 4.33393 113.627 4.34313L112.956 4.35232V3.05577V1.75922L113.885 1.796C114.795 1.82359 114.814 1.82359 115.08 2.12703ZM114.961 5.27186C115.329 5.49255 115.531 5.94313 115.531 6.51324C115.531 7.08335 115.329 7.53393 114.961 7.75462C114.712 7.90175 114.501 7.93853 113.811 7.93853H112.956V6.51324V5.08795H113.811C114.501 5.08795 114.712 5.12473 114.961 5.27186Z" fill="white"/>
<path d="M118.897 1.42818C118.87 1.69485 118.842 2.36611 118.842 2.92703C118.833 4.47186 118.677 6.55002 118.53 7.04657C118.364 7.60749 118.171 7.82818 117.776 7.90175C117.481 7.95692 117.463 7.97531 117.463 8.36152C117.463 8.73853 117.481 8.76611 117.72 8.76611C118.116 8.76611 118.576 8.6006 118.824 8.37991C119.422 7.81899 119.642 6.71554 119.743 3.8006L119.808 1.82358L120.939 1.796L122.061 1.76841V5.27186V8.76611H122.52H122.98V4.85807V0.950021H120.966H118.962L118.897 1.42818Z" fill="white"/>
<path d="M124.726 4.85807V8.76611H126.841H128.956V8.35232V7.93853H127.347H125.738V6.55922V5.17991H127.117H128.496V4.76611V4.35232H127.117H125.738V3.06496V1.77761H127.301H128.864V1.36381V0.950021H126.795H124.726V4.85807Z" fill="white"/>
<path d="M130.244 4.85807V8.76611H130.703H131.163V6.97301V5.17991H132.772H134.382V6.97301V8.76611H134.841H135.301V4.85807V0.950021H134.841H134.382L134.363 2.62358L134.336 4.30634L132.754 4.33393L131.163 4.35232V2.65117V0.950021H130.703H130.244V4.85807Z" fill="white"/>
<path d="M137.048 4.85807V8.76611H137.554H138.06L139.568 5.75002L141.085 2.74312V5.75002L141.094 8.76611H141.554H142.014V4.85807V0.950021H141.554H141.094L139.586 3.95692L138.069 6.97301V3.95692L138.06 0.950021H137.554H137.048V4.85807Z" fill="white"/>
<path d="M145.315 1.07876C144.202 1.37301 143.632 2.3845 143.798 3.74542C143.88 4.34312 144.211 4.88565 144.69 5.1983L145.039 5.42818L144.267 7.09255L143.503 8.76611H144.018H144.542L145.195 7.26726L145.848 5.77761L146.556 5.75002L147.255 5.72244V7.24887V8.76611H147.715H148.175V4.85807V0.950021L146.961 0.959217C146.29 0.959217 145.545 1.01439 145.315 1.07876ZM147.255 3.34083V4.90404H146.483C145.839 4.90404 145.674 4.86726 145.416 4.69255C144.929 4.37071 144.726 3.93853 144.736 3.28565C144.745 2.1914 145.223 1.77761 146.501 1.77761H147.255V3.34083Z" fill="white"/>
<path d="M82.1521 13.4184C82.0233 13.4368 81.6095 13.5012 81.2325 13.5563C78.0325 14.0253 75.2371 16.177 73.7843 19.2759C73.0578 20.8115 72.6072 22.577 72.4049 24.6644C72.2854 25.915 72.2854 33.6483 72.4141 34.9357C72.782 38.7242 74.0049 41.6023 76.0555 43.5334C78.0049 45.3632 80.2026 46.1265 83.5314 46.1265C85.9957 46.1265 87.6049 45.7862 89.3245 44.8943C91.4026 43.8092 92.9475 41.9609 93.7291 39.6161C94.0877 38.5311 94.3728 37.1058 94.4463 36.0207L94.5015 35.1563H91.3199H88.1383L88.0923 35.5426C87.8992 37.1609 87.8164 37.6575 87.6233 38.2736C87.3659 39.092 86.9797 39.7357 86.5843 40.0207C85.7383 40.6184 84.3774 40.9311 83.0256 40.8207C80.9199 40.6644 79.7613 39.6529 79.2095 37.492C78.8233 36.0023 78.7957 35.423 78.7957 29.777C78.7957 24.9127 78.8141 24.2506 78.9613 23.3862C79.3843 21.0046 80.0647 19.8 81.3429 19.1655C82.1245 18.7701 82.759 18.669 83.9911 18.7242C86.8141 18.8529 87.8072 20.0759 88.0923 23.7724L88.1475 24.5816H91.3567C93.3245 24.5816 94.5659 24.5449 94.5659 24.4989C94.5659 24.1678 94.2532 22.1357 94.1061 21.5196C93.7383 19.9196 93.2141 18.6874 92.4049 17.4552C90.8601 15.1288 88.6072 13.8506 85.3705 13.4552C84.644 13.3724 82.6578 13.3449 82.1521 13.4184Z" fill="white"/>
<path d="M19.8062 16.4896V19.1562H23.6682H27.5303V32.4436V45.731H30.7487H33.9671V32.4436V19.1562H37.9211H41.8751V16.4896V13.8229H30.8406H19.8062V16.4896Z" fill="white"/>
<path d="M45.3706 29.7769V45.731H48.6166H51.8534L56.543 35.1838L61.2327 24.6367L61.2603 35.1838L61.2787 45.731H64.497H67.7154V29.7769V13.8229L64.4787 13.8413L61.2419 13.8689L56.6166 24.2597C54.0787 29.97 51.9637 34.7149 51.9085 34.7884C51.8442 34.8804 51.8166 31.5149 51.8166 24.37L51.8074 13.8229H48.589H45.3706V29.7769Z" fill="white"/>
<path d="M98.5195 29.7769V45.731H104.11C107.384 45.731 110.023 45.6942 110.474 45.639C112.947 45.3356 114.832 44.4712 116.405 42.9264C116.874 42.4666 117.425 41.8413 117.637 41.5195C119.209 39.1746 119.752 35.9746 119.108 32.8114C118.29 28.8022 115.154 25.9976 110.814 25.4183C110.418 25.3631 108.938 25.3172 107.522 25.3172H104.956V22.2367V19.1562H110.703H116.451V16.4896V13.8229H107.485H98.5195V29.7769ZM109.554 30.6505C111.641 30.9815 112.947 32.8022 112.956 35.3677C112.956 37.547 112.018 39.331 110.501 40.0574L109.876 40.3516L107.421 40.3792L104.956 40.4068V35.4873V30.5585H106.961C108.055 30.5585 109.223 30.6045 109.554 30.6505Z" fill="white"/>
<path d="M122.887 29.7769V45.731H126.087H129.296L133.976 35.2114L138.657 24.6919L138.684 35.2114L138.703 45.731H141.921H145.14V29.7769V13.8229L141.921 13.8413L138.694 13.8689L134.05 24.3057C131.494 30.0436 129.369 34.7792 129.324 34.8252C129.259 34.8896 129.232 31.0919 129.232 24.37V13.8229H126.059H122.887V29.7769Z" fill="white"/>
<path d="M2.59343 29.7768C1.18653 32.1216 0.0371094 34.1354 0.0371094 34.2549C0.0371094 34.3653 1.18653 36.3699 2.58424 38.7147L5.13136 42.9722H7.03481H8.94745L8.35895 41.7492C8.0463 41.0871 7.09918 39.1285 6.27159 37.3998L4.75435 34.2641L6.58424 30.4572C7.59573 28.3607 8.53366 26.3929 8.68079 26.071L8.94745 25.5009H7.04401H5.14056L2.59343 29.7768Z" fill="white"/>
<path d="M12.5064 25.7046C12.442 25.8241 11.3018 27.7276 9.97764 29.9345C8.18453 32.9414 7.57764 34.0356 7.57764 34.2471C7.57764 34.4678 8.21212 35.608 10.088 38.7529L12.5891 42.9644H14.5018C15.5501 42.9735 16.4052 42.9552 16.4052 42.9368C16.4052 42.9184 15.4765 40.9689 14.3363 38.6057C13.196 36.2425 12.2673 34.2839 12.2673 34.2655C12.2673 34.2471 13.196 32.2885 14.3363 29.9161C15.4765 27.5345 16.4052 25.5758 16.4052 25.5483C16.4052 25.5207 15.5592 25.5023 14.5202 25.5023C12.6719 25.5023 12.6351 25.5023 12.5064 25.7046Z" fill="white"/>
<path d="M149.646 25.5381C149.646 25.5565 150.575 27.4967 151.715 29.8599C152.855 32.2232 153.784 34.2094 153.784 34.2737C153.784 34.3381 152.855 36.3059 151.715 38.6599L149.646 42.9266L151.549 42.9542C152.589 42.9634 153.48 42.945 153.517 42.9082C153.554 42.8622 154.703 40.9588 156.074 38.6599C157.591 36.1128 158.566 34.3933 158.566 34.2553C158.566 34.1082 157.572 32.3611 156.018 29.7588L153.471 25.5013H151.559C150.51 25.5013 149.646 25.5197 149.646 25.5381Z" fill="white"/>
<path d="M157.306 25.6112C157.333 25.6756 158.271 27.6342 159.402 29.9607C160.524 32.2871 161.443 34.2273 161.443 34.2825C161.443 34.3285 160.662 35.9653 159.715 37.9147C158.768 39.8641 157.83 41.7952 157.637 42.2181L157.287 42.9722H159.209H161.14L163.678 38.7239C165.765 35.2112 166.207 34.4204 166.179 34.1906C166.161 34.0342 165.02 32.0296 163.632 29.7032L161.122 25.5009H159.191C157.683 25.5009 157.269 25.5285 157.306 25.6112Z" fill="white"/>
</svg>
