<svg width="254" height="64" viewBox="0 0 254 64" fill="none" xmlns="http://www.w3.org/2000/svg">
<path d="M4.49609 22.3648V38.3088L15.0561 48.9212L25.606 59.5234H41.4814H57.3467V43.5692V27.6252L46.7867 17.0128L36.2369 6.41056H20.3614H4.49609V22.3648ZM45.3187 18.4983L55.3218 28.5409V43.0198V57.4885H40.9246H26.5172L16.5242 47.4459L6.52102 37.3931V22.9854C6.52102 15.0592 6.5514 8.54728 6.5919 8.51676C6.62227 8.47606 13.102 8.44554 20.9891 8.44554H35.3256L45.3187 18.4983Z" fill="#1B7DC2"/>
<path d="M10.9727 21.4915C10.9727 29.4177 10.9727 29.4279 11.57 30.6082C11.9649 31.4018 12.7242 32.0835 13.7367 32.5617C14.8909 33.1214 15.5692 33.274 17.1791 33.3452L18.5661 33.4062V31.5748V29.7433L17.8372 29.6721C16.8146 29.5703 16.116 29.2752 15.6907 28.7869C15.1541 28.156 15.1136 27.8406 15.144 24.8288L15.1744 22.1325L16.8753 22.102L18.5661 22.0816V20.0975V18.1134H16.845H15.1238V16.1802V14.2469H13.0482H10.9727V21.4915Z" fill="#1B7DC2"/>
<path d="M29.2503 14.3051C29.1389 14.3254 28.7947 14.3966 28.4909 14.4577C27.114 14.7324 25.5751 15.933 24.9574 17.2049C24.4208 18.3343 24.3398 18.8329 24.3398 21.2647V23.4625L24.8258 23.9203C25.7269 24.7954 27.5089 26.0469 27.8531 26.0469C27.9543 26.0469 27.9847 25.3448 27.9847 22.5569C27.9847 20.644 28.0353 18.7311 28.086 18.314C28.2277 17.2761 28.5314 16.6962 29.0984 16.4011C29.6452 16.1264 29.9286 16.1264 30.4956 16.3807C30.85 16.5435 30.9715 16.6758 31.174 17.1235C31.5182 17.8764 31.6296 18.782 31.6296 21.0815V23.0962H33.6545H35.6794V21.2342C35.6794 19.1178 35.5883 18.5887 34.991 17.4593C34.2822 16.0958 32.6927 14.7935 31.3259 14.4679C30.7791 14.3356 29.5338 14.2338 29.2503 14.3051Z" fill="#1B7DC2"/>
<path d="M20.6761 14.7528C19.0966 15.2311 18.7726 17.5713 20.1698 18.5582C21.4962 19.4943 23.43 18.4463 23.43 16.7878C23.43 15.3837 22.0226 14.3458 20.6761 14.7528Z" fill="#1B7DC2"/>
<path d="M19.3789 26.6596V33.375H21.4038H23.4288V26.6596V19.9442H21.4038H19.3789V26.6596Z" fill="#1B7DC2"/>
<path d="M24.3398 26.129C24.3398 27.3296 24.3702 27.6552 24.5423 28.1232C25.0283 29.4256 25.8484 30.1175 27.9645 31.0333C29.7869 31.8066 31.2651 32.5697 32.2573 33.231C33.2192 33.8721 34.5657 35.1744 35.1833 36.0597L35.6794 36.7617V35.1948C35.6794 32.8037 35.4668 32.1728 34.181 30.8094C33.0572 29.6088 31.6802 28.7541 29.1491 27.6552C27.0229 26.7395 25.6358 25.9255 24.7752 25.1013L24.3398 24.6841V26.129Z" fill="#1B7DC2"/>
<path d="M24.3398 31.0559C24.3398 33.8438 24.9979 34.6883 28.2885 36.123C32.1561 37.8018 33.8064 39.0126 35.5073 41.4139C35.6794 41.6581 35.6794 41.6072 35.6491 39.8368C35.6288 38.0867 35.6187 37.9748 35.3555 37.4152C35.0112 36.6928 34.2215 35.6651 33.5735 35.1258C32.5307 34.2508 30.688 33.2129 28.7441 32.4091C27.195 31.7783 25.5953 30.832 24.7246 30.0384L24.3398 29.6924V31.0559Z" fill="#1B7DC2"/>
<path d="M48.0753 33.0799C47.8931 33.1308 47.5792 33.3546 47.3565 33.5683C46.4756 34.4637 46.5161 35.8678 47.4577 36.7022C48.3284 37.4653 49.5637 37.3737 50.3433 36.4885C51.7405 34.8809 50.1408 32.4796 48.0753 33.0799Z" fill="#1B7DC2"/>
<path d="M36.6506 41.1797C36.7113 48.6786 36.7215 49.0144 36.9138 49.4723C37.8655 51.7514 42.776 52.3212 44.8819 50.4084C45.1249 50.1947 45.4084 49.8386 45.5299 49.6147C45.7526 49.2077 45.7526 49.106 45.783 44.222C45.8134 38.5648 45.8033 38.4529 45.1047 37.822C44.4567 37.2319 43.7378 37.0284 42.1381 36.9572L40.7409 36.9063V35.146V33.3756H38.6654H36.5898L36.6506 41.1797ZM41.5712 40.7727C41.7433 40.9254 41.7534 41.1696 41.7534 44.3238C41.7534 47.712 41.7534 47.712 41.5307 47.8646C41.2371 48.0681 41.1864 48.0681 40.9434 47.8239C40.7511 47.6306 40.7409 47.4882 40.7409 44.3136C40.7409 41.139 40.7511 40.9966 40.9434 40.8033C41.1864 40.5591 41.3282 40.5489 41.5712 40.7727Z" fill="#1B7DC2"/>
<path d="M46.7148 44.9721V51.6875H48.7904H50.8659V44.9721V38.2567H48.7904H46.7148V44.9721Z" fill="#1B7DC2"/>
<path d="M31.9333 43.6317C31.9333 48.2511 31.903 48.5055 31.3765 49.1974C31.0322 49.6552 30.6374 49.8587 30.0805 49.8587C29.4629 49.8587 29.0174 49.5331 28.6732 48.8514L28.3897 48.2918V44.9544V41.6171H26.3648H24.3398V44.2422C24.3398 47.1827 24.4006 47.5796 25.0081 48.7497C25.4637 49.6247 26.3546 50.6117 26.9621 50.9169C28.2277 51.5681 30.2628 51.8632 31.5587 51.5986C33.047 51.2832 34.3734 50.2149 35.0213 48.8209C35.5175 47.7322 35.6794 46.7757 35.6794 44.9239V43.3366L35.2441 42.6549C34.505 41.5052 33.0875 40.04 32.2472 39.5516L31.9333 39.3684V43.6317Z" fill="#1B7DC2"/>
<path d="M129.526 8.20057C128.666 8.46512 127.957 9.35033 127.724 10.4594C127.562 11.2123 127.582 13.9697 127.754 14.6006C128.119 16.0047 128.919 16.7475 130.154 16.8594C131.632 17.0018 132.797 16.1573 133.029 14.8041C133.07 14.5802 133.121 14.3157 133.151 14.2139C133.191 14.0613 133.121 14.041 132.645 14.041H132.098L132.037 14.4988C131.895 15.5061 131.389 15.9742 130.448 15.9742C129.698 15.9742 129.243 15.6689 128.929 14.9363C128.716 14.4683 128.686 14.1936 128.645 12.82C128.564 10.0524 129.02 9.07561 130.417 8.97386C130.913 8.94334 131.065 8.97386 131.359 9.17736C131.723 9.43173 132.047 10.0931 132.057 10.6018C132.068 10.8766 132.088 10.8867 132.604 10.8867H133.151L133.06 10.3169C132.888 9.20788 132.311 8.45494 131.42 8.1904C130.802 8.00725 130.144 8.00725 129.526 8.20057Z" fill="#1B7DC2"/>
<path d="M86.5039 8.22163C86.5039 8.26233 87.0203 9.71733 87.6581 11.4369L88.8123 14.5708L88.6503 15.0693C88.4175 15.751 88.2048 15.9749 87.7695 15.9749C87.4151 15.9749 87.4151 15.9749 87.4151 16.4328V16.8906H87.8201C88.4175 16.8906 88.8832 16.6566 89.1768 16.2089C89.3186 15.9952 90.007 14.1739 90.6955 12.1593C91.384 10.1447 91.9813 8.41495 92.0218 8.3132C92.0826 8.16058 92.0218 8.14023 91.4751 8.14023H90.8676L90.1488 10.3991C89.7539 11.6506 89.4097 12.7291 89.3793 12.8105C89.3591 12.8919 89.3084 12.9326 89.2882 12.9021C89.2578 12.8715 88.8731 11.8032 88.4377 10.5211L87.6379 8.1911L87.0709 8.16058C86.757 8.14023 86.5039 8.17075 86.5039 8.22163Z" fill="#1B7DC2"/>
<path d="M93.4883 12.4647V16.7891H93.9945H94.5007V14.805V12.8209H96.2726H98.0444V14.805V16.7891H98.5506H99.0568V12.4647V8.14041H98.5506H98.0444L98.0241 9.99224L97.9937 11.8542L96.2523 11.8848L94.5007 11.9051V10.0228V8.14041H93.9945H93.4883V12.4647Z" fill="#1B7DC2"/>
<path d="M100.98 12.4647V16.7891H101.537H102.094L103.734 13.5026L105.385 10.2263L105.415 13.5026L105.435 16.7891H105.942H106.448V12.4647V8.14041H105.942H105.435L103.775 11.4676L102.104 14.805V11.4676L102.094 8.14041H101.537H100.98V12.4647Z" fill="#1B7DC2"/>
<path d="M108.473 12.4546V16.7891H109.92C111.743 16.7891 112.229 16.6568 112.806 16.0361C113.262 15.5376 113.383 15.1407 113.373 14.1945C113.363 13.3296 112.877 12.4851 112.29 12.2816C112.229 12.2612 112.35 12.0883 112.563 11.8949C113.049 11.4676 113.231 11.0504 113.231 10.3585C113.221 9.37157 112.907 8.80178 112.168 8.41514C111.824 8.23199 111.54 8.20146 110.123 8.16076L108.473 8.12006V12.4546ZM111.551 9.1986C111.996 9.38175 112.259 10.0228 112.168 10.674C112.037 11.5693 111.328 11.9662 110.042 11.8848L109.536 11.8542L109.505 10.4501L109.475 9.05615H110.346C110.852 9.05615 111.348 9.1172 111.551 9.1986ZM111.662 12.8819C112.107 13.0854 112.32 13.5636 112.32 14.3267C112.32 14.7846 112.269 15.0085 112.087 15.273C111.753 15.7716 111.48 15.8733 110.427 15.8733H109.485V14.2962V12.7191H110.406C111.034 12.7191 111.439 12.77 111.662 12.8819Z" fill="#1B7DC2"/>
<path d="M115.059 12.4647V16.7891H117.337H119.615V16.3312V15.8733H117.843H116.071V14.3471V12.8209H117.59H119.108V12.363V11.9153L117.62 11.8848L116.122 11.8542L116.091 10.4501L116.061 9.05615H117.843H119.615V8.59828V8.14041H117.337H115.059V12.4647Z" fill="#1B7DC2"/>
<path d="M121.129 12.4546V16.7891H121.635H122.141V15.1204V13.4619L123.346 13.4008C124.673 13.3398 125.229 13.1668 125.705 12.6581C126.141 12.19 126.313 11.6609 126.313 10.7859C126.313 9.90067 126.161 9.47332 125.695 8.93405C125.159 8.32356 124.754 8.21164 122.83 8.16076L121.129 8.12006V12.4546ZM124.46 9.2393C125.067 9.54455 125.229 9.88032 125.229 10.7859C125.229 12.129 124.764 12.5156 123.134 12.5156H122.141V10.7859V9.05615H123.134C123.873 9.05615 124.207 9.09685 124.46 9.2393Z" fill="#1B7DC2"/>
<path d="M134.699 12.4646V16.7889H135.236H135.762L137.332 13.6246C138.192 11.8846 138.962 10.4195 139.033 10.3584C139.124 10.277 139.154 10.918 139.154 13.5228V16.7889H139.66H140.167V12.4544V8.13012L139.64 8.16064L139.103 8.19117L137.483 11.4166C136.593 13.1972 135.833 14.6522 135.793 14.6522C135.742 14.6522 135.712 13.187 135.712 11.3963V8.14029H135.205H134.699V12.4646Z" fill="#1B7DC2"/>
<path d="M141.379 8.59828V9.05615H142.543H143.708V12.9226V16.7891H144.214H144.72V12.9226V9.05615H145.834H146.947V8.59828V8.14041H144.163H141.379V8.59828Z" fill="#1B7DC2"/>
<path d="M148.27 12.4647V16.7891H150.548H152.826V16.3312V15.8733H151.054H149.282V14.3471V12.8209H150.801H152.319V12.363V11.9153L150.831 11.8848L149.333 11.8542L149.302 10.4501L149.272 9.05615H151.054H152.826V8.59828V8.14041H150.548H148.27V12.4647Z" fill="#1B7DC2"/>
<path d="M153.832 8.59828V9.05615H154.946H156.059V12.9226V16.7891H156.566H157.072V12.9226V9.05615H158.236H159.401V8.59828V8.14041H156.616H153.832V8.59828Z" fill="#1B7DC2"/>
<path d="M163.159 8.97375C163.331 9.44179 163.858 10.8765 164.334 12.1788C165.194 14.5292 165.204 14.5394 165.073 15.0075C164.88 15.7197 164.627 15.9741 164.151 15.9741H163.757V16.4421V16.9102L164.364 16.8695C164.86 16.8288 165.022 16.7779 165.285 16.5235C165.458 16.3607 165.67 16.0962 165.751 15.9334C165.913 15.6281 168.414 8.38361 168.414 8.23098C168.414 8.18011 168.151 8.13941 167.837 8.13941H167.25L166.5 10.5305C166.085 11.8532 165.711 12.8911 165.68 12.8504C165.64 12.7995 165.245 11.7311 164.81 10.4491L164.02 8.13941H163.433H162.855L163.159 8.97375Z" fill="#1B7DC2"/>
<path d="M169.934 12.4647V16.7891H170.44H170.946V12.9226V9.05615H172.667H174.388V12.9226V16.7891H174.895H175.401V12.4647V8.14041H172.667H169.934V12.4647Z" fill="#1B7DC2"/>
<path d="M177.426 12.4546V16.7891H177.932H178.438V15.1204V13.4619L179.653 13.411C180.747 13.3601 180.939 13.3296 181.455 13.0651C181.941 12.8107 182.073 12.6784 182.326 12.1798C182.579 11.6711 182.63 11.4778 182.62 10.8062C182.62 9.6056 182.235 8.89335 181.324 8.41514C180.969 8.23199 180.706 8.20146 179.177 8.16076L177.426 8.12006V12.4546ZM180.757 9.2393C181.324 9.5242 181.516 9.88032 181.557 10.7147C181.587 11.3455 181.567 11.4981 181.354 11.8034C180.98 12.363 180.575 12.5156 179.43 12.5156H178.438V10.7859V9.05615H179.43C180.17 9.05615 180.504 9.09685 180.757 9.2393Z" fill="#1B7DC2"/>
<path d="M184.215 11.722C183.577 13.6959 182.96 15.6495 182.828 16.0463L182.605 16.7891H183.132H183.658L183.831 16.2498C183.912 15.9649 184.063 15.4562 184.155 15.1306L184.317 14.5506H185.835C186.898 14.5506 187.344 14.5811 187.344 14.6625C187.344 14.7337 187.486 15.2323 187.648 15.7817L187.961 16.7891H188.498H189.035L187.658 12.4851L186.271 8.19129L185.815 8.16076L185.359 8.13024L184.215 11.722ZM186.422 11.6609C186.706 12.6174 186.939 13.4517 186.939 13.5128C186.939 13.6043 186.584 13.6348 185.764 13.6348C184.782 13.6348 184.6 13.6145 184.641 13.4924C184.671 13.411 184.934 12.536 185.228 11.549C185.521 10.5722 185.795 9.79892 185.835 9.83962C185.876 9.89049 186.139 10.7045 186.422 11.6609Z" fill="#1B7DC2"/>
<path d="M190.285 12.4546V16.7891H191.713C193.353 16.7891 193.859 16.6873 194.386 16.2498C194.922 15.8021 195.145 15.273 195.145 14.3573C195.145 13.2787 194.912 12.831 194.052 12.2612C194.041 12.2511 194.203 12.0577 194.426 11.8441C195.398 10.8571 195.165 9.06633 193.981 8.45584C193.515 8.21164 193.363 8.19129 191.885 8.15059L190.285 8.12006V12.4546ZM193.636 9.4428C193.89 9.7277 193.93 9.84979 193.93 10.3687C193.93 11.4778 193.424 11.8848 192.037 11.8949L191.298 11.9051V10.4705V9.0358L192.32 9.0765C193.323 9.10703 193.343 9.10703 193.636 9.4428ZM193.505 12.9226C193.91 13.1668 194.133 13.6654 194.133 14.2962C194.133 14.9271 193.91 15.4256 193.505 15.6698C193.231 15.8326 192.999 15.8733 192.239 15.8733H191.298V14.2962V12.7191H192.239C192.999 12.7191 193.231 12.7598 193.505 12.9226Z" fill="#1B7DC2"/>
<path d="M197.833 8.66951C197.803 8.96458 197.773 9.70735 197.773 10.328C197.762 12.0374 197.59 14.3369 197.428 14.8864C197.246 15.507 197.034 15.7512 196.598 15.8326C196.274 15.8937 196.254 15.914 196.254 16.3414C196.254 16.7585 196.274 16.7891 196.537 16.7891C196.973 16.7891 197.479 16.6059 197.752 16.3617C198.41 15.741 198.653 14.5201 198.765 11.2946L198.836 9.10703L200.081 9.0765L201.316 9.04598V12.9226V16.7891H201.822H202.329V12.4647V8.14041H200.111H197.904L197.833 8.66951Z" fill="#1B7DC2"/>
<path d="M204.254 12.4647V16.7891H206.583H208.911V16.3312V15.8733H207.139H205.368V14.3471V12.8209H206.886H208.405V12.363V11.9051H206.886H205.368V10.4806V9.05615H207.089H208.81V8.59828V8.14041H206.532H204.254V12.4647Z" fill="#1B7DC2"/>
<path d="M210.332 12.4647V16.7891H210.838H211.344V14.805V12.8209H213.116H214.888V14.805V16.7891H215.394H215.901V12.4647V8.14041H215.394H214.888L214.868 9.99224L214.837 11.8542L213.096 11.8848L211.344 11.9051V10.0228V8.14041H210.838H210.332V12.4647Z" fill="#1B7DC2"/>
<path d="M217.824 12.4647V16.7891H218.381H218.938L220.598 13.4517L222.269 10.1245V13.4517L222.279 16.7891H222.785H223.292V12.4647V8.14041H222.785H222.279L220.619 11.4676L218.948 14.805V11.4676L218.938 8.14041H218.381H217.824V12.4647Z" fill="#1B7DC2"/>
<path d="M226.928 8.28286C225.703 8.60846 225.075 9.72769 225.258 11.2336C225.349 11.8949 225.713 12.4953 226.24 12.8412L226.624 13.0956L225.774 14.9372L224.934 16.7891H225.501H226.078L226.797 15.1306L227.515 13.4822L228.295 13.4517L229.064 13.4212V15.1102V16.7891H229.571H230.077V12.4647V8.14041L228.74 8.15059C228.001 8.15059 227.181 8.21164 226.928 8.28286ZM229.064 10.7859V12.5156H228.214C227.505 12.5156 227.323 12.4749 227.04 12.2816C226.503 11.9255 226.28 11.4472 226.29 10.7248C226.3 9.51402 226.827 9.05615 228.234 9.05615H229.064V10.7859Z" fill="#1B7DC2"/>
<path d="M157.38 21.9369C157.239 21.9572 156.783 22.0284 156.368 22.0895C152.845 22.6084 149.767 24.9893 148.167 28.4183C147.367 30.1175 146.871 32.071 146.648 34.3807C146.517 35.7645 146.517 44.3216 146.658 45.7461C147.063 49.9381 148.41 53.1229 150.668 55.2596C152.814 57.2844 155.234 58.1289 158.899 58.1289C161.612 58.1289 163.384 57.7524 165.278 56.7655C167.566 55.5648 169.267 53.5197 170.127 50.9251C170.522 49.7245 170.836 48.1473 170.917 46.9467L170.978 45.9903H167.475H163.972L163.921 46.4176C163.708 48.2084 163.617 48.7578 163.405 49.4396C163.121 50.3451 162.696 51.0574 162.26 51.3728C161.329 52.0342 159.831 52.3801 158.342 52.258C156.024 52.085 154.748 50.9658 154.141 48.5747C153.715 46.9264 153.685 46.2853 153.685 40.038C153.685 34.6555 153.705 33.9229 153.867 32.9664C154.333 30.3311 155.082 28.9982 156.489 28.2962C157.35 27.8586 158.049 27.7467 159.405 27.8078C162.514 27.9502 163.607 29.3035 163.921 33.3938L163.982 34.2892H167.515C169.682 34.2892 171.049 34.2485 171.049 34.1976C171.049 33.8313 170.704 31.5826 170.542 30.9009C170.137 29.1305 169.56 27.7671 168.669 26.4036C166.968 23.8294 164.488 22.4151 160.924 21.9776C160.124 21.886 157.937 21.8555 157.38 21.9369Z" fill="#1B7DC2"/>
<path d="M88.7305 25.3353V28.286H92.9828H97.2352V42.9887V57.6914H100.779H104.322V42.9887V28.286H108.676H113.03V25.3353V22.3846H100.88H88.7305V25.3353Z" fill="#1B7DC2"/>
<path d="M116.879 40.038V57.6914H120.453H124.017L129.18 46.0208L134.344 34.3502L134.374 46.0208L134.395 57.6914H137.938H141.482V40.038V22.3846L137.918 22.4049L134.354 22.4354L129.261 33.9331C126.467 40.2517 124.138 45.5019 124.078 45.5833C124.007 45.685 123.976 41.961 123.976 34.0552L123.966 22.3846H120.423H116.879V40.038Z" fill="#1B7DC2"/>
<path d="M175.402 40.038V57.6914H181.558C185.163 57.6914 188.068 57.6507 188.564 57.5897C191.288 57.2539 193.363 56.2974 195.095 54.5881C195.611 54.0793 196.219 53.3874 196.451 53.0313C198.183 50.4367 198.78 46.8959 198.071 43.3957C197.17 38.9595 193.718 35.8561 188.939 35.2151C188.504 35.154 186.874 35.1032 185.314 35.1032H182.49V31.6946V28.286H188.817H195.145V25.3353V22.3846H185.274H175.402V40.038ZM187.552 41.0046C189.85 41.3709 191.288 43.3855 191.298 46.2243C191.298 48.6358 190.265 50.6097 188.595 51.4135L187.906 51.7391L185.203 51.7696L182.49 51.8002V46.3566V40.9029H184.697C185.902 40.9029 187.187 40.9537 187.552 41.0046Z" fill="#1B7DC2"/>
<path d="M202.23 40.038V57.6914H205.754H209.287L214.441 46.0513L219.594 34.4113L219.625 46.0513L219.645 57.6914H223.188H226.732V40.038V22.3846L223.188 22.4049L219.635 22.4354L214.522 33.9839C211.707 40.3331 209.368 45.5731 209.318 45.624C209.247 45.6952 209.216 41.493 209.216 34.0552V22.3846H205.723H202.23V40.038Z" fill="#1B7DC2"/>
<path d="M69.7795 40.0397C68.2304 42.6343 66.9648 44.8626 66.9648 44.9948C66.9648 45.1169 68.2304 47.3351 69.7694 49.9297L72.5739 54.6406H74.6697H76.7756L76.1276 53.2874C75.7834 52.5548 74.7406 50.3875 73.8294 48.4746L72.1588 45.005L74.1736 40.7926C75.2873 38.4727 76.32 36.2953 76.482 35.9392L76.7756 35.3084H74.6798H72.584L69.7795 40.0397Z" fill="#1B7DC2"/>
<path d="M80.6963 35.5319C80.6255 35.6641 79.37 37.7703 77.9121 40.2123C75.9378 43.5395 75.2695 44.7503 75.2695 44.9843C75.2695 45.2285 75.9681 46.4902 78.0336 49.97L80.7875 54.6301H82.8934C84.0476 54.6403 84.9892 54.6199 84.9892 54.5996C84.9892 54.5792 83.9666 52.4222 82.7111 49.8072C81.4557 47.1923 80.4331 45.025 80.4331 45.0047C80.4331 44.9843 81.4557 42.8171 82.7111 40.1919C83.9666 37.5567 84.9892 35.3894 84.9892 35.3589C84.9892 35.3284 84.0577 35.308 82.9136 35.308C80.8786 35.308 80.8381 35.308 80.6963 35.5319Z" fill="#1B7DC2"/>
<path d="M231.691 35.3473C231.691 35.3676 232.714 37.5145 233.969 40.1295C235.225 42.7444 236.247 44.9422 236.247 45.0134C236.247 45.0846 235.225 47.2621 233.969 49.8668L231.691 54.588L233.787 54.6185C234.931 54.6287 235.913 54.6083 235.954 54.5676C235.994 54.5168 237.26 52.4106 238.769 49.8668C240.439 47.0484 241.512 45.1457 241.512 44.9931C241.512 44.8303 240.419 42.897 238.708 40.0175L235.903 35.3066H233.797C232.643 35.3066 231.691 35.3269 231.691 35.3473Z" fill="#1B7DC2"/>
<path d="M240.126 35.4305C240.156 35.5017 241.189 37.6689 242.434 40.2432C243.669 42.8174 244.682 44.9643 244.682 45.0254C244.682 45.0762 243.821 46.8874 242.778 49.0444C241.736 51.2015 240.703 53.3382 240.49 53.8063L240.105 54.6406H242.222H244.348L247.142 49.9398C249.44 46.053 249.926 45.178 249.896 44.9236C249.876 44.7506 248.62 42.5325 247.091 39.9583L244.327 35.3084H242.201C240.541 35.3084 240.085 35.3389 240.126 35.4305Z" fill="#1B7DC2"/>
</svg>
