<svg width="180" height="28" viewBox="0 0 180 28" fill="none" xmlns="http://www.w3.org/2000/svg">
<g clip-path="url(#clip0_1268_72042)">
<path d="M144.749 5.67089V22.3044H148.342V15.4985H155.992V22.3044H159.585V5.67089H155.992V12.504H148.342V5.67089H144.749ZM138.569 22.3044H142.353L135.329 5.67089H131.681L124.522 22.3044H128.142L129.585 18.9559H137.208L138.569 22.3044ZM130.674 16.1791L133.451 9.50941L136.065 16.1791H130.674ZM167.643 15.5802H169.876L175.375 22.2772H180.003L172.653 13.6746L179.077 5.64366H174.967L169.631 12.7762H167.643V5.64366H164.05V22.2772H167.643V15.5802ZM112.652 12.1501V8.44767H122.044V5.67089H109.059V22.3044H116.545C120.738 22.3044 123.161 20.3987 123.161 17.0775C123.161 13.8924 120.983 12.1501 117.008 12.1501H112.652ZM112.652 19.5276V14.9268H116.409C118.696 14.9268 119.758 15.6891 119.758 17.2408C119.758 18.7926 118.641 19.5548 116.409 19.5548H112.652V19.5276ZM80.5509 8.50996L84.3186 5.74334H71.7238V22.3957H84.3186V19.6159H75.3205V15.3606H82.988V12.5808H75.3205V8.50996H80.5509ZM62.2253 12.2383H57.8515V8.5231H64.8338L68.6015 5.74334H54.2679V22.3957H61.7641C65.9799 22.3957 68.3778 20.4854 68.3778 17.1523C68.3778 13.9773 66.1909 12.2383 62.2253 12.2383ZM61.5931 19.6159H57.8515V15.0049H61.5931C63.8722 15.0049 64.9391 15.7822 64.9391 17.3104C64.9391 18.8913 63.8061 19.6159 61.5931 19.6159ZM94.5163 5.7303H87.6658V22.3958H91.2621V17.6794H94.5163C98.89 17.6794 101.604 15.3739 101.604 11.6983C101.604 8.02261 98.89 5.7303 94.5163 5.7303ZM94.4371 14.8997H91.249V8.51011H94.4371C96.7427 8.51011 98.0076 9.64306 98.0076 11.6983C98.0076 13.7666 96.7427 14.8997 94.4371 14.8997ZM48.0897 18.7861C47.1677 19.2999 46.1004 19.5634 44.9808 19.5634C41.7396 19.5634 39.3948 17.2447 39.3948 14.0697C39.3948 10.8947 41.7396 8.57598 44.9808 8.57598C46.206 8.57598 47.3125 8.91854 48.248 9.59044L50.8169 7.69335L50.6455 7.5352C49.1439 6.20461 47.1281 5.51953 44.8224 5.51953C42.3327 5.51953 40.0666 6.36273 38.4462 7.89094C36.8126 9.43233 35.9168 11.5929 35.9168 13.9775C35.9168 16.3752 36.8126 18.5621 38.4332 20.143C40.0535 21.7372 42.3196 22.6066 44.7963 22.6066C47.3917 22.6066 49.6443 21.6976 51.1859 20.0508C50.0002 19.1813 48.8541 18.3382 48.8541 18.3382L48.0897 18.7861ZM24.8038 5.54649C25.4586 6.39227 26.0043 7.3199 26.4681 8.3021L13.8632 17.6057L8.57031 14.2771V10.2938L13.836 13.595L24.8038 5.54649Z" fill="#21A038"/>
<path d="M3.19209 14.0043C3.19209 13.8133 3.19209 13.6496 3.21935 13.4586L0.0272988 13.2949C0.0272988 13.5132 6.72566e-10 13.7587 6.72566e-10 13.977C-3.73437e-05 17.7966 1.5551 21.2616 4.06516 23.7717L6.32965 21.5072C4.39256 19.5973 3.19209 16.9509 3.19209 14.0043Z" fill="url(#paint0_linear_1268_72042)"/>
<path d="M13.8299 3.36396C14.0209 3.36396 14.1845 3.36396 14.3755 3.39122L14.5392 0.199136C14.321 0.199136 14.0754 0.171875 13.8572 0.171875C10.0375 0.171875 6.57257 1.72697 4.0625 4.23704L6.32699 6.50153C8.23682 4.56444 10.9106 3.36396 13.8299 3.36396Z" fill="url(#paint1_linear_1268_72042)"/>
<path d="M13.8344 24.6454C13.6434 24.6454 13.4797 24.6454 13.2887 24.6181L13.125 27.8102C13.3433 27.8102 13.5888 27.8375 13.8071 27.8375C17.6267 27.8375 21.0917 26.2824 23.6017 23.7723L21.3373 21.5078C19.4274 23.4722 16.7809 24.6454 13.8344 24.6454Z" fill="url(#paint2_linear_1268_72042)"/>
<path d="M19.8382 5.21919L22.5393 3.22754C20.1656 1.31771 17.1372 0.144531 13.8359 0.144531V3.33666C16.0732 3.36392 18.1467 4.04601 19.8382 5.21919Z" fill="url(#paint3_linear_1268_72042)"/>
<path d="M27.6961 14.0043C27.6961 13.1585 27.6142 12.34 27.4778 11.5215L24.5039 13.7314V14.0043C24.5039 17.1418 23.1397 19.952 20.9844 21.8891L23.1397 24.2627C25.9226 21.7527 27.6961 18.0695 27.6961 14.0043Z" fill="#21A038"/>
<path d="M13.8366 24.6445C10.699 24.6445 7.88883 23.2804 5.95174 21.125L3.57812 23.2804C6.11542 26.0905 9.77139 27.8366 13.8366 27.8366V24.6445Z" fill="url(#paint4_linear_1268_72042)"/>
<path d="M6.71165 6.1197L4.55628 3.74609C1.74611 6.28335 0 9.93933 0 14.0045H3.19212C3.19212 10.8942 4.55628 8.05676 6.71165 6.11967V6.1197Z" fill="url(#paint5_linear_1268_72042)"/>
</g>
<defs>
<linearGradient id="paint0_linear_1268_72042" x1="4.71413" y1="23.3859" x2="1.21877" y2="13.2822" gradientUnits="userSpaceOnUse">
<stop offset="0.144" stop-color="#F2E913"/>
<stop offset="0.304" stop-color="#E7E518"/>
<stop offset="0.582" stop-color="#CADB26"/>
<stop offset="0.891" stop-color="#A3CD39"/>
</linearGradient>
<linearGradient id="paint1_linear_1268_72042" x1="4.97497" y1="4.80068" x2="13.9776" y2="1.36992" gradientUnits="userSpaceOnUse">
<stop offset="0.059" stop-color="#0FA8E0"/>
<stop offset="0.538" stop-color="#0099F9"/>
<stop offset="0.923" stop-color="#0291EB"/>
</linearGradient>
<linearGradient id="paint2_linear_1268_72042" x1="12.9394" y1="25.8952" x2="23.1199" y2="23.5942" gradientUnits="userSpaceOnUse">
<stop offset="0.123" stop-color="#A3CD39"/>
<stop offset="0.285" stop-color="#86C339"/>
<stop offset="0.869" stop-color="#21A038"/>
</linearGradient>
<linearGradient id="paint3_linear_1268_72042" x1="13.1769" y1="1.23159" x2="21.881" y2="3.91717" gradientUnits="userSpaceOnUse">
<stop offset="0.057" stop-color="#0291EB"/>
<stop offset="0.79" stop-color="#0C8ACB"/>
</linearGradient>
<linearGradient id="paint4_linear_1268_72042" x1="4.38596" y1="22.8927" x2="13.8604" y2="26.4326" gradientUnits="userSpaceOnUse">
<stop offset="0.132" stop-color="#F2E913"/>
<stop offset="0.298" stop-color="#EBE716"/>
<stop offset="0.531" stop-color="#D9E01F"/>
<stop offset="0.802" stop-color="#BBD62D"/>
<stop offset="0.983" stop-color="#A3CD39"/>
</linearGradient>
<linearGradient id="paint5_linear_1268_72042" x1="1.19599" y1="14.3896" x2="4.99911" y2="4.49631" gradientUnits="userSpaceOnUse">
<stop offset="0.07" stop-color="#A3CD39"/>
<stop offset="0.26" stop-color="#81C55F"/>
<stop offset="0.922" stop-color="#0FA8E0"/>
</linearGradient>
<clipPath id="clip0_1268_72042">
<rect width="180" height="27.7095" fill="white" transform="translate(0 0.144531)"/>
</clipPath>
</defs>
</svg>
