<svg width="200" height="200" viewBox="0 0 200 200" fill="none" xmlns="http://www.w3.org/2000/svg">
<g opacity="0.4">
<path d="M0 28C0 12.536 12.536 0 28 0H72C87.464 0 100 12.536 100 28C100 16.9543 89.2548 8 76 8H28C16.9543 8 8 16.9543 8 28H0ZM100 100H4H100ZM28 100C12.536 100 0 87.464 0 72V28C0 12.536 12.536 0 28 0V8C16.9543 8 8 16.9543 8 28V76C8 89.2548 16.9543 100 28 100ZM100 4V100V4Z" fill="#28B571"/>
</g>
<g opacity="0.4">
<path d="M100 100H196H100ZM200 172C200 187.464 187.464 200 172 200H128C112.536 200 100 187.464 100 172C100 183.046 110.745 192 124 192H172C183.046 192 192 183.046 192 172H200ZM100 196V100V196ZM172 100C187.464 100 200 112.536 200 128V172C200 187.464 187.464 200 172 200V192C183.046 192 192 183.046 192 172V124C192 110.745 183.046 100 172 100Z" fill="#28B571"/>
</g>
<g opacity="0.4">
<path d="M28 124H76H28ZM76 164C76 170.627 70.6274 176 64 176H36C29.3726 176 24 170.627 24 164H32C32 166.209 33.7909 168 36 168H68C72.4183 168 76 166.209 76 164ZM36 176C29.3726 176 24 170.627 24 164V136C24 129.373 29.3726 124 36 124C33.7909 124 32 127.582 32 132V164C32 166.209 33.7909 168 36 168V176ZM76 124V172V124Z" fill="#28B571"/>
</g>
<g opacity="0.4">
<path d="M124 36C124 29.3726 129.373 24 136 24H164C170.627 24 176 29.3726 176 36H168C168 33.7909 166.209 32 164 32H132C127.582 32 124 33.7909 124 36ZM172 76H124H172ZM124 76V28V76ZM164 24C170.627 24 176 29.3726 176 36V64C176 70.6274 170.627 76 164 76C166.209 76 168 72.4183 168 68V36C168 33.7909 166.209 32 164 32V24Z" fill="#28B571"/>
</g>
<rect x="51.5" y="52" width="96" height="96" rx="16" fill="#28B571"/>
<g clip-path="url(#clip0_291_5659)">
<path d="M120.138 84.862L92.4998 112.498C92.3139 112.685 92.0931 112.833 91.8499 112.934C91.6068 113.035 91.3461 113.087 91.0828 113.087C90.8194 113.087 90.5587 113.035 90.3156 112.934C90.0724 112.833 89.8516 112.685 89.6658 112.498L78.9778 101.8C78.7919 101.613 78.5711 101.465 78.3279 101.364C78.0848 101.263 77.8241 101.211 77.5608 101.211C77.2974 101.211 77.0367 101.263 76.7936 101.364C76.5504 101.465 76.3296 101.613 76.1438 101.8C75.9572 101.986 75.8092 102.207 75.7082 102.45C75.6072 102.693 75.5552 102.954 75.5552 103.217C75.5552 103.48 75.6072 103.741 75.7082 103.984C75.8092 104.227 75.9572 104.448 76.1438 104.634L86.8358 115.324C87.9636 116.45 89.4921 117.082 91.0858 117.082C92.6794 117.082 94.2079 116.45 95.3358 115.324L122.972 87.694C123.158 87.5082 123.306 87.2875 123.407 87.0446C123.507 86.8016 123.559 86.5411 123.559 86.278C123.559 86.0149 123.507 85.7545 123.407 85.5115C123.306 85.2685 123.158 85.0478 122.972 84.862C122.786 84.6755 122.565 84.5274 122.322 84.4264C122.079 84.3254 121.818 84.2734 121.555 84.2734C121.291 84.2734 121.031 84.3254 120.788 84.4264C120.544 84.5274 120.324 84.6755 120.138 84.862Z" fill="white"/>
</g>
<defs>
<clipPath id="clip0_291_5659">
<rect width="48" height="48" fill="white" transform="translate(75.5 76)"/>
</clipPath>
</defs>
</svg>
