<svg width="32" height="33" viewBox="0 0 32 33" fill="none" xmlns="http://www.w3.org/2000/svg">
<g clip-path="url(#clip0_1262_35955)">
<path d="M23.9922 3.54818C22.3648 2.09423 20.3717 1.11162 18.2273 0.706085C16.083 0.300549 13.8687 0.487443 11.8227 1.24666C9.7767 2.00587 7.97647 3.30865 6.61574 5.01481C5.25501 6.72096 4.38531 8.76589 4.10023 10.9295C3.8442 12.8266 4.04897 14.7575 4.69719 16.5588C5.34541 18.36 6.41802 19.9786 7.82423 21.2775C8.69383 22.0401 9.39554 22.975 9.88487 24.023C10.3742 25.071 10.6405 26.2092 10.6669 27.3655V27.5802C10.6683 28.8846 11.1871 30.1352 12.1095 31.0576C13.0319 31.98 14.2825 32.4988 15.5869 32.5002H16.4136C17.718 32.4988 18.9686 31.98 19.891 31.0576C20.8133 30.1352 21.3322 28.8846 21.3336 27.5802V26.8482C21.3535 25.8261 21.594 24.8205 22.0386 23.9C22.4832 22.9795 23.1214 22.1659 23.9096 21.5148C25.1877 20.3954 26.2133 19.0172 26.9186 17.4715C27.6239 15.9258 27.9926 14.2478 28.0004 12.5488C28.0082 10.8498 27.6549 9.16854 26.9639 7.61639C26.2729 6.06423 25.26 4.67663 23.9922 3.54551V3.54818ZM16.4136 29.8335H15.5869C14.9895 29.8328 14.4168 29.5952 13.9943 29.1727C13.5719 28.7503 13.3343 28.1776 13.3336 27.5802C13.3336 27.5802 13.3242 27.2335 13.3229 27.1668H18.6669V27.5802C18.6662 28.1776 18.4286 28.7503 18.0061 29.1727C17.5837 29.5952 17.011 29.8328 16.4136 29.8335V29.8335ZM22.1469 19.5122C20.6288 20.8289 19.5325 22.5638 18.9949 24.5002H17.3336V14.9215C18.1108 14.6467 18.7841 14.1385 19.2614 13.4664C19.7388 12.7944 19.9968 11.9912 20.0002 11.1668C20.0002 10.8132 19.8598 10.4741 19.6097 10.224C19.3597 9.97399 19.0205 9.83351 18.6669 9.83351C18.3133 9.83351 17.9741 9.97399 17.7241 10.224C17.474 10.4741 17.3336 10.8132 17.3336 11.1668C17.3336 11.5205 17.1931 11.8596 16.943 12.1097C16.693 12.3597 16.3539 12.5002 16.0002 12.5002C15.6466 12.5002 15.3075 12.3597 15.0574 12.1097C14.8074 11.8596 14.6669 11.5205 14.6669 11.1668C14.6669 10.8132 14.5264 10.4741 14.2764 10.224C14.0263 9.97399 13.6872 9.83351 13.3336 9.83351C12.9799 9.83351 12.6408 9.97399 12.3908 10.224C12.1407 10.4741 12.0002 10.8132 12.0002 11.1668C12.0036 11.9912 12.2617 12.7944 12.739 13.4664C13.2164 14.1385 13.8897 14.6467 14.6669 14.9215V24.5002H12.9042C12.3029 22.5125 11.1751 20.7244 9.64023 19.3255C8.3375 18.1116 7.4092 16.5504 6.96486 14.8262C6.52052 13.1019 6.57869 11.2865 7.13251 9.59417C7.68633 7.90187 8.71268 6.40331 10.0905 5.27533C11.4682 4.14735 13.1399 3.43702 14.9082 3.22818C15.2748 3.18726 15.6434 3.16678 16.0122 3.16684C18.3023 3.16004 20.5131 4.00501 22.2149 5.53751C23.2012 6.41697 23.9892 7.49603 24.5268 8.70314C25.0644 9.91026 25.3393 11.2179 25.3333 12.5393C25.3272 13.8607 25.0404 15.1657 24.4917 16.3679C23.9431 17.57 23.1452 18.6418 22.1509 19.5122H22.1469Z" fill="#A6ABBD"/>
</g>
<defs>
<clipPath id="clip0_1262_35955">
<rect width="32" height="32" fill="white" transform="translate(0 0.5)"/>
</clipPath>
</defs>
</svg>
