<svg width="32" height="33" viewBox="0 0 32 33" fill="none" xmlns="http://www.w3.org/2000/svg">
<g clip-path="url(#clip0_1268_71754)">
<path d="M12 32.4992H1.33333C0.979711 32.4992 0.640573 32.3587 0.390524 32.1086C0.140476 31.8586 0 31.5195 0 31.1658C0 30.8122 0.140476 30.4731 0.390524 30.223C0.640573 29.973 0.979711 29.8325 1.33333 29.8325H12C12.3536 29.8325 12.6928 29.973 12.9428 30.223C13.1929 30.4731 13.3333 30.8122 13.3333 31.1658C13.3333 31.5195 13.1929 31.8586 12.9428 32.1086C12.6928 32.3587 12.3536 32.4992 12 32.4992Z" fill="#A6ABBD"/>
<path d="M9.33333 27.1667H1.33333C0.979711 27.1667 0.640573 27.0262 0.390524 26.7762C0.140476 26.5261 0 26.187 0 25.8333C0 25.4797 0.140476 25.1406 0.390524 24.8905C0.640573 24.6405 0.979711 24.5 1.33333 24.5H9.33333C9.68696 24.5 10.0261 24.6405 10.2761 24.8905C10.5262 25.1406 10.6667 25.4797 10.6667 25.8333C10.6667 26.187 10.5262 26.5261 10.2761 26.7762C10.0261 27.0262 9.68696 27.1667 9.33333 27.1667Z" fill="#A6ABBD"/>
<path d="M6.66667 21.8342H1.33333C0.979711 21.8342 0.640573 21.6937 0.390524 21.4436C0.140476 21.1936 0 20.8544 0 20.5008C0 20.1472 0.140476 19.8081 0.390524 19.558C0.640573 19.308 0.979711 19.1675 1.33333 19.1675H6.66667C7.02029 19.1675 7.35943 19.308 7.60948 19.558C7.85952 19.8081 8 20.1472 8 20.5008C8 20.8544 7.85952 21.1936 7.60948 21.4436C7.35943 21.6937 7.02029 21.8342 6.66667 21.8342Z" fill="#A6ABBD"/>
<path d="M17.3335 32.4394C16.9798 32.4552 16.6344 32.3298 16.3733 32.0908C16.1121 31.8519 15.9565 31.519 15.9408 31.1654C15.9251 30.8118 16.0504 30.4664 16.2894 30.2052C16.5283 29.9441 16.8612 29.7885 17.2148 29.7728C19.7381 29.5419 22.1433 28.5968 24.1488 27.0482C26.1543 25.4996 27.6771 23.4116 28.5387 21.0288C29.4003 18.646 29.5651 16.0669 29.0138 13.5938C28.4625 11.1207 27.2179 8.85589 25.4258 7.06462C23.6337 5.27336 21.3683 4.02981 18.8949 3.47965C16.4216 2.92948 13.8426 3.09547 11.4602 3.95817C9.07779 4.82087 6.9905 6.34456 5.44283 8.35079C3.89516 10.357 2.95118 12.7627 2.72147 15.2861C2.68964 15.6383 2.51921 15.9634 2.24766 16.19C1.9761 16.4165 1.62568 16.5259 1.27347 16.4941C0.921264 16.4623 0.596126 16.2918 0.369582 16.0203C0.143038 15.7487 0.033647 15.3983 0.065473 15.0461C0.437324 10.9438 2.37694 7.14302 5.48057 4.43484C8.5842 1.72666 12.6127 0.319773 16.7275 0.507037C20.8423 0.6943 24.7264 2.46129 27.5712 5.44018C30.416 8.41907 32.0024 12.3803 32.0001 16.4994C32.0205 20.4972 30.5353 24.3562 27.84 27.3088C25.1446 30.2613 21.4365 32.0911 17.4535 32.4341C17.4135 32.4381 17.3721 32.4394 17.3335 32.4394Z" fill="#A6ABBD"/>
<path d="M16.0003 8.5C15.6467 8.5 15.3076 8.64048 15.0575 8.89052C14.8075 9.14057 14.667 9.47971 14.667 9.83333V16.5C14.6671 16.8536 14.8076 17.1927 15.0577 17.4427L19.0577 21.4427C19.3091 21.6855 19.6459 21.8199 19.9955 21.8169C20.3451 21.8139 20.6795 21.6736 20.9267 21.4264C21.174 21.1792 21.3142 20.8448 21.3172 20.4952C21.3203 20.1456 21.1859 19.8088 20.943 19.5573L17.3337 15.948V9.83333C17.3337 9.47971 17.1932 9.14057 16.9431 8.89052C16.6931 8.64048 16.3539 8.5 16.0003 8.5Z" fill="#A6ABBD"/>
</g>
<defs>
<clipPath id="clip0_1268_71754">
<rect width="32" height="32" fill="white" transform="translate(0 0.5)"/>
</clipPath>
</defs>
</svg>
