<svg width="32" height="33" viewBox="0 0 32 33" fill="none" xmlns="http://www.w3.org/2000/svg">
<g clip-path="url(#clip0_1268_71970)">
<path d="M16 0.5C12.8355 0.5 9.74207 1.43838 7.11088 3.19649C4.4797 4.95459 2.42894 7.45345 1.21793 10.3771C0.00693258 13.3007 -0.309921 16.5177 0.307443 19.6214C0.924806 22.7251 2.44866 25.5761 4.6863 27.8137C6.92394 30.0514 9.77487 31.5752 12.8786 32.1926C15.9823 32.8099 19.1993 32.4931 22.1229 31.2821C25.0466 30.0711 27.5454 28.0203 29.3035 25.3891C31.0616 22.7579 32 19.6645 32 16.5C31.9954 12.2579 30.3082 8.19095 27.3087 5.19136C24.3091 2.19177 20.2421 0.504588 16 0.5V0.5ZM16 29.8333C13.3629 29.8333 10.7851 29.0513 8.5924 27.5863C6.39975 26.1212 4.69078 24.0388 3.68161 21.6024C2.67245 19.1661 2.4084 16.4852 2.92287 13.8988C3.43734 11.3124 4.70722 8.93661 6.57192 7.07191C8.43662 5.20721 10.8124 3.93733 13.3988 3.42286C15.9852 2.90839 18.6661 3.17244 21.1025 4.18161C23.5388 5.19078 25.6212 6.89974 27.0863 9.0924C28.5514 11.2851 29.3333 13.8629 29.3333 16.5C29.3295 20.035 27.9235 23.4242 25.4238 25.9238C22.9242 28.4235 19.535 29.8295 16 29.8333Z" fill="#A6ABBD"/>
<path d="M16.0003 7.16699C15.6467 7.16699 15.3076 7.30747 15.0575 7.55752C14.8075 7.80757 14.667 8.1467 14.667 8.50033V19.167C14.667 19.5206 14.8075 19.8598 15.0575 20.1098C15.3076 20.3598 15.6467 20.5003 16.0003 20.5003C16.354 20.5003 16.6931 20.3598 16.9431 20.1098C17.1932 19.8598 17.3337 19.5206 17.3337 19.167V8.50033C17.3337 8.1467 17.1932 7.80757 16.9431 7.55752C16.6931 7.30747 16.354 7.16699 16.0003 7.16699Z" fill="#A6ABBD"/>
<path d="M17.3337 24.5003C17.3337 23.7639 16.7367 23.167 16.0003 23.167C15.2639 23.167 14.667 23.7639 14.667 24.5003C14.667 25.2367 15.2639 25.8337 16.0003 25.8337C16.7367 25.8337 17.3337 25.2367 17.3337 24.5003Z" fill="#A6ABBD"/>
</g>
<defs>
<clipPath id="clip0_1268_71970">
<rect width="32" height="32" fill="white" transform="translate(0 0.5)"/>
</clipPath>
</defs>
</svg>
