<svg width="32" height="33" viewBox="0 0 32 33" fill="none" xmlns="http://www.w3.org/2000/svg">
<g clip-path="url(#clip0_1613_49224)">
<path d="M26.599 7.88185L21.9537 3.23385C21.0888 2.3647 20.0601 1.67563 18.9273 1.20646C17.7944 0.737303 16.5798 0.497363 15.3537 0.500519H9.33366C7.5662 0.502636 5.87174 1.20569 4.62195 2.45548C3.37217 3.70526 2.66911 5.39973 2.66699 7.16719V25.8339C2.66911 27.6013 3.37217 29.2958 4.62195 30.5456C5.87174 31.7953 7.5662 32.4984 9.33366 32.5005H22.667C24.4345 32.4984 26.1289 31.7953 27.3787 30.5456C28.6285 29.2958 29.3315 27.6013 29.3337 25.8339V14.4805C29.337 13.2544 29.097 12.0398 28.6276 10.9072C28.1581 9.77446 27.4686 8.74617 26.599 7.88185V7.88185ZM24.7137 9.76719C25.1208 10.186 25.4709 10.6568 25.755 11.1672H20.0003C19.6467 11.1672 19.3076 11.0267 19.0575 10.7767C18.8075 10.5266 18.667 10.1875 18.667 9.83385V4.07919C19.1776 4.36308 19.6487 4.71273 20.0683 5.11919L24.7137 9.76719ZM26.667 25.8339C26.667 26.8947 26.2456 27.9121 25.4954 28.6623C24.7453 29.4124 23.7279 29.8339 22.667 29.8339H9.33366C8.27279 29.8339 7.25538 29.4124 6.50523 28.6623C5.75509 27.9121 5.33366 26.8947 5.33366 25.8339V7.16719C5.33366 6.10632 5.75509 5.0889 6.50523 4.33876C7.25538 3.58861 8.27279 3.16719 9.33366 3.16719H15.3537C15.5723 3.16719 15.7843 3.20985 16.0003 3.22985V9.83385C16.0003 10.8947 16.4218 11.9121 17.1719 12.6623C17.922 13.4124 18.9395 13.8339 20.0003 13.8339H26.6043C26.6243 14.0499 26.667 14.2605 26.667 14.4805V25.8339Z" fill="#A6ABBD"/>
</g>
<defs>
<clipPath id="clip0_1613_49224">
<rect width="32" height="32" fill="white" transform="translate(0 0.5)"/>
</clipPath>
</defs>
</svg>
