<svg width="32" height="33" viewBox="0 0 32 33" fill="none" xmlns="http://www.w3.org/2000/svg">
<g clip-path="url(#clip0_1268_72093)">
<path d="M16 0.5C12.8355 0.5 9.74207 1.43838 7.11088 3.19649C4.4797 4.95459 2.42894 7.45345 1.21793 10.3771C0.00693258 13.3007 -0.309921 16.5177 0.307443 19.6214C0.924806 22.7251 2.44866 25.5761 4.6863 27.8137C6.92394 30.0514 9.77487 31.5752 12.8786 32.1926C15.9823 32.8099 19.1993 32.4931 22.1229 31.2821C25.0466 30.0711 27.5454 28.0203 29.3035 25.3891C31.0616 22.7579 32 19.6645 32 16.5C31.9954 12.2579 30.3082 8.19095 27.3087 5.19136C24.3091 2.19177 20.2421 0.504588 16 0.5V0.5ZM16 29.8333C13.3629 29.8333 10.7851 29.0513 8.5924 27.5863C6.39975 26.1212 4.69078 24.0388 3.68161 21.6024C2.67245 19.1661 2.4084 16.4852 2.92287 13.8988C3.43734 11.3124 4.70722 8.93661 6.57192 7.07191C8.43662 5.20721 10.8124 3.93733 13.3988 3.42286C15.9852 2.90839 18.6661 3.17244 21.1025 4.18161C23.5388 5.19078 25.6212 6.89974 27.0863 9.0924C28.5514 11.2851 29.3333 13.8629 29.3333 16.5C29.3295 20.035 27.9235 23.4242 25.4238 25.9238C22.9242 28.4235 19.535 29.8295 16 29.8333Z" fill="#A6ABBD"/>
<path d="M16.9563 7.25044C16.1874 7.11035 15.3971 7.14096 14.6414 7.3401C13.8856 7.53924 13.1829 7.90205 12.5828 8.40285C11.9828 8.90365 11.5002 9.53021 11.1691 10.2382C10.8381 10.9461 10.6666 11.7182 10.667 12.4998C10.667 12.8534 10.8075 13.1925 11.0575 13.4426C11.3076 13.6926 11.6467 13.8331 12.0003 13.8331C12.3539 13.8331 12.6931 13.6926 12.9431 13.4426C13.1932 13.1925 13.3337 12.8534 13.3337 12.4998C13.3333 12.1075 13.4195 11.7199 13.5862 11.3648C13.7528 11.0096 13.9958 10.6956 14.2977 10.4451C14.5996 10.1947 14.9531 10.0139 15.3329 9.9157C15.7127 9.81752 16.1095 9.80434 16.495 9.87711C17.0217 9.97936 17.506 10.2363 17.886 10.6151C18.266 10.9939 18.5244 11.4774 18.6283 12.0038C18.7332 12.5563 18.6608 13.1279 18.4213 13.6368C18.1818 14.1456 17.7876 14.5658 17.295 14.8371C16.4792 15.3097 15.8051 15.9925 15.3429 16.8142C14.8807 17.6359 14.6473 18.5665 14.667 19.5091V20.4998C14.667 20.8534 14.8075 21.1925 15.0575 21.4426C15.3076 21.6926 15.6467 21.8331 16.0003 21.8331C16.3539 21.8331 16.6931 21.6926 16.9431 21.4426C17.1932 21.1925 17.3336 20.8534 17.3336 20.4998V19.5091C17.3169 19.0451 17.4227 18.5849 17.6404 18.1748C17.8581 17.7647 18.18 17.4192 18.5736 17.1731C19.5397 16.6425 20.3176 15.8257 20.8004 14.835C21.2833 13.8442 21.4473 12.7283 21.27 11.6405C21.0927 10.5527 20.5828 9.54657 19.8103 8.76044C19.0378 7.97431 18.0408 7.4468 16.9563 7.25044Z" fill="#A6ABBD"/>
<path d="M17.3337 24.4994C17.3337 23.763 16.7367 23.166 16.0003 23.166C15.2639 23.166 14.667 23.763 14.667 24.4994C14.667 25.2357 15.2639 25.8327 16.0003 25.8327C16.7367 25.8327 17.3337 25.2357 17.3337 24.4994Z" fill="#A6ABBD"/>
</g>
<defs>
<clipPath id="clip0_1268_72093">
<rect width="32" height="32" fill="white" transform="translate(0 0.5)"/>
</clipPath>
</defs>
</svg>
