<svg width="16" height="16" viewBox="0 0 16 16" fill="none" xmlns="http://www.w3.org/2000/svg">
<g clip-path="url(#clip0_1268_71818)">
<mask id="path-1-inside-1_1268_71818" fill="white">
<path d="M15.6141 11.0547L13.4201 8.86069C13.3589 8.79557 13.2853 8.74341 13.2036 8.70729C13.1219 8.67118 13.0338 8.65186 12.9445 8.65047C12.8551 8.64908 12.7664 8.66566 12.6837 8.69922C12.6009 8.73278 12.5257 8.78263 12.4625 8.84582C12.3994 8.90901 12.3496 8.98424 12.3161 9.06705C12.2826 9.14986 12.2661 9.23856 12.2675 9.32788C12.269 9.4172 12.2884 9.50532 12.3245 9.587C12.3607 9.66868 12.4129 9.74225 12.4781 9.80336L14.0047 11.3327C13.1748 11.3346 12.3529 11.1704 11.5874 10.8498C10.8219 10.5292 10.1283 10.0587 9.54742 9.46602C9.48291 9.40662 9.40713 9.36078 9.32457 9.33123C9.242 9.30167 9.15435 9.28901 9.06679 9.29398C8.97924 9.29895 8.89358 9.32147 8.8149 9.36018C8.73622 9.3989 8.66611 9.45303 8.60875 9.51936L8.60008 9.53269C8.488 9.66307 8.43063 9.83172 8.43995 10.0034C8.44926 10.1751 8.52455 10.3365 8.65009 10.454C9.34995 11.1618 10.1845 11.7222 11.1046 12.1021C12.0246 12.4821 13.0114 12.6738 14.0067 12.666L12.4781 14.1947C12.4084 14.2546 12.3519 14.3283 12.3121 14.4111C12.2722 14.4939 12.2499 14.584 12.2466 14.6758C12.2432 14.7676 12.2589 14.8592 12.2926 14.9446C12.3263 15.0301 12.3773 15.1077 12.4424 15.1725C12.5075 15.2374 12.5853 15.288 12.6709 15.3214C12.7566 15.3547 12.8481 15.37 12.9399 15.3662C13.0318 15.3625 13.1218 15.3398 13.2044 15.2996C13.287 15.2594 13.3605 15.2026 13.4201 15.1327L15.6141 12.9387C15.8636 12.6887 16.0038 12.3499 16.0038 11.9967C16.0038 11.6435 15.8636 11.3047 15.6141 11.0547Z"/>
</mask>
<path d="M15.6141 11.0547L13.4201 8.86069C13.3589 8.79557 13.2853 8.74341 13.2036 8.70729C13.1219 8.67118 13.0338 8.65186 12.9445 8.65047C12.8551 8.64908 12.7664 8.66566 12.6837 8.69922C12.6009 8.73278 12.5257 8.78263 12.4625 8.84582C12.3994 8.90901 12.3496 8.98424 12.3161 9.06705C12.2826 9.14986 12.2661 9.23856 12.2675 9.32788C12.269 9.4172 12.2884 9.50532 12.3245 9.587C12.3607 9.66868 12.4129 9.74225 12.4781 9.80336L14.0047 11.3327C13.1748 11.3346 12.3529 11.1704 11.5874 10.8498C10.8219 10.5292 10.1283 10.0587 9.54742 9.46602C9.48291 9.40662 9.40713 9.36078 9.32457 9.33123C9.242 9.30167 9.15435 9.28901 9.06679 9.29398C8.97924 9.29895 8.89358 9.32147 8.8149 9.36018C8.73622 9.3989 8.66611 9.45303 8.60875 9.51936L8.60008 9.53269C8.488 9.66307 8.43063 9.83172 8.43995 10.0034C8.44926 10.1751 8.52455 10.3365 8.65009 10.454C9.34995 11.1618 10.1845 11.7222 11.1046 12.1021C12.0246 12.4821 13.0114 12.6738 14.0067 12.666L12.4781 14.1947C12.4084 14.2546 12.3519 14.3283 12.3121 14.4111C12.2722 14.4939 12.2499 14.584 12.2466 14.6758C12.2432 14.7676 12.2589 14.8592 12.2926 14.9446C12.3263 15.0301 12.3773 15.1077 12.4424 15.1725C12.5075 15.2374 12.5853 15.288 12.6709 15.3214C12.7566 15.3547 12.8481 15.37 12.9399 15.3662C13.0318 15.3625 13.1218 15.3398 13.2044 15.2996C13.287 15.2594 13.3605 15.2026 13.4201 15.1327L15.6141 12.9387C15.8636 12.6887 16.0038 12.3499 16.0038 11.9967C16.0038 11.6435 15.8636 11.3047 15.6141 11.0547Z" fill="#A6ABBD"/>
<path d="M13.4201 8.86069L-2.13121 23.4644L-1.90182 23.7087L-1.66487 23.9456L13.4201 8.86069ZM12.4781 9.80336L27.5762 -5.26841L27.3275 -5.5175L27.0708 -5.75824L12.4781 9.80336ZM14.0047 11.3327L14.0532 32.666L65.3281 32.5495L29.1029 -3.73908L14.0047 11.3327ZM9.54742 9.46602L24.7834 -5.46633L24.401 -5.85652L23.9991 -6.22662L9.54742 9.46602ZM8.60875 9.51936L-7.52747 -4.43534L-8.48238 -3.33115L-9.27797 -2.10717L8.60875 9.51936ZM8.60008 9.53269L24.7776 23.4395L25.7085 22.3566L26.4868 21.1592L8.60008 9.53269ZM8.65009 10.454L23.8198 -4.54565L23.5293 -4.83947L23.2276 -5.12183L8.65009 10.454ZM14.0067 12.666L29.0917 27.751L65.9158 -9.07317L13.8402 -8.66666L14.0067 12.666ZM12.4781 14.1947L26.3894 30.3683L26.9967 29.846L27.563 29.2796L12.4781 14.1947ZM13.4201 15.1327L-1.66487 0.0477533L-2.26339 0.646271L-2.81261 1.29033L13.4201 15.1327ZM15.6141 12.9387L30.699 28.0236L30.7055 28.0172L30.712 28.0107L15.6141 12.9387ZM16.0038 11.9967H37.3371H16.0038ZM30.699 -4.03025L28.505 -6.22425L-1.66487 23.9456L0.529124 26.1396L30.699 -4.03025ZM28.9714 -5.74303C26.9534 -7.89193 24.5241 -9.61338 21.8278 -10.8051L4.57938 28.2197C2.0465 27.1002 -0.235542 25.4831 -2.13121 23.4644L28.9714 -5.74303ZM21.8278 -10.8051C19.1316 -11.9968 16.2233 -12.6345 13.2757 -12.6803L12.6132 29.9812C9.84424 29.9382 7.11222 29.3392 4.57938 28.2197L21.8278 -10.8051ZM13.2757 -12.6803C10.3282 -12.7261 7.4015 -12.179 4.66953 -11.0716L20.6978 28.47C18.1314 29.5103 15.3821 30.0242 12.6132 29.9812L13.2757 -12.6803ZM4.66953 -11.0716C1.93759 -9.96419 -0.543983 -8.31903 -2.62776 -6.23378L27.5528 23.9254C25.5953 25.8843 23.2642 27.4297 20.6978 28.47L4.66953 -11.0716ZM-2.62776 -6.23378C-4.7116 -4.14846 -6.35497 -1.6657 -7.46039 1.06692L32.0926 17.0672C31.0541 19.6342 29.5104 21.9665 27.5528 23.9254L-2.62776 -6.23378ZM-7.46039 1.06692C-8.56581 3.79954 -9.11086 6.72659 -9.063 9.67425L33.598 8.98151C33.643 11.7505 33.131 14.5002 32.0926 17.0672L-7.46039 1.06692ZM-9.063 9.67425C-9.01513 12.6217 -8.37541 15.5295 -7.18177 18.225L31.8308 0.948981C32.9521 3.48108 33.5531 6.21268 33.598 8.98151L-9.063 9.67425ZM-7.18177 18.225C-5.98815 20.9204 -4.265 23.3485 -2.11465 25.365L27.0708 -5.75824C29.0908 -3.86398 30.7096 -1.58308 31.8308 0.948981L-7.18177 18.225ZM-2.62003 24.8751L-1.09336 26.4045L29.1029 -3.73908L27.5762 -5.26841L-2.62003 24.8751ZM13.9563 -10.0006C15.9722 -10.0052 17.9686 -9.60636 19.8281 -8.82765L3.34679 30.5273C6.73722 31.9472 10.3775 32.6743 14.0532 32.666L13.9563 -10.0006ZM19.8281 -8.82765C21.6875 -8.04894 23.3724 -6.90607 24.7834 -5.46633L-5.68859 24.3984C-3.11574 27.0236 -0.0436506 29.1074 3.34679 30.5273L19.8281 -8.82765ZM23.9991 -6.22662C21.8326 -8.22185 19.2873 -9.76145 16.5143 -10.7541L2.13482 29.4165C-0.473015 28.483 -2.86676 27.0351 -4.90429 25.1587L23.9991 -6.22662ZM16.5143 -10.7541C13.7414 -11.7467 10.7972 -12.1721 7.85662 -12.005L10.277 30.593C7.51148 30.7501 4.74265 30.35 2.13482 29.4165L16.5143 -10.7541ZM7.85662 -12.005C4.91606 -11.8379 2.03905 -11.0818 -0.603645 -9.78145L18.2334 28.5018C15.7481 29.7247 13.0424 30.4358 10.277 30.593L7.85662 -12.005ZM-0.603645 -9.78145C-3.24633 -8.48113 -5.60087 -6.66313 -7.52747 -4.43534L24.745 23.4741C22.9331 25.5692 20.7188 27.2789 18.2334 28.5018L-0.603645 -9.78145ZM-9.27797 -2.10717L-9.28664 -2.09384L26.4868 21.1592L26.4955 21.1459L-9.27797 -2.10717ZM-7.57743 -4.37411C-11.2762 -0.0714369 -13.1695 5.49388 -12.862 11.1594L29.7419 8.84736C30.0308 14.1696 28.2522 19.3976 24.7776 23.4395L-7.57743 -4.37411ZM-12.862 11.1594C-12.5546 16.825 -10.0701 22.1528 -5.92743 26.0299L23.2276 -5.12183C27.1192 -1.4797 29.4531 3.52513 29.7419 8.84736L-12.862 11.1594ZM-6.51966 25.4537C-3.81607 28.1879 -0.592066 30.3528 2.96201 31.8204L19.2471 -7.61613C20.9611 -6.90833 22.516 -5.86429 23.8198 -4.54565L-6.51966 25.4537ZM2.96201 31.8204C6.51609 33.288 10.3282 34.0287 14.1733 33.9987L13.8402 -8.66666C15.6946 -8.68114 17.5331 -8.32393 19.2471 -7.61613L2.96201 31.8204ZM-1.0782 -2.41892L-2.60686 -0.890255L27.563 29.2796L29.0917 27.751L-1.0782 -2.41892ZM-1.43325 -1.97893C-3.73208 -0.001647 -5.59721 2.42937 -6.91175 5.16142L31.5359 23.6607C30.301 26.2272 28.5489 28.5109 26.3894 30.3683L-1.43325 -1.97893ZM-6.91175 5.16142C-8.22637 7.89363 -8.96203 10.8681 -9.07257 13.8981L33.5657 15.4535C33.4619 18.2999 32.7708 21.0941 31.5359 23.6607L-6.91175 5.16142ZM-9.07257 13.8981C-9.1831 16.928 -8.66616 19.9481 -7.55408 22.769L32.1393 7.12028C33.184 9.77017 33.6696 12.6073 33.5657 15.4535L-9.07257 13.8981ZM-7.55408 22.769C-6.44202 25.5897 -4.75891 28.1501 -2.61041 30.2895L27.4952 0.0555248C29.5135 2.06524 31.0946 4.47047 32.1393 7.12028L-7.55408 22.769ZM-2.61041 30.2895C-0.461862 32.429 2.10571 34.1011 4.93111 35.2012L20.4108 -4.55843C23.0649 -3.52508 25.4769 -1.95425 27.4952 0.0555248L-2.61041 30.2895ZM4.93111 35.2012C7.75648 36.3012 10.7788 36.8053 13.8084 36.6819L12.0715 -5.94942C14.9175 -6.06537 17.7566 -5.59177 20.4108 -4.55843L4.93111 35.2012ZM13.8084 36.6819C16.838 36.5584 19.8093 35.8101 22.5358 34.4839L3.87303 -3.88465C6.4343 -5.13047 9.22551 -5.83347 12.0715 -5.94942L13.8084 36.6819ZM22.5358 34.4839C25.2623 33.1577 27.6854 31.2822 29.6528 28.9751L-2.81261 1.29033C-0.96444 -0.876983 1.31174 -2.63882 3.87303 -3.88465L22.5358 34.4839ZM28.505 30.2176L30.699 28.0236L0.529125 -2.14625L-1.66487 0.0477533L28.505 30.2176ZM30.712 28.0107C34.9544 23.761 37.3371 18.0015 37.3371 11.9967H-5.32954C-5.32954 6.69832 -3.22712 1.61644 0.516191 -2.1333L30.712 28.0107ZM37.3371 11.9967C37.3371 5.99187 34.9544 0.232406 30.712 -4.0173L0.516191 26.1267C-3.22712 22.3769 -5.32954 17.2951 -5.32954 11.9967H37.3371Z" fill="#A6ABBD" mask="url(#path-1-inside-1_1268_71818)"/>
<mask id="path-3-inside-2_1268_71818" fill="white">
<path d="M14.0046 4.66632L12.4779 6.19298C12.4649 6.21053 12.4529 6.22878 12.4419 6.24765C12.3343 6.37882 12.2812 6.54631 12.2937 6.7155C12.3061 6.88468 12.3831 7.04262 12.5087 7.15666C12.6343 7.2707 12.7989 7.33211 12.9685 7.3282C13.1381 7.32429 13.2997 7.25535 13.4199 7.13565L14.5572 5.99965L15.6146 4.94298C15.7933 4.76282 15.9169 4.53538 15.9709 4.28738C16.0249 4.03939 16.0069 3.78114 15.9192 3.54298C15.8545 3.36068 15.7502 3.19495 15.6139 3.05765L13.4199 0.866315C13.359 0.800188 13.2854 0.747049 13.2035 0.710093C13.1216 0.673138 13.033 0.653128 12.9432 0.651266C12.8533 0.649404 12.764 0.66573 12.6806 0.699261C12.5973 0.732792 12.5215 0.782836 12.458 0.846385C12.3944 0.909935 12.3444 0.985677 12.3108 1.06906C12.2773 1.15244 12.261 1.24175 12.2628 1.3316C12.2647 1.42145 12.2847 1.51 12.3217 1.59192C12.3586 1.67385 12.4118 1.74745 12.4779 1.80831L14.0066 3.33631C10.7179 3.34431 8.91523 5.11898 7.28056 6.98565C5.77923 5.29098 3.9999 3.59965 0.991238 3.36365L0.670572 3.33298C0.493761 3.33298 0.324192 3.40322 0.199168 3.52824C0.0741441 3.65327 0.00390625 3.82284 0.00390625 3.99965C0.00731968 4.17539 0.0786533 4.34298 0.202945 4.46728C0.327237 4.59157 0.49483 4.6629 0.670572 4.66632C0.718572 4.66632 0.861905 4.68831 0.861905 4.68831C3.45924 4.88498 4.9499 6.34765 6.3999 7.99965C4.95857 9.64365 3.4779 11.133 0.901905 11.3063L0.635239 11.3203C0.459754 11.3313 0.295812 11.4115 0.179477 11.5433C0.0631417 11.6752 0.00394397 11.8478 0.0149062 12.0233C0.0258685 12.1988 0.106093 12.3627 0.237931 12.4791C0.369769 12.5954 0.542421 12.6546 0.717905 12.6436C0.821905 12.639 0.991238 12.635 1.07457 12.6283C4.42123 12.3703 6.23657 10.2283 7.85523 8.35565C9.48989 6.46631 11.0339 4.67831 14.0046 4.66632Z"/>
</mask>
<path d="M14.0046 4.66632L12.4779 6.19298C12.4649 6.21053 12.4529 6.22878 12.4419 6.24765C12.3343 6.37882 12.2812 6.54631 12.2937 6.7155C12.3061 6.88468 12.3831 7.04262 12.5087 7.15666C12.6343 7.2707 12.7989 7.33211 12.9685 7.3282C13.1381 7.32429 13.2997 7.25535 13.4199 7.13565L14.5572 5.99965L15.6146 4.94298C15.7933 4.76282 15.9169 4.53538 15.9709 4.28738C16.0249 4.03939 16.0069 3.78114 15.9192 3.54298C15.8545 3.36068 15.7502 3.19495 15.6139 3.05765L13.4199 0.866315C13.359 0.800188 13.2854 0.747049 13.2035 0.710093C13.1216 0.673138 13.033 0.653128 12.9432 0.651266C12.8533 0.649404 12.764 0.66573 12.6806 0.699261C12.5973 0.732792 12.5215 0.782836 12.458 0.846385C12.3944 0.909935 12.3444 0.985677 12.3108 1.06906C12.2773 1.15244 12.261 1.24175 12.2628 1.3316C12.2647 1.42145 12.2847 1.51 12.3217 1.59192C12.3586 1.67385 12.4118 1.74745 12.4779 1.80831L14.0066 3.33631C10.7179 3.34431 8.91523 5.11898 7.28056 6.98565C5.77923 5.29098 3.9999 3.59965 0.991238 3.36365L0.670572 3.33298C0.493761 3.33298 0.324192 3.40322 0.199168 3.52824C0.0741441 3.65327 0.00390625 3.82284 0.00390625 3.99965C0.00731968 4.17539 0.0786533 4.34298 0.202945 4.46728C0.327237 4.59157 0.49483 4.6629 0.670572 4.66632C0.718572 4.66632 0.861905 4.68831 0.861905 4.68831C3.45924 4.88498 4.9499 6.34765 6.3999 7.99965C4.95857 9.64365 3.4779 11.133 0.901905 11.3063L0.635239 11.3203C0.459754 11.3313 0.295812 11.4115 0.179477 11.5433C0.0631417 11.6752 0.00394397 11.8478 0.0149062 12.0233C0.0258685 12.1988 0.106093 12.3627 0.237931 12.4791C0.369769 12.5954 0.542421 12.6546 0.717905 12.6436C0.821905 12.639 0.991238 12.635 1.07457 12.6283C4.42123 12.3703 6.23657 10.2283 7.85523 8.35565C9.48989 6.46631 11.0339 4.67831 14.0046 4.66632Z" fill="#A6ABBD"/>
<path d="M14.0046 4.66632L29.0895 19.7513L65.7168 -16.8761L13.9184 -16.6668L14.0046 4.66632ZM12.4779 6.19298L-2.60706 -8.89196L-3.72525 -7.77377L-4.66635 -6.50293L12.4779 6.19298ZM12.4419 6.24765L28.9368 19.7764L30.019 18.457L30.8776 16.9824L12.4419 6.24765ZM13.4199 7.13565L28.4733 22.252L28.4847 22.2407L28.496 22.2294L13.4199 7.13565ZM14.5572 5.99965L29.6333 21.0934L29.6374 21.0893L14.5572 5.99965ZM15.6146 4.94298L30.6947 20.0327L30.7266 20.0009L30.7583 19.9689L15.6146 4.94298ZM15.9192 3.54298L-4.18308 10.685L-4.14178 10.8013L-4.09914 10.917L15.9192 3.54298ZM15.6139 3.05765L30.7539 -11.972L30.7219 -12.0043L30.6897 -12.0365L15.6139 3.05765ZM13.4199 0.866315L-2.27692 15.3135L-1.9732 15.6435L-1.65589 15.9604L13.4199 0.866315ZM12.4779 1.80831L27.5596 -13.2799L27.2486 -13.5907L26.9251 -13.8885L12.4779 1.80831ZM14.0066 3.33631L14.0585 24.6696L65.4006 24.5447L29.0882 -11.7519L14.0066 3.33631ZM7.28056 6.98565L-8.68772 21.1322L7.37328 39.2615L23.3299 21.0402L7.28056 6.98565ZM0.991238 3.36365L-1.03969 24.6001L-0.858495 24.6174L-0.677027 24.6317L0.991238 3.36365ZM0.670572 3.33298L2.7015 -17.9035L1.68835 -18.0004H0.670572V3.33298ZM0.00390625 3.99965H-21.3294V4.20681L-21.3254 4.41393L0.00390625 3.99965ZM0.670572 4.66632L0.256294 25.9956L0.463413 25.9996H0.670572V4.66632ZM0.861905 4.68831L-2.37462 25.7747L-1.56529 25.8989L-0.748818 25.9608L0.861905 4.68831ZM6.3999 7.99965L22.4412 22.0634L34.7782 7.99162L22.4332 -6.07316L6.3999 7.99965ZM0.901905 11.3063L2.02046 32.6103L2.17737 32.6021L2.33414 32.5915L0.901905 11.3063ZM0.635239 11.3203L-0.483319 -9.98367L-0.589105 -9.97812L-0.694832 -9.97152L0.635239 11.3203ZM0.717905 12.6436L-0.238399 -8.66824L-0.42537 -8.65985L-0.612165 -8.64818L0.717905 12.6436ZM1.07457 12.6283L-0.565187 -8.64191L-0.595928 -8.63954L-0.626662 -8.63708L1.07457 12.6283ZM7.85523 8.35565L-8.27779 -5.60275L-8.28452 -5.59496L7.85523 8.35565ZM-1.08039 -10.4186L-2.60706 -8.89196L27.5628 21.2779L29.0895 19.7513L-1.08039 -10.4186ZM-4.66635 -6.50293C-5.14571 -5.85561 -5.58885 -5.18263 -5.99383 -4.48712L30.8776 16.9824C30.4946 17.6402 30.0755 18.2767 29.6221 18.8889L-4.66635 -6.50293ZM-4.05307 -7.28112C-7.63099 -2.91874 -9.3957 2.65176 -8.98232 8.27856L33.5697 5.15243C33.9582 10.4409 32.2996 15.6764 28.9368 19.7764L-4.05307 -7.28112ZM-8.98232 8.27856C-8.56894 13.9053 -6.0091 19.1581 -1.83204 22.9508L26.8494 -8.63749C30.7753 -5.07289 33.1812 -0.135972 33.5697 5.15243L-8.98232 8.27856ZM-1.83204 22.9508C2.34501 26.7435 7.81979 28.7859 13.4603 28.6559L12.4767 -13.9995C17.778 -14.1217 22.9235 -12.2021 26.8494 -8.63749L-1.83204 22.9508ZM13.4603 28.6559C19.1007 28.5258 24.4755 26.2332 28.4733 22.252L-1.63356 -7.98073C2.12382 -11.7225 7.17541 -13.8772 12.4767 -13.9995L13.4603 28.6559ZM28.496 22.2294L29.6333 21.0934L-0.518879 -9.09414L-1.65621 -7.95814L28.496 22.2294ZM29.6374 21.0893L30.6947 20.0327L0.534362 -10.1467L-0.522971 -9.09005L29.6374 21.0893ZM30.7583 19.9689C33.7972 16.9062 35.8989 13.0396 36.8164 8.82374L-4.87453 -0.248979C-4.06501 -3.96889 -2.2106 -7.38052 0.470851 -10.083L30.7583 19.9689ZM36.8164 8.82374C37.7338 4.6078 37.429 0.217593 35.9376 -3.83104L-4.09914 10.917C-5.41506 7.34468 -5.68406 3.47097 -4.87453 -0.248979L36.8164 8.82374ZM36.0215 -3.59906C34.9041 -6.74411 33.1054 -9.60329 30.7539 -11.972L0.473831 18.0873C-1.60499 15.9932 -3.19523 13.4655 -4.18308 10.685L36.0215 -3.59906ZM30.6897 -12.0365L28.4957 -14.2278L-1.65589 15.9604L0.538109 18.1518L30.6897 -12.0365ZM29.1167 -13.5809C27.1083 -15.763 24.6793 -17.5166 21.9758 -18.7362L4.43119 20.1564C1.89154 19.0107 -0.390202 17.3634 -2.27692 15.3135L29.1167 -13.5809ZM21.9758 -18.7362C19.2724 -19.9557 16.3502 -20.6161 13.3851 -20.6775L12.5013 21.98C9.71582 21.9223 6.97079 21.302 4.43119 20.1564L21.9758 -18.7362ZM13.3851 -20.6775C10.4199 -20.7389 7.47295 -20.2002 4.72129 -19.0937L20.64 20.4922C18.0551 21.5317 15.2867 22.0377 12.5013 21.98L13.3851 -20.6775ZM4.72129 -19.0937C1.96965 -17.9871 -0.529858 -16.3357 -2.62699 -14.2386L27.5429 15.9313C25.5729 17.9014 23.2249 19.4527 20.64 20.4922L4.72129 -19.0937ZM-2.62699 -14.2386C-4.72418 -12.1414 -6.37561 -9.64184 -7.4821 -6.89027L32.1038 9.02839C31.0643 11.6132 29.513 13.9612 27.5429 15.9313L-2.62699 -14.2386ZM-7.4821 -6.89027C-8.58857 -4.13873 -9.12735 -1.19177 -9.06592 1.77349L33.5916 0.889706C33.6493 3.67526 33.1432 6.44361 32.1038 9.02839L-7.4821 -6.89027ZM-9.06592 1.77349C-9.00448 4.7387 -8.34413 7.66082 -7.12462 10.3642L31.768 -7.18037C32.9136 -4.64081 33.5339 -1.89579 33.5916 0.889706L-9.06592 1.77349ZM-7.12462 10.3642C-5.9051 13.0676 -4.15155 15.4966 -1.96932 17.5051L26.9251 -13.8885C28.9751 -12.0017 30.6224 -9.71993 31.768 -7.18037L-7.12462 10.3642ZM-2.60377 16.8965L-1.07511 18.4245L29.0882 -11.7519L27.5596 -13.2799L-2.60377 16.8965ZM13.9547 -17.997C0.866683 -17.9651 -6.39542 -9.77908 -8.76873 -7.06893L23.3299 21.0402C23.9771 20.3011 23.1546 21.395 21.4717 22.4653C20.5152 23.0736 19.3197 23.6645 17.9157 24.0848C16.5101 24.5055 15.1899 24.6668 14.0585 24.6696L13.9547 -17.997ZM23.2488 -7.1609C20.8881 -9.82564 14.2998 -16.9913 2.6595 -17.9044L-0.677027 24.6317C-3.09482 24.442 -5.31952 23.5723 -7.03172 22.4448C-8.43348 21.5217 -9.11441 20.6506 -8.68772 21.1322L23.2488 -7.1609ZM3.02217 -17.8728L2.7015 -17.9035L-1.36036 24.5694L-1.03969 24.6001L3.02217 -17.8728ZM0.670572 -18.0004C-5.16421 -18.0004 -10.76 -15.6825 -14.8858 -11.5567L15.2841 18.6132C11.4084 22.4889 6.15173 24.6663 0.670572 24.6663V-18.0004ZM-14.8858 -11.5567C-19.0116 -7.43089 -21.3294 -1.83511 -21.3294 3.99965H21.3372C21.3372 9.48078 19.1599 14.7374 15.2841 18.6132L-14.8858 -11.5567ZM-21.3254 4.41393C-21.2149 10.1031 -18.9057 15.5286 -14.882 19.5522L15.2879 -10.6177C19.063 -6.84259 21.2295 -1.75236 21.3332 3.58537L-21.3254 4.41393ZM-14.882 19.5522C-10.8584 23.5759 -5.43294 25.8851 0.256294 25.9956L1.08485 -16.663C6.4226 -16.5593 11.5128 -14.3927 15.2879 -10.6177L-14.882 19.5522ZM0.670572 25.9996C-0.493119 25.9996 -1.41101 25.8963 -1.44756 25.8926C-1.71155 25.8656 -1.91256 25.8397 -1.99661 25.8286C-2.09891 25.8152 -2.17996 25.8036 -2.23031 25.7963C-2.25814 25.7922 -2.28377 25.7885 -2.30694 25.785C-2.31866 25.7832 -2.33012 25.7815 -2.34132 25.7798C-2.34692 25.7789 -2.3525 25.7781 -2.35804 25.7772C-2.36081 25.7768 -2.36358 25.7764 -2.36634 25.776C-2.36772 25.7758 -2.3691 25.7756 -2.37048 25.7753C-2.37117 25.7752 -2.37186 25.7751 -2.37255 25.775C-2.37289 25.775 -2.37341 25.7749 -2.37358 25.7749C-2.3741 25.7748 -2.37462 25.7747 0.861905 4.68831C4.09843 -16.3981 4.09791 -16.3982 4.09739 -16.3982C4.09721 -16.3983 4.09669 -16.3983 4.09634 -16.3984C4.09565 -16.3985 4.09494 -16.3986 4.09424 -16.3987C4.09282 -16.3989 4.09139 -16.3992 4.08994 -16.3994C4.08704 -16.3998 4.08407 -16.4003 4.08102 -16.4007C4.07494 -16.4017 4.06855 -16.4026 4.06188 -16.4037C4.04857 -16.4057 4.03398 -16.4079 4.01824 -16.4102C3.98705 -16.4149 3.94985 -16.4204 3.90782 -16.4265C3.82911 -16.438 3.70922 -16.455 3.56509 -16.474C3.4392 -16.4905 3.19336 -16.522 2.889 -16.5531C2.81207 -16.561 1.85826 -16.667 0.670572 -16.667V25.9996ZM-0.748818 25.9608C-3.4686 25.7548 -5.98246 24.7654 -7.92537 23.4457C-9.4413 22.4161 -10.2024 21.4242 -9.63342 22.0725L22.4332 -6.07316C20.4454 -8.33786 14.0464 -15.7078 2.47263 -16.5841L-0.748818 25.9608ZM-9.64137 -6.06409C-10.2733 -5.34329 -9.50991 -6.34398 -8.00642 -7.37723C-6.04669 -8.72403 -3.43196 -9.78364 -0.530331 -9.97889L2.33414 32.5915C14.1619 31.7957 20.6709 24.0826 22.4412 22.0634L-9.64137 -6.06409ZM-0.216652 -9.99767L-0.483319 -9.98367L1.7538 32.6243L2.02046 32.6103L-0.216652 -9.99767ZM-0.694832 -9.97152C-6.51719 -9.6078 -11.9567 -6.94608 -15.8166 -2.57175L16.1756 25.6584C12.5483 29.7691 7.43669 32.2704 1.96531 32.6121L-0.694832 -9.97152ZM-15.8166 -2.57175C-19.6765 1.80252 -21.6406 7.53097 -21.2769 13.3534L21.3067 10.6932C21.6485 16.1647 19.8028 21.5478 16.1756 25.6584L-15.8166 -2.57175ZM-21.2769 13.3534C-20.9132 19.1758 -18.2515 24.6153 -13.8772 28.4752L14.353 -3.51701C18.4636 0.110233 20.9649 5.22183 21.3067 10.6932L-21.2769 13.3534ZM-13.8772 28.4752C-9.50286 32.3351 -3.7744 34.2992 2.04798 33.9355L-0.612165 -8.64818C4.85924 -8.98997 10.2424 -7.14428 14.353 -3.51701L-13.8772 28.4752ZM1.67421 33.9555C1.59588 33.9591 1.54301 33.9608 1.56691 33.96C1.57556 33.9597 1.58042 33.9595 1.60472 33.9586C1.62367 33.958 1.65382 33.9569 1.68751 33.9557C1.74728 33.9535 1.86719 33.949 2.00865 33.9423C2.08211 33.9388 2.18144 33.9338 2.29736 33.9269C2.40802 33.9204 2.57496 33.9098 2.7758 33.8937L-0.626662 -8.63708C-0.446646 -8.65148 -0.303231 -8.6605 -0.218193 -8.66553C-0.127885 -8.67086 -0.056271 -8.67443 -0.0120279 -8.67653C0.0338441 -8.6787 0.068668 -8.68016 0.0875988 -8.68093C0.107071 -8.68172 0.119386 -8.68217 0.120466 -8.68221C0.121278 -8.68224 0.118231 -8.68213 0.104253 -8.68163C0.0956231 -8.68133 0.0678226 -8.68036 0.0446692 -8.67953C0.0190109 -8.67862 -0.0191864 -8.67723 -0.0628789 -8.67555C-0.10577 -8.67389 -0.166955 -8.67145 -0.238399 -8.66824L1.67421 33.9555ZM2.71433 33.8985C15.8484 32.886 22.9064 23.5656 23.995 22.3063L-8.28452 -5.59496C-8.78141 -5.0201 -8.81229 -4.99058 -8.79553 -5.00801C-8.72585 -5.08048 -8.32724 -5.49157 -7.64591 -6C-6.93234 -6.53249 -5.9147 -7.16846 -4.60247 -7.69319C-3.26708 -8.22717 -1.89061 -8.53973 -0.565187 -8.64191L2.71433 33.8985ZM23.9882 22.314C24.4745 21.7521 24.473 21.763 24.3912 21.8472C24.2578 21.9846 23.7096 22.5395 22.8019 23.1857C21.8404 23.8702 20.5178 24.6288 18.8537 25.1915C17.1729 25.7598 15.5406 25.9936 14.0907 25.9995L13.9184 -16.6668C0.157122 -16.6113 -7.22151 -6.82359 -8.27779 -5.60275L23.9882 22.314Z" fill="#A6ABBD" mask="url(#path-3-inside-2_1268_71818)"/>
</g>
<defs>
<clipPath id="clip0_1268_71818">
<rect width="16" height="16" fill="white"/>
</clipPath>
</defs>
</svg>
