<svg width="32" height="33" viewBox="0 0 32 33" fill="none" xmlns="http://www.w3.org/2000/svg">
<g clip-path="url(#clip0_1268_71723)">
<path d="M16 0.5C12.8355 0.5 9.74207 1.43838 7.11088 3.19649C4.4797 4.95459 2.42894 7.45345 1.21793 10.3771C0.00693258 13.3007 -0.309921 16.5177 0.307443 19.6214C0.924806 22.7251 2.44866 25.5761 4.6863 27.8137C6.92394 30.0514 9.77487 31.5752 12.8786 32.1926C15.9823 32.8099 19.1993 32.4931 22.1229 31.2821C25.0466 30.0711 27.5454 28.0203 29.3035 25.3891C31.0616 22.7579 32 19.6645 32 16.5C31.9954 12.2579 30.3082 8.19095 27.3087 5.19136C24.3091 2.19177 20.2421 0.504588 16 0.5V0.5ZM17.3333 29.7653V27.1667C17.3333 26.813 17.1929 26.4739 16.9428 26.2239C16.6928 25.9738 16.3536 25.8333 16 25.8333C15.6464 25.8333 15.3072 25.9738 15.0572 26.2239C14.8072 26.4739 14.6667 26.813 14.6667 27.1667V29.7653C11.6082 29.4539 8.75091 28.0967 6.57709 25.9229C4.40326 23.7491 3.04609 20.8918 2.73467 17.8333H5.33334C5.68696 17.8333 6.0261 17.6929 6.27615 17.4428C6.5262 17.1928 6.66667 16.8536 6.66667 16.5C6.66667 16.1464 6.5262 15.8072 6.27615 15.5572C6.0261 15.3071 5.68696 15.1667 5.33334 15.1667H2.73467C3.04609 12.1082 4.40326 9.25091 6.57709 7.07708C8.75091 4.90326 11.6082 3.54608 14.6667 3.23467V5.83333C14.6667 6.18696 14.8072 6.52609 15.0572 6.77614C15.3072 7.02619 15.6464 7.16667 16 7.16667C16.3536 7.16667 16.6928 7.02619 16.9428 6.77614C17.1929 6.52609 17.3333 6.18696 17.3333 5.83333V3.23467C20.3918 3.54608 23.2491 4.90326 25.4229 7.07708C27.5968 9.25091 28.9539 12.1082 29.2653 15.1667H26.6667C26.3131 15.1667 25.9739 15.3071 25.7239 15.5572C25.4738 15.8072 25.3333 16.1464 25.3333 16.5C25.3333 16.8536 25.4738 17.1928 25.7239 17.4428C25.9739 17.6929 26.3131 17.8333 26.6667 17.8333H29.2653C28.9539 20.8918 27.5968 23.7491 25.4229 25.9229C23.2491 28.0967 20.3918 29.4539 17.3333 29.7653ZM21.3333 16.5C21.3333 16.8536 21.1929 17.1928 20.9428 17.4428C20.6928 17.6929 20.3536 17.8333 20 17.8333H17.3333V20.5C17.3333 20.8536 17.1929 21.1928 16.9428 21.4428C16.6928 21.6929 16.3536 21.8333 16 21.8333C15.6464 21.8333 15.3072 21.6929 15.0572 21.4428C14.8072 21.1928 14.6667 20.8536 14.6667 20.5V17.8333H12C11.6464 17.8333 11.3072 17.6929 11.0572 17.4428C10.8072 17.1928 10.6667 16.8536 10.6667 16.5C10.6667 16.1464 10.8072 15.8072 11.0572 15.5572C11.3072 15.3071 11.6464 15.1667 12 15.1667H14.6667V12.5C14.6667 12.1464 14.8072 11.8072 15.0572 11.5572C15.3072 11.3071 15.6464 11.1667 16 11.1667C16.3536 11.1667 16.6928 11.3071 16.9428 11.5572C17.1929 11.8072 17.3333 12.1464 17.3333 12.5V15.1667H20C20.3536 15.1667 20.6928 15.3071 20.9428 15.5572C21.1929 15.8072 21.3333 16.1464 21.3333 16.5Z" fill="#A6ABBD"/>
</g>
<defs>
<clipPath id="clip0_1268_71723">
<rect width="32" height="32" fill="white" transform="translate(0 0.5)"/>
</clipPath>
</defs>
</svg>
