<svg width="32" height="32" viewBox="0 0 32 32" fill="none" xmlns="http://www.w3.org/2000/svg">
<g clip-path="url(#clip0_1262_35932)">
<path d="M29.0266 11.9311C28.809 11.8533 28.6102 11.7307 28.443 11.5713C28.2758 11.4118 28.144 11.219 28.056 11.0053C27.968 10.7917 27.9259 10.5619 27.9323 10.3309C27.9387 10.1 27.9936 9.8729 28.0933 9.66447C28.4759 8.85921 28.6 7.95526 28.4484 7.07668C28.2968 6.19811 27.8771 5.38798 27.2467 4.75748C26.6164 4.12698 25.8063 3.70703 24.9278 3.55525C24.0493 3.40348 23.1453 3.52733 22.3399 3.9098C22.1315 4.0093 21.9044 4.06398 21.6735 4.0703C21.4426 4.07662 21.2129 4.03444 20.9993 3.94648C20.7857 3.85853 20.593 3.72676 20.4334 3.55967C20.2739 3.39259 20.1512 3.19391 20.0733 2.97647C19.7735 2.13791 19.2219 1.41251 18.4939 0.899627C17.7659 0.386743 16.8971 0.11145 16.0066 0.11145C15.1161 0.11145 14.2473 0.386743 13.5193 0.899627C12.7913 1.41251 12.2397 2.13791 11.9399 2.97647C11.8621 3.19404 11.7395 3.39286 11.5801 3.56006C11.4206 3.72726 11.2278 3.85911 11.0141 3.94709C10.8005 4.03507 10.5707 4.07721 10.3397 4.07078C10.1088 4.06436 9.88171 4.00951 9.67327 3.9098C8.8675 3.5243 7.96202 3.39813 7.08156 3.54867C6.2011 3.69921 5.38898 4.11907 4.75708 4.75039C4.12517 5.38171 3.70457 6.19344 3.55321 7.07376C3.40185 7.95408 3.52718 8.85968 3.91194 9.6658C4.01187 9.8742 4.06688 10.1013 4.07341 10.3323C4.07994 10.5634 4.03784 10.7932 3.94984 11.0069C3.86184 11.2206 3.7299 11.4134 3.56258 11.5729C3.39527 11.7323 3.19631 11.8549 2.9786 11.9325C2.14064 12.2328 1.41592 12.7847 0.903558 13.5126C0.391196 14.2405 0.116211 15.109 0.116211 15.9991C0.116211 16.8893 0.391196 17.7577 0.903558 18.4857C1.41592 19.2136 2.14064 19.7655 2.9786 20.0658C3.19676 20.1429 3.39628 20.265 3.5642 20.4242C3.73213 20.5834 3.86471 20.7761 3.95334 20.9898C4.04198 21.2035 4.08469 21.4335 4.07871 21.6648C4.07272 21.8961 4.01817 22.1236 3.9186 22.3325C3.53572 23.1372 3.41126 24.0408 3.56231 24.9191C3.71336 25.7974 4.13251 26.6074 4.76224 27.238C5.39198 27.8686 6.20143 28.2889 7.07952 28.4412C7.95762 28.5934 8.86131 28.4702 9.6666 28.0885C9.87504 27.9888 10.1021 27.9339 10.3331 27.9275C10.564 27.9211 10.7938 27.9632 11.0074 28.0512C11.2211 28.1392 11.4139 28.271 11.5734 28.4382C11.7329 28.6054 11.8555 28.8042 11.9333 29.0218C12.233 29.8604 12.7847 30.5858 13.5127 31.0986C14.2407 31.6115 15.1094 31.8868 15.9999 31.8868C16.8905 31.8868 17.7592 31.6115 18.4872 31.0986C19.2152 30.5858 19.7669 29.8604 20.0666 29.0218C20.1444 28.8042 20.267 28.6054 20.4265 28.4382C20.586 28.271 20.7788 28.1392 20.9924 28.0512C21.2061 27.9632 21.4358 27.9211 21.6668 27.9275C21.8978 27.9339 22.1248 27.9888 22.3333 28.0885C23.1385 28.4711 24.0425 28.5952 24.9211 28.4436C25.7996 28.292 26.6098 27.8723 27.2403 27.2419C27.8708 26.6116 28.2907 25.8015 28.4425 24.923C28.5943 24.0445 28.4704 23.1405 28.0879 22.3351C27.9884 22.1267 27.9338 21.8996 27.9274 21.6687C27.9211 21.4378 27.9633 21.2081 28.0513 20.9945C28.1392 20.7809 28.271 20.5882 28.4381 20.4286C28.6051 20.2691 28.8038 20.1464 29.0213 20.0685C29.8598 19.7687 30.5852 19.2171 31.0981 18.4891C31.611 17.7611 31.8863 16.8923 31.8863 16.0018C31.8863 15.1113 31.611 14.2425 31.0981 13.5145C30.5852 12.7865 29.8598 12.2349 29.0213 11.9351L29.0266 11.9311ZM28.1333 17.5565C27.564 17.7589 27.0436 18.0786 26.6056 18.4948C26.1676 18.911 25.8218 19.4145 25.5906 19.9727C25.3594 20.5309 25.2479 21.1314 25.2633 21.7354C25.2786 22.3394 25.4206 22.9334 25.6799 23.4791C25.8267 23.7874 25.8744 24.1335 25.8164 24.4699C25.7584 24.8063 25.5977 25.1165 25.3562 25.3579C25.1147 25.5992 24.8044 25.7598 24.468 25.8175C24.1315 25.8753 23.7854 25.8274 23.4773 25.6805C22.9317 25.4211 22.3377 25.2792 21.7338 25.2638C21.1299 25.2485 20.5295 25.36 19.9714 25.5912C19.4133 25.8224 18.9099 26.1682 18.4939 26.6062C18.0778 27.0442 17.7583 27.5646 17.5559 28.1338C17.442 28.4554 17.2313 28.7339 16.9526 28.9308C16.674 29.1278 16.3412 29.2335 15.9999 29.2335C15.6587 29.2335 15.3259 29.1278 15.0472 28.9308C14.7686 28.7339 14.5578 28.4554 14.4439 28.1338C14.2413 27.5647 13.9215 27.0444 13.5053 26.6065C13.0891 26.1686 12.5856 25.823 12.0275 25.5918C11.4693 25.3606 10.8689 25.249 10.265 25.2643C9.66102 25.2796 9.06701 25.4213 8.52127 25.6805C8.21309 25.8268 7.86718 25.8741 7.53103 25.8159C7.19489 25.7577 6.885 25.5969 6.64392 25.3555C6.40284 25.1142 6.2424 24.8041 6.18463 24.4679C6.12686 24.1317 6.17459 23.7858 6.32127 23.4778C6.58057 22.9321 6.72245 22.3381 6.73773 21.7341C6.75302 21.1301 6.64137 20.5297 6.41001 19.9716C6.17865 19.4135 5.83272 18.9101 5.3946 18.4941C4.95649 18.0781 4.43593 17.7587 3.8666 17.5565C3.54556 17.442 3.26779 17.231 3.07139 16.9524C2.87498 16.6738 2.76955 16.3413 2.76955 16.0005C2.76955 15.6596 2.87498 15.3271 3.07139 15.0485C3.26779 14.77 3.54556 14.559 3.8666 14.4445C4.43612 14.2423 4.95683 13.9229 5.39505 13.5067C5.83326 13.0906 6.1792 12.5871 6.41047 12.0288C6.64174 11.4704 6.75318 10.8698 6.73759 10.2657C6.72199 9.66155 6.5797 9.06744 6.31994 8.5218C6.17344 8.21371 6.12592 7.86783 6.18389 7.53165C6.24187 7.19547 6.4025 6.88548 6.64372 6.64425C6.88495 6.40303 7.19494 6.2424 7.53112 6.18442C7.8673 6.12645 8.21318 6.17397 8.52127 6.32047C9.06697 6.57981 9.66102 6.72176 10.265 6.73714C10.869 6.75253 11.4695 6.641 12.0277 6.40978C12.5859 6.17856 13.0894 5.83279 13.5056 5.39481C13.9218 4.95683 14.2415 4.43639 14.4439 3.86713C14.5578 3.54549 14.7686 3.26704 15.0472 3.07011C15.3259 2.87317 15.6587 2.76743 15.9999 2.76743C16.3412 2.76743 16.674 2.87317 16.9526 3.07011C17.2313 3.26704 17.442 3.54549 17.5559 3.86713C17.7584 4.43639 18.0781 4.95683 18.4943 5.39481C18.9105 5.83279 19.414 6.17856 19.9722 6.40978C20.5304 6.641 21.1309 6.75253 21.7349 6.73714C22.3389 6.72176 22.9329 6.57981 23.4786 6.32047C23.7868 6.1737 24.133 6.12602 24.4694 6.184C24.8058 6.24197 25.116 6.40275 25.3573 6.64422C25.5986 6.88568 25.7592 7.19598 25.817 7.53244C25.8748 7.8689 25.8269 8.215 25.6799 8.52313C25.4206 9.06874 25.2787 9.6627 25.2633 10.2666C25.2479 10.8705 25.3595 11.4709 25.5907 12.029C25.8219 12.5871 26.1677 13.0905 26.6057 13.5065C27.0436 13.9226 27.5641 14.2421 28.1333 14.4445C28.4549 14.5584 28.7334 14.7691 28.9303 15.0478C29.1272 15.3264 29.233 15.6593 29.233 16.0005C29.233 16.3417 29.1272 16.6745 28.9303 16.9532C28.7334 17.2318 28.4549 17.4426 28.1333 17.5565Z" fill="#A6ABBD"/>
</g>
<defs>
<clipPath id="clip0_1262_35932">
<rect width="32" height="32" fill="white"/>
</clipPath>
</defs>
</svg>
