<?xml version="1.0" encoding="utf-8"?><svg xmlns="http://www.w3.org/2000/svg" xmlns:xlink="http://www.w3.org/1999/xlink"><symbol fill="none" viewBox="0 0 20 21" id="icon__angle-small-down" xmlns="http://www.w3.org/2000/svg"><path d="M15.592 7.342a.834.834 0 00-1.184 0l-3.816 3.816a.834.834 0 01-1.184 0L5.592 7.342a.834.834 0 10-1.184 1.175l3.825 3.825a2.5 2.5 0 003.534 0l3.825-3.825a.833.833 0 000-1.175z" fill="#A6ABBD"/></symbol><symbol fill="none" viewBox="0 0 32 32" id="icon__apps" xmlns="http://www.w3.org/2000/svg"><g clip-path="url(#abclip0_1268_71795)" fill="#A6ABBD"><path d="M9.333 0h-4A5.333 5.333 0 000 5.333v4a5.333 5.333 0 005.333 5.334h4a5.333 5.333 0 005.334-5.334v-4A5.333 5.333 0 009.333 0zM12 9.333A2.667 2.667 0 019.333 12h-4a2.667 2.667 0 01-2.666-2.667v-4a2.667 2.667 0 012.666-2.666h4A2.667 2.667 0 0112 5.333v4zM26.666 0h-4a5.333 5.333 0 00-5.333 5.333v4a5.333 5.333 0 005.333 5.334h4A5.333 5.333 0 0032 9.333v-4A5.333 5.333 0 0026.666 0zm2.667 9.333A2.667 2.667 0 0126.666 12h-4A2.667 2.667 0 0120 9.333v-4a2.667 2.667 0 012.666-2.666h4a2.667 2.667 0 012.667 2.666v4zM9.333 17.333h-4A5.333 5.333 0 000 22.667v4A5.333 5.333 0 005.333 32h4a5.333 5.333 0 005.334-5.333v-4a5.333 5.333 0 00-5.334-5.334zM12 26.667a2.667 2.667 0 01-2.667 2.666h-4a2.667 2.667 0 01-2.666-2.666v-4A2.667 2.667 0 015.333 20h4A2.667 2.667 0 0112 22.667v4zM26.666 17.333h-4a5.333 5.333 0 00-5.333 5.334v4A5.333 5.333 0 0022.666 32h4A5.333 5.333 0 0032 26.667v-4a5.333 5.333 0 00-5.334-5.334zm2.667 9.334a2.667 2.667 0 01-2.667 2.666h-4A2.667 2.667 0 0120 26.667v-4A2.666 2.666 0 0122.666 20h4a2.667 2.667 0 012.667 2.667v4z"/></g><defs><clipPath id="abclip0_1268_71795"><path fill="#fff" d="M0 0h32v32H0z"/></clipPath></defs></symbol><symbol fill="none" viewBox="0 0 32 33" id="icon__badge" xmlns="http://www.w3.org/2000/svg"><g clip-path="url(#acclip0_1268_71998)"><path d="M26.667 11.166A10.667 10.667 0 108 18.198v10.968a3.333 3.333 0 005.416 2.603l2.168-1.733a.667.667 0 01.832 0l2.168 1.733A3.334 3.334 0 0024 29.167V18.197a10.609 10.609 0 002.667-7.032zM16 3.166a8 8 0 11-8 8 8.008 8.008 0 018-8zm4.956 26.598a.654.654 0 01-.705-.08l-2.168-1.733a3.32 3.32 0 00-4.165 0l-2.167 1.733a.667.667 0 01-1.084-.518V20.39a10.58 10.58 0 0010.667 0v8.776a.65.65 0 01-.378.598z" fill="#A6ABBD"/></g><defs><clipPath id="acclip0_1268_71998"><path fill="#fff" transform="translate(0 .5)" d="M0 0h32v32H0z"/></clipPath></defs></symbol><symbol fill="none" viewBox="0 0 32 33" id="icon__bulb" xmlns="http://www.w3.org/2000/svg"><g clip-path="url(#adclip0_1262_35955)"><path d="M23.992 3.548A12 12 0 004.1 10.93a11.918 11.918 0 003.724 10.348 8.35 8.35 0 012.843 6.088v.214a4.925 4.925 0 004.92 4.92h.827a4.925 4.925 0 004.92-4.92v-.732a7.096 7.096 0 012.576-5.333 11.993 11.993 0 00.082-17.97v.003zm-7.578 26.286h-.827a2.256 2.256 0 01-2.253-2.254l-.011-.413h5.344v.413a2.256 2.256 0 01-2.253 2.254zm5.733-10.322a10.223 10.223 0 00-3.152 4.988h-1.661v-9.579A4 4 0 0020 11.168a1.333 1.333 0 10-2.666 0 1.333 1.333 0 11-2.667 0 1.334 1.334 0 00-2.667 0 4 4 0 002.667 3.755V24.5h-1.763a11.511 11.511 0 00-3.264-5.174 9.334 9.334 0 015.268-16.098c.367-.04.735-.061 1.104-.061 2.29-.007 4.501.838 6.203 2.37a9.323 9.323 0 01-.064 13.975h-.004z" fill="#A6ABBD"/></g><defs><clipPath id="adclip0_1262_35955"><path fill="#fff" transform="translate(0 .5)" d="M0 0h32v32H0z"/></clipPath></defs></symbol><symbol fill="none" viewBox="0 0 24 25" id="icon__calendar" xmlns="http://www.w3.org/2000/svg"><g clip-path="url(#aeclip0_1268_71687)" fill="#A6ABBD"><path d="M19 2.5h-1v-1a1 1 0 00-2 0v1H8v-1a1 1 0 00-2 0v1H5a5.006 5.006 0 00-5 5v12a5.006 5.006 0 005 5h14a5.006 5.006 0 005-5v-12a5.006 5.006 0 00-5-5zm-17 5a3 3 0 013-3h14a3 3 0 013 3v1H2v-1zm17 15H5a3 3 0 01-3-3v-9h20v9a3 3 0 01-3 3z"/><path d="M12 17a1.5 1.5 0 100-3 1.5 1.5 0 000 3zM7 17a1.5 1.5 0 100-3 1.5 1.5 0 000 3zM17 17a1.5 1.5 0 100-3 1.5 1.5 0 000 3z"/></g><defs><clipPath id="aeclip0_1268_71687"><path fill="#fff" transform="translate(0 .5)" d="M0 0h24v24H0z"/></clipPath></defs></symbol><symbol fill="none" viewBox="0 0 16 16" id="icon__clock" xmlns="http://www.w3.org/2000/svg"><g clip-path="url(#afclip0_1268_71811)" fill="#A6ABBD"><path d="M8 0a8 8 0 108 8 8.009 8.009 0 00-8-8zm0 14.667A6.666 6.666 0 1114.667 8 6.674 6.674 0 018 14.667z"/><path d="M8 4a.667.667 0 00-.667.667V7.55L5.086 8.958a.668.668 0 10.708 1.133l2.56-1.6a.667.667 0 00.313-.572V4.667A.667.667 0 008 4z"/></g><defs><clipPath id="afclip0_1268_71811"><path fill="#fff" d="M0 0h16v16H0z"/></clipPath></defs></symbol><symbol fill="none" viewBox="0 0 24 24" id="icon__cross-circle" xmlns="http://www.w3.org/2000/svg"><g clip-path="url(#agclip0_1459_18867)" fill="#A6ABBD"><path d="M16 8a1 1 0 00-1.414 0L12 10.586 9.414 8A1 1 0 008 9.414L10.586 12 8 14.586A1 1 0 009.414 16L12 13.414 14.586 16A1 1 0 0016 14.586L13.414 12 16 9.414A1 1 0 0016 8z"/><path d="M12 0a12 12 0 1012 12A12.013 12.013 0 0012 0zm0 22a10 10 0 1110-10 10.011 10.011 0 01-10 10z"/></g><defs><clipPath id="agclip0_1459_18867"><path fill="#fff" d="M0 0h24v24H0z"/></clipPath></defs></symbol><symbol fill="none" viewBox="0 0 32 33" id="icon__cup" xmlns="http://www.w3.org/2000/svg"><path d="M20.121 21.833C28.881 21.785 32 17.145 32 13.167a4.666 4.666 0 00-3.685-4.559c.181-.516.338-.99.444-1.348a5.184 5.184 0 00-.835-4.61A5.306 5.306 0 0023.639.5H8.36a5.305 5.305 0 00-4.285 2.15 5.183 5.183 0 00-.835 4.61c.106.359.267.832.444 1.348A4.667 4.667 0 000 13.167c0 3.978 3.119 8.618 11.879 8.666.078.405.118.816.121 1.228v4.106a2.511 2.511 0 01-2.667 2.666H8A1.333 1.333 0 108 32.5h16a1.333 1.333 0 100-2.667h-1.323A2.515 2.515 0 0120 27.167V23.06c.003-.412.044-.822.121-1.227zm7.212-10.666a2 2 0 012 2c0 2.712-2.145 5.6-8.048 5.96.296-.403.637-.77 1.016-1.095a20.175 20.175 0 004.97-6.879c.021.002.04.014.062.014zm-24.666 2a2 2 0 012-2c.022 0 .041-.012.062-.014a20.175 20.175 0 004.97 6.879c.38.324.72.692 1.016 1.095-5.903-.36-8.048-3.248-8.048-5.96zm11.35 16.666a5.44 5.44 0 00.65-2.666V23.06a9.241 9.241 0 00-3.242-7.06A20.451 20.451 0 015.8 6.5a2.533 2.533 0 01.413-2.259 2.659 2.659 0 012.15-1.074h15.277a2.659 2.659 0 012.149 1.08 2.534 2.534 0 01.413 2.258 20.45 20.45 0 01-5.626 9.496 9.237 9.237 0 00-3.242 7.059v4.107a5.44 5.44 0 00.65 2.666h-3.966z" fill="#A6ABBD"/></symbol><symbol fill="none" viewBox="0 0 24 24" id="icon__document" xmlns="http://www.w3.org/2000/svg"><g clip-path="url(#aiclip0_1613_49229)"><path d="M17 14a1 1 0 01-1 1H8a1 1 0 110-2h8a1 1 0 011 1zm-4 3H8a1 1 0 000 2h5a1 1 0 100-2zm9-6.515V19a5.006 5.006 0 01-5 5H7a5.006 5.006 0 01-5-5V5a5.006 5.006 0 015-5h4.515a6.958 6.958 0 014.95 2.05l3.484 3.486A6.95 6.95 0 0122 10.485zm-6.949-7.021A5.01 5.01 0 0014 2.684V7a1 1 0 001 1h4.316a4.98 4.98 0 00-.781-1.05l-3.484-3.486zM20 10.485c0-.165-.032-.323-.047-.485H15a3 3 0 01-3-3V2.047c-.162-.015-.321-.047-.485-.047H7a3 3 0 00-3 3v14a3 3 0 003 3h10a3 3 0 003-3v-8.515z" fill="#FF5C00"/></g><defs><clipPath id="aiclip0_1613_49229"><path fill="#fff" d="M0 0h24v24H0z"/></clipPath></defs></symbol><symbol fill="none" viewBox="0 0 32 32" id="icon__document-signed" xmlns="http://www.w3.org/2000/svg"><g clip-path="url(#ajclip0_1262_35921)"><path d="M26.047 4.163l-2.208-2.211A6.624 6.624 0 0019.124 0h-8.457A6.675 6.675 0 004 6.667v18.666A6.675 6.675 0 0010.667 32h10.666A6.674 6.674 0 0028 25.333V8.876a6.625 6.625 0 00-1.953-4.713zM24.16 6.048c.19.188.359.396.506.619h-3.334V3.333c.223.149.43.318.62.507l2.208 2.208zm1.172 19.285a4 4 0 01-4 4H10.667a4 4 0 01-4-4V6.667a4 4 0 014-4h8v4a2.667 2.667 0 002.666 2.666h4v16zm-4-13.333a1.333 1.333 0 110 2.667H10.667a1.333 1.333 0 110-2.667h10.666zm1.334 6.667A1.333 1.333 0 0121.333 20H10.667a1.333 1.333 0 110-2.667h10.666a1.333 1.333 0 011.334 1.334zm-.256 4.55a1.334 1.334 0 01-.29 1.859 8.618 8.618 0 01-4.608 1.59 4.336 4.336 0 01-2.666-.933c-.438-.3-.604-.4-.934-.4a5.267 5.267 0 00-2.442 1.059 1.333 1.333 0 01-1.619-2.117 7.815 7.815 0 014.067-1.608 4.034 4.034 0 012.442.873c.317.285.726.448 1.152.46a6.113 6.113 0 003.036-1.079 1.334 1.334 0 011.862.296z" fill="#A6ABBD"/></g><defs><clipPath id="ajclip0_1262_35921"><path fill="#fff" d="M0 0h32v32H0z"/></clipPath></defs></symbol><symbol fill="none" viewBox="0 0 20 20" id="icon__download" xmlns="http://www.w3.org/2000/svg"><g clip-path="url(#akclip0_3015_1950)" fill="#fff"><path d="M8.232 15.102a2.5 2.5 0 003.536 0l2.676-2.676a.833.833 0 00-1.178-1.176l-2.438 2.44.005-12.857A.833.833 0 0010 0a.833.833 0 00-.833.833l-.008 12.84-2.425-2.423a.833.833 0 10-1.178 1.18l2.676 2.672z"/><path d="M19.167 13.333a.833.833 0 00-.834.834V17.5a.834.834 0 01-.833.833h-15a.834.834 0 01-.833-.833v-3.333a.833.833 0 00-.834-.834.833.833 0 00-.833.834V17.5A2.5 2.5 0 002.5 20h15a2.5 2.5 0 002.5-2.5v-3.333a.833.833 0 00-.833-.834z"/></g><defs><clipPath id="akclip0_3015_1950"><path fill="#fff" d="M0 0h20v20H0z"/></clipPath></defs></symbol><symbol fill="none" viewBox="0 0 16 16" id="icon__envelope" xmlns="http://www.w3.org/2000/svg"><g clip-path="url(#alclip0_3010_34879)"><path d="M12.667.667H3.333A3.337 3.337 0 000 4v8a3.337 3.337 0 003.333 3.333h9.334A3.337 3.337 0 0016 12V4A3.338 3.338 0 0012.667.667zM3.333 2h9.334a2 2 0 011.853 1.258L9.415 8.364a2.005 2.005 0 01-2.83 0L1.48 3.258A2 2 0 013.333 2zm9.334 12H3.333a2 2 0 01-2-2V5l4.31 4.306a3.338 3.338 0 004.714 0L14.667 5v7a2 2 0 01-2 2z" fill="#A6ABBD"/></g><defs><clipPath id="alclip0_3010_34879"><path fill="#fff" d="M0 0h16v16H0z"/></clipPath></defs></symbol><symbol fill="none" viewBox="0 0 32 33" id="icon__exclamation" xmlns="http://www.w3.org/2000/svg"><g clip-path="url(#amclip0_1268_71970)" fill="#A6ABBD"><path d="M16 .5a16 16 0 1016 16 16.018 16.018 0 00-16-16zm0 29.333A13.334 13.334 0 1129.333 16.5 13.347 13.347 0 0116 29.833z"/><path d="M16 7.167A1.333 1.333 0 0014.667 8.5v10.667a1.333 1.333 0 002.667 0V8.5A1.333 1.333 0 0016 7.167zM17.334 24.5a1.333 1.333 0 10-2.667 0 1.333 1.333 0 002.667 0z"/></g><defs><clipPath id="amclip0_1268_71970"><path fill="#fff" transform="translate(0 .5)" d="M0 0h32v32H0z"/></clipPath></defs></symbol><symbol fill="none" viewBox="0 0 32 33" id="icon__file" xmlns="http://www.w3.org/2000/svg"><g clip-path="url(#anclip0_1613_49224)"><path d="M26.599 7.882l-4.645-4.648A9.278 9.278 0 0015.354.5h-6.02a6.675 6.675 0 00-6.667 6.666v18.667A6.675 6.675 0 009.334 32.5h13.333a6.675 6.675 0 006.667-6.667V14.48a9.268 9.268 0 00-2.735-6.598zm-1.885 1.885c.407.419.757.89 1.041 1.4H20a1.334 1.334 0 01-1.333-1.333V4.079c.51.284.982.634 1.401 1.04l4.646 4.648zm1.953 16.067a4 4 0 01-4 4H9.334a4 4 0 01-4-4V7.167a4 4 0 014-4h6.02c.218 0 .43.043.646.063v6.604a4 4 0 004 4h6.604c.02.216.063.427.063.646v11.354z" fill="#A6ABBD"/></g><defs><clipPath id="anclip0_1613_49224"><path fill="#fff" transform="translate(0 .5)" d="M0 0h32v32H0z"/></clipPath></defs></symbol><symbol fill="none" viewBox="0 0 16 16" id="icon__home-location" xmlns="http://www.w3.org/2000/svg"><g clip-path="url(#aoclip0_1268_71815)"><path d="M14.533 3.72L9.867.57a3.32 3.32 0 00-3.734 0L1.467 3.72A3.333 3.333 0 000 6.482v6.184A3.337 3.337 0 003.333 16h9.334A3.337 3.337 0 0016 12.667V6.483a3.333 3.333 0 00-1.467-2.764zm.134 8.947a2 2 0 01-2 2H3.333a2 2 0 01-2-2V6.483a2 2 0 01.882-1.658l4.666-3.15a1.99 1.99 0 012.238 0l4.666 3.15a2 2 0 01.882 1.658v6.184zM8 4.67a4 4 0 00-2.823 6.834l1.216 1.189a2.31 2.31 0 003.214 0l1.222-1.195A4 4 0 008 4.671zm1.89 5.88l-1.216 1.19a.97.97 0 01-1.349 0l-1.211-1.184a2.666 2.666 0 113.777-.006zM8.668 8.667a.667.667 0 11-1.334 0 .667.667 0 011.334 0z" fill="#A6ABBD"/></g><defs><clipPath id="aoclip0_1268_71815"><path fill="#fff" d="M0 0h16v16H0z"/></clipPath></defs></symbol><symbol fill="none" viewBox="0 0 25 25" id="icon__info" xmlns="http://www.w3.org/2000/svg"><g clip-path="url(#apclip0_1268_71704)" fill="#A6ABBD"><path d="M12.5.5a12 12 0 1012 12 12.013 12.013 0 00-12-12zm0 22a10 10 0 1110-10 10.011 10.011 0 01-10 10z"/><path d="M12.5 10.5h-1a1 1 0 000 2h1v6a1 1 0 002 0v-6a2 2 0 00-2-2zM12.5 8.5a1.5 1.5 0 100-3 1.5 1.5 0 000 3z"/></g><defs><clipPath id="apclip0_1268_71704"><path fill="#fff" transform="translate(.5 .5)" d="M0 0h24v24H0z"/></clipPath></defs></symbol><symbol fill="none" viewBox="0 0 20 20" id="icon__info-orange" xmlns="http://www.w3.org/2000/svg"><g clip-path="url(#aqclip0_1427_37326)" fill="#FF5C00"><path d="M10 0a10 10 0 1010 10A10.011 10.011 0 0010 0zm0 18.333A8.333 8.333 0 1118.333 10 8.342 8.342 0 0110 18.333z"/><path d="M10 8.334h-.834a.833.833 0 000 1.666H10v5a.833.833 0 001.666 0v-5A1.667 1.667 0 0010 8.334zM10 6.666a1.25 1.25 0 100-2.5 1.25 1.25 0 000 2.5z"/></g><defs><clipPath id="aqclip0_1427_37326"><path fill="#fff" d="M0 0h20v20H0z"/></clipPath></defs></symbol><symbol fill="none" viewBox="0 0 32 33" id="icon__interrogation" xmlns="http://www.w3.org/2000/svg"><g clip-path="url(#arclip0_1268_72093)" fill="#A6ABBD"><path d="M16 .5a16 16 0 1016 16 16.018 16.018 0 00-16-16zm0 29.333A13.334 13.334 0 1129.333 16.5 13.347 13.347 0 0116 29.833z"/><path d="M16.956 7.25a5.333 5.333 0 00-6.289 5.25 1.334 1.334 0 002.667 0 2.665 2.665 0 014.552-1.885c.38.379.638.862.742 1.389a2.667 2.667 0 01-1.333 2.833 5.272 5.272 0 00-2.628 4.672v.99a1.334 1.334 0 002.667 0v-.99a2.643 2.643 0 011.24-2.336 5.333 5.333 0 00-1.618-9.923zM17.334 24.5a1.333 1.333 0 10-2.667 0 1.333 1.333 0 002.667 0z"/></g><defs><clipPath id="arclip0_1268_72093"><path fill="#fff" transform="translate(0 .5)" d="M0 0h32v32H0z"/></clipPath></defs></symbol><symbol fill="none" viewBox="0 0 24 25" id="icon__marker" xmlns="http://www.w3.org/2000/svg"><g clip-path="url(#asclip0_1268_71692)" fill="#A6ABBD"><path d="M12 6.5a4 4 0 100 8 4 4 0 000-8zm0 6a2 2 0 110-4 2 2 0 010 4z"/><path d="M12 24.5a5.27 5.27 0 01-4.311-2.2c-3.811-5.257-5.744-9.209-5.744-11.747a10.055 10.055 0 0120.11 0c0 2.538-1.933 6.49-5.744 11.747A5.27 5.27 0 0112 24.5zm0-21.819a7.883 7.883 0 00-7.874 7.874c0 2.01 1.893 5.727 5.329 10.466a3.145 3.145 0 005.09 0c3.436-4.739 5.329-8.456 5.329-10.466A7.883 7.883 0 0012 2.681z"/></g><defs><clipPath id="asclip0_1268_71692"><path fill="#fff" transform="translate(0 .5)" d="M0 0h24v24H0z"/></clipPath></defs></symbol><symbol fill="none" viewBox="0 0 32 33" id="icon__message" xmlns="http://www.w3.org/2000/svg"><path d="M30.825 1.676A3.955 3.955 0 0027.092.61L5.759 5.103A6.66 6.66 0 001.955 16.41l2.29 2.29a1.333 1.333 0 01.39.943v4.224c.004.594.14 1.18.4 1.713l-.01.01.035.034a4 4 0 001.816 1.808l.035.035.009-.01c.534.26 1.12.397 1.713.4h4.224c.354 0 .693.14.943.389l2.29 2.29a6.617 6.617 0 006.832 1.611 6.578 6.578 0 004.46-5.315l4.5-21.38a3.967 3.967 0 00-1.057-3.777zM6.133 16.817l-2.292-2.289a3.92 3.92 0 01-.962-4.098 3.97 3.97 0 013.333-2.702l21.121-4.446L7.3 23.317v-3.673a3.971 3.971 0 00-1.167-2.826zm18.628 9.56a4 4 0 01-6.785 2.283l-2.293-2.293a3.97 3.97 0 00-2.826-1.17H9.184L29.22 5.166l-4.459 21.21z" fill="#A6ABBD"/></symbol><symbol fill="none" viewBox="0 0 16 16" id="icon__phone-call" xmlns="http://www.w3.org/2000/svg"><g clip-path="url(#auclip0_3010_34883)"><path d="M8.666.667A.667.667 0 019.333 0 6.674 6.674 0 0116 6.667a.666.666 0 11-1.334 0 5.34 5.34 0 00-5.333-5.334.667.667 0 01-.667-.666zM9.333 4A2.667 2.667 0 0112 6.667a.666.666 0 101.333 0 4.004 4.004 0 00-4-4 .667.667 0 100 1.333zm6.062 7.16a2.066 2.066 0 010 2.918l-.606.7C9.329 20.004-3.958 6.72 1.189 1.243l.766-.667A2.054 2.054 0 014.84.604c.02.02 1.256 1.625 1.256 1.625a2.067 2.067 0 01-.005 2.855l-.772.97a8.52 8.52 0 004.62 4.63l.977-.776a2.067 2.067 0 012.854-.004s1.604 1.235 1.625 1.255zm-.917.969s-1.595-1.228-1.616-1.248a.733.733 0 00-1.033 0c-.018.018-1.363 1.09-1.363 1.09a.666.666 0 01-.652.101A10.006 10.006 0 013.934 6.2a.667.667 0 01.096-.667S5.1 4.188 5.12 4.171a.733.733 0 000-1.033c-.022-.02-1.249-1.617-1.249-1.617a.733.733 0 00-1.007.026l-.766.667C-1.663 6.737 9.85 17.612 13.814 13.867l.607-.7a.747.747 0 00.057-1.038z" fill="#A6ABBD"/></g><defs><clipPath id="auclip0_3010_34883"><path fill="#fff" d="M0 0h16v16H0z"/></clipPath></defs></symbol><symbol fill="none" viewBox="0 0 32 32" id="icon__physics" xmlns="http://www.w3.org/2000/svg"><g clip-path="url(#avclip0_1262_35940)" fill="#A6ABBD"><path d="M30.084 1.916C26.919-1.249 22.192-.477 16 4.183 9.81-.477 5.084-1.25 1.916 1.916-1.252 5.083-.478 9.808 4.182 16c-4.66 6.191-5.433 10.918-2.266 14.084A6.267 6.267 0 006.506 32c2.627 0 5.8-1.402 9.494-4.181C19.692 30.598 22.865 32 25.494 32a6.268 6.268 0 004.59-1.916c3.167-3.166 2.4-7.892-2.267-14.084 4.66-6.192 5.434-10.917 2.267-14.084zm-4.637.788a3.742 3.742 0 012.756 1.092c2.328 2.33.608 6.284-2.118 10.052a68.827 68.827 0 00-3.81-4.122 68.522 68.522 0 00-4.126-3.814c2.53-1.83 5.147-3.208 7.297-3.208zM24.415 16a66.83 66.83 0 01-4.022 4.4A63.272 63.272 0 0116 24.415a66.806 66.806 0 01-4.393-4.015A63.601 63.601 0 017.585 16a64.647 64.647 0 014.022-4.393A65.682 65.682 0 0116 7.584a66.43 66.43 0 014.4 4.023A63.247 63.247 0 0124.415 16zM3.797 3.798a3.733 3.733 0 012.756-1.094c2.15 0 4.767 1.378 7.298 3.208a69.333 69.333 0 00-4.126 3.814 66.83 66.83 0 00-3.812 4.122C3.19 10.08 1.466 6.126 3.797 3.798zm0 24.4c-2.328-2.328-.608-6.284 2.116-10.05a69.319 69.319 0 003.812 4.122 67.743 67.743 0 004.119 3.814c-3.767 2.728-7.722 4.45-10.047 2.119v-.005zm24.4 0c-2.326 2.325-6.28.609-10.046-2.114a69.879 69.879 0 004.118-3.814 66.503 66.503 0 003.81-4.123c2.732 3.773 4.454 7.728 2.123 10.056l-.005-.005z"/><path d="M16 18.667a2.667 2.667 0 100-5.333 2.667 2.667 0 000 5.333z"/></g><defs><clipPath id="avclip0_1262_35940"><path fill="#fff" d="M0 0h32v32H0z"/></clipPath></defs></symbol><symbol fill="none" viewBox="0 0 32 32" id="icon__picture" xmlns="http://www.w3.org/2000/svg"><g clip-path="url(#awclip0_1290_28183)" fill="#A6ABBD"><path d="M25.333 0H6.667A6.675 6.675 0 000 6.667v18.666A6.674 6.674 0 006.667 32h18.666A6.674 6.674 0 0032 25.333V6.667A6.675 6.675 0 0025.333 0zM6.667 2.667h18.666a4 4 0 014 4v18.666a3.934 3.934 0 01-.4 1.714L16.716 14.829a6.669 6.669 0 00-9.43 0l-4.62 4.619V6.667a4 4 0 014-4zm0 26.666a4 4 0 01-4-4V23.22l6.504-6.504a4 4 0 015.658 0l12.218 12.218a3.934 3.934 0 01-1.714.4H6.667z"/><path d="M21.335 14a4.667 4.667 0 100-9.333 4.667 4.667 0 000 9.333zm0-6.667a2 2 0 110 4 2 2 0 010-4z"/></g><defs><clipPath id="awclip0_1290_28183"><path fill="#fff" d="M0 0h32v32H0z"/></clipPath></defs></symbol><symbol fill="none" viewBox="0 0 20 20" id="icon__search" xmlns="http://www.w3.org/2000/svg"><g clip-path="url(#axclip0_3027_17368)"><path d="M19.756 18.578l-4.975-4.974a8.346 8.346 0 10-1.178 1.178l4.974 4.974a.833.833 0 001.179-1.178zM8.333 15.001A6.667 6.667 0 1115 8.334 6.674 6.674 0 018.333 15z" fill="#A6ABBD"/></g><defs><clipPath id="axclip0_3027_17368"><path fill="#fff" d="M0 0h20v20H0z"/></clipPath></defs></symbol><symbol fill="none" viewBox="0 0 24 25" id="icon__shuffle" xmlns="http://www.w3.org/2000/svg"><g clip-path="url(#ayclip0_1268_71695)" fill="#A6ABBD"><path d="M23.421 17.082l-3.29-3.29a1 1 0 10-1.414 1.413l2.29 2.294a9.332 9.332 0 01-6.686-2.8.983.983 0 00-1.408.08l-.013.02a1 1 0 00.075 1.382A11.175 11.175 0 0021.01 19.5l-2.293 2.293A1 1 0 1020.13 23.2l3.291-3.29a2 2 0 000-2.827z"/><path d="M21.007 7.5l-2.29 2.29a.896.896 0 00-.054.082.993.993 0 001.467 1.332L21.836 9.5l1.586-1.585a2 2 0 00.457-2.1 1.968 1.968 0 00-.458-.728L20.13 1.8a1 1 0 10-1.413 1.413l2.293 2.292c-4.933.012-7.637 2.674-10.09 5.474C8.67 8.437 6 5.899 1.488 5.546L1.006 5.5a1 1 0 00-1 1 1.02 1.02 0 001 1c.072 0 .287.033.287.033 3.896.295 6.132 2.489 8.307 4.967-2.162 2.466-4.383 4.7-8.247 4.96l-.4.02a.994.994 0 10.124 1.986c.156-.007.41-.013.535-.023 5.02-.387 7.743-3.6 10.17-6.41 2.453-2.833 4.769-5.515 9.225-5.533z"/></g><defs><clipPath id="ayclip0_1268_71695"><path fill="#fff" transform="translate(0 .5)" d="M0 0h24v24H0z"/></clipPath></defs></symbol><symbol fill="none" viewBox="0 0 16 16" id="icon__shuffle-mini" xmlns="http://www.w3.org/2000/svg"><g clip-path="url(#azclip0_1268_71818)"><mask id="aza" fill="#fff"><path d="M15.614 11.055L13.42 8.86a.667.667 0 10-.942.942l1.527 1.53a6.22 6.22 0 01-4.458-1.867.655.655 0 00-.938.053l-.009.014a.667.667 0 00.05.921 7.45 7.45 0 005.357 2.212l-1.529 1.529a.665.665 0 00.726 1.105.667.667 0 00.216-.167l2.194-2.194a1.334 1.334 0 000-1.884z"/></mask><path d="M15.614 11.055L13.42 8.86a.667.667 0 10-.942.942l1.527 1.53a6.22 6.22 0 01-4.458-1.867.655.655 0 00-.938.053l-.009.014a.667.667 0 00.05.921 7.45 7.45 0 005.357 2.212l-1.529 1.529a.665.665 0 00.726 1.105.667.667 0 00.216-.167l2.194-2.194a1.334 1.334 0 000-1.884z" fill="#A6ABBD"/><path d="M13.42 8.86L-2.13 23.465l.23.245.236.237L13.42 8.86zm-.942.943L27.576-5.268l-.248-.25-.257-.24L12.478 9.803zm1.527 1.53l.048 21.333 51.275-.116L29.103-3.74 14.005 11.334zM9.547 9.466L24.783-5.466l-.382-.39-.402-.37L9.547 9.465zm-.938.053L-7.527-4.435l-.955 1.104-.796 1.224L8.609 9.519zm-.009.014l16.178 13.906.93-1.082.779-1.198L8.6 9.533zm.05.921l15.17-15-.29-.293-.302-.283L8.65 10.454zm5.357 2.212l15.085 15.085L65.916-9.073l-52.076.406.167 21.333zm-1.529 1.529L26.39 30.368l.608-.522.566-.566-15.085-15.085zm.942.938L-1.665.048l-.598.598-.55.644L13.42 15.133zm2.194-2.194L30.7 28.024l.006-.007.007-.006-15.098-15.072zm.39-.942h21.333-21.333zM30.699-4.03l-2.194-2.194-30.17 30.17L.53 26.14 30.7-4.03zm-1.728-1.713a22 22 0 00-7.143-5.062L4.579 28.22a20.666 20.666 0 01-6.71-4.756L28.97-5.743zm-7.143-5.062a22 22 0 00-8.552-1.875l-.663 42.661A20.666 20.666 0 014.58 28.22l17.249-39.025zm-8.552-1.875a22 22 0 00-8.606 1.608L20.698 28.47a20.667 20.667 0 01-8.085 1.511l.663-42.661zM4.67-11.072a22 22 0 00-7.298 4.838l30.18 30.16a20.666 20.666 0 01-6.854 4.544L4.67-11.072zm-7.298 4.838a22 22 0 00-4.832 7.3l39.553 16.001a20.667 20.667 0 01-4.54 6.858L-2.627-6.234zm-4.832 7.3a22 22 0 00-1.603 8.608l42.661-.692a20.667 20.667 0 01-1.505 8.085l-39.553-16zm-1.603 8.608a22 22 0 001.881 8.551L31.831.949a20.665 20.665 0 011.767 8.033l-42.661.692zm1.881 8.551a22 22 0 005.067 7.14L27.071-5.758A20.666 20.666 0 0131.83.949L-7.182 18.225zm4.562 6.65l1.527 1.53L29.103-3.74l-1.527-1.53L-2.62 24.876zM13.956-10a15.112 15.112 0 015.872 1.173L3.347 30.527a27.555 27.555 0 0010.706 2.139l-.097-42.667zm5.872 1.173a15.112 15.112 0 014.955 3.362L-5.689 24.398a27.555 27.555 0 009.036 6.13L19.828-8.829zM24-6.227a21.988 21.988 0 00-7.485-4.527l-14.38 40.17a20.679 20.679 0 01-7.038-4.257L23.999-6.227zm-7.485-4.527a21.988 21.988 0 00-8.657-1.251l2.42 42.598a20.68 20.68 0 01-8.142-1.177l14.38-40.17zm-8.657-1.251c-2.94.167-5.818.923-8.46 2.224l18.836 38.283a20.68 20.68 0 01-7.956 2.091l-2.42-42.598zm-8.46 2.224a21.988 21.988 0 00-6.924 5.346l32.272 27.91a20.679 20.679 0 01-6.512 5.027L-.604-9.781zm-8.675 7.674l-.009.013L26.487 21.16l.009-.013L-9.279-2.107zm1.7-2.267a22 22 0 00-5.284 15.533l42.604-2.312a20.666 20.666 0 01-4.964 14.592L-7.577-4.373zm-5.284 15.533a22 22 0 006.935 14.87L23.228-5.12a20.666 20.666 0 016.514 13.968l-42.604 2.312zm6.342 14.295a28.785 28.785 0 009.482 6.366L19.247-7.616a13.882 13.882 0 014.573 3.07l-30.34 30zm9.482 6.366A28.786 28.786 0 0014.173 34L13.84-8.667a13.882 13.882 0 015.407 1.05L2.962 31.82zm-4.04-34.239L-2.607-.89l30.17 30.17 1.529-1.529-30.17-30.17zm-.355.44a22 22 0 00-5.479 7.14l38.448 18.5a20.666 20.666 0 01-5.147 6.707L-1.433-1.979zm-5.479 7.14a22 22 0 00-2.16 8.737l42.638 1.556a20.667 20.667 0 01-2.03 8.207L-6.912 5.16zm-2.16 8.737a22 22 0 001.518 8.871L32.139 7.12a20.665 20.665 0 011.427 8.334l-42.639-1.556zm1.518 8.871a22 22 0 004.944 7.52L27.495.056A20.667 20.667 0 0132.14 7.12L-7.554 22.77zm4.944 7.52a22 22 0 007.541 4.912l15.48-39.76A20.667 20.667 0 0127.495.057L-2.61 30.289zm7.541 4.912a22 22 0 008.877 1.48l-1.736-42.63a20.667 20.667 0 018.339 1.39L4.93 35.202zm8.877 1.48c3.03-.123 6.001-.87 8.728-2.197L3.873-3.885a20.667 20.667 0 018.198-2.064l1.737 42.63zm8.728-2.197a22 22 0 007.117-5.509L-2.813 1.29a20.667 20.667 0 016.686-5.175l18.663 38.369zm5.969-4.266l2.194-2.194L.529-2.146-1.665.048l30.17 30.17zm2.207-2.207a22.667 22.667 0 006.625-16.014H-5.33A20 20 0 01.516-2.133L30.712 28.01zm6.625-16.014a22.667 22.667 0 00-6.625-16.014L.516 26.127a20 20 0 01-5.846-14.13h42.667z" fill="#A6ABBD" mask="url(#aza)"/><mask id="azb" fill="#fff"><path d="M14.005 4.666l-1.527 1.527a.596.596 0 00-.036.055.66.66 0 00.978.888L14.557 6l1.058-1.057a1.334 1.334 0 00.304-1.4 1.312 1.312 0 00-.305-.485L13.42.866a.667.667 0 10-.942.942l1.529 1.528c-3.29.008-5.092 1.783-6.726 3.65C5.779 5.29 4 3.6.99 3.364l-.32-.031A.667.667 0 00.004 4a.68.68 0 00.667.666c.048 0 .19.022.19.022C3.46 4.885 4.95 6.348 6.4 8 4.959 9.644 3.478 11.133.902 11.306l-.267.014a.663.663 0 00.083 1.324c.104-.005.273-.009.357-.016 3.346-.258 5.162-2.4 6.78-4.272 1.635-1.89 3.179-3.678 6.15-3.69z"/></mask><path d="M14.005 4.666l-1.527 1.527a.596.596 0 00-.036.055.66.66 0 00.978.888L14.557 6l1.058-1.057a1.334 1.334 0 00.304-1.4 1.312 1.312 0 00-.305-.485L13.42.866a.667.667 0 10-.942.942l1.529 1.528c-3.29.008-5.092 1.783-6.726 3.65C5.779 5.29 4 3.6.99 3.364l-.32-.031A.667.667 0 00.004 4a.68.68 0 00.667.666c.048 0 .19.022.19.022C3.46 4.885 4.95 6.348 6.4 8 4.959 9.644 3.478 11.133.902 11.306l-.267.014a.663.663 0 00.083 1.324c.104-.005.273-.009.357-.016 3.346-.258 5.162-2.4 6.78-4.272 1.635-1.89 3.179-3.678 6.15-3.69z" fill="#A6ABBD"/><path d="M14.005 4.666L29.09 19.751l36.627-36.627-51.799.21.087 21.332zm-1.527 1.527L-2.607-8.892l-1.118 1.118-.941 1.271L12.478 6.193zm-.036.055l16.495 13.528 1.082-1.319.859-1.475L12.442 6.248zm.978.888l15.053 15.116.012-.011.011-.012L13.42 7.136zM14.557 6l15.076 15.093.004-.004L14.557 6zm1.058-1.057l15.08 15.09.032-.032.031-.032L15.615 4.943zm.304-1.4l-20.102 7.142.041.116.043.116 20.018-7.374zm-.305-.485l15.14-15.03-.032-.032-.032-.033L15.614 3.059zM13.42.866L-2.277 15.313l.304.33.317.317L13.42.866zm-.942.942L27.56-13.28l-.311-.31-.324-.299L12.478 1.808zm1.529 1.528l.052 21.334 51.342-.125-36.313-36.297L14.007 3.336zM7.28 6.986L-8.688 21.132l16.061 18.13L23.33 21.04 7.28 6.986zM.99 3.364L-1.039 24.6l.18.017.182.015L.991 3.364zm-.32-.031L2.7-17.903 1.688-18H.671V3.333zM.004 4H-21.33v.207l.004.207L.004 4zm.667.666l-.415 21.33.207.004h.208V4.666zm.19.022l-3.236 21.087.81.124.816.062L.861 4.688zM6.4 8L22.44 22.063 34.778 7.992 22.433-6.073 6.4 8zM.902 11.306L2.02 32.61l.157-.008.157-.01L.902 11.306zm-.267.014L-.483-9.984l-.106.006-.106.006L.635 11.32zm.083 1.324L-.238-8.668l-.187.008-.187.012 1.33 21.292zm.357-.016l-1.64-21.27-.03.002-.032.003 1.702 21.265zm6.78-4.272L-8.278-5.603l-.007.008 16.14 13.95zM-1.08-10.42l-1.527 1.527 30.17 30.17 1.527-1.527-30.17-30.17zm-3.586 3.916c-.48.647-.923 1.32-1.328 2.016l36.872 21.47a20.725 20.725 0 01-1.256 1.906L-4.666-6.503zm.613-.778a21.995 21.995 0 00-4.93 15.56L33.57 5.152a20.672 20.672 0 01-4.633 14.624L-4.053-7.28zm-4.93 15.56A21.995 21.995 0 00-1.831 22.95L26.849-8.637a20.672 20.672 0 016.72 13.79L-8.981 8.278zm7.151 14.672a21.995 21.995 0 0015.292 5.705L12.477-14a20.672 20.672 0 0114.372 5.363L-1.832 22.95zm15.292 5.705a21.995 21.995 0 0015.013-6.404L-1.634-7.981a20.672 20.672 0 0114.11-6.018l.984 42.655zm15.036-6.427l1.137-1.136L-.519-9.094l-1.137 1.136 30.152 30.187zm1.141-1.14l1.058-1.056-30.16-30.18L-.524-9.09l30.16 30.18zm1.121-1.12a22.667 22.667 0 006.058-11.145L-4.874-.25A20 20 0 01.47-10.083l30.287 30.052zm6.058-11.145a22.667 22.667 0 00-.878-12.655L-4.1 10.917A20 20 0 01-4.875-.249l41.691 9.073zM36.022-3.6a22.645 22.645 0 00-5.268-8.373L.474 18.088a20.02 20.02 0 01-4.657-7.403L36.022-3.599zm-5.332-8.438l-2.194-2.19L-1.656 15.96l2.194 2.192L30.69-12.037zm-1.573-1.544a22.001 22.001 0 00-7.141-5.155L4.43 20.156a20.668 20.668 0 01-6.708-4.842l31.394-28.895zm-7.141-5.155a22 22 0 00-8.59-1.941L12.5 21.98a20.667 20.667 0 01-8.07-1.824l17.545-38.892zm-8.59-1.941a22.001 22.001 0 00-8.665 1.583L20.64 20.492a20.666 20.666 0 01-8.139 1.488l.884-42.657zM4.72-19.095a22.002 22.002 0 00-7.348 4.855l30.17 30.17a20.666 20.666 0 01-6.903 4.561L4.721-19.094zm-7.348 4.855A22 22 0 00-7.482-6.89L32.104 9.028a20.668 20.668 0 01-4.561 6.903l-30.17-30.17zM-7.482-6.89a22 22 0 00-1.584 8.663L33.592.89a20.667 20.667 0 01-1.488 8.138L-7.482-6.89zm-1.584 8.663a22 22 0 001.941 8.591L31.768-7.18A20.667 20.667 0 0133.592.89l-42.658.883zm1.941 8.591a22 22 0 005.156 7.141l28.894-31.393a20.667 20.667 0 014.843 6.708L-7.125 10.364zm4.521 6.532l1.529 1.528 30.163-30.176-1.528-1.528-30.164 30.177zm16.559-34.893C.867-17.965-6.395-9.779-8.77-7.069l32.099 28.11c.647-.74-.175.354-1.858 1.424-.957.609-2.152 1.2-3.556 1.62a13.65 13.65 0 01-3.857.585l-.104-42.667zm9.294 10.836c-2.36-2.665-8.95-9.83-20.59-10.743L-.676 24.632a13.674 13.674 0 01-6.355-2.187c-1.401-.923-2.082-1.794-1.656-1.313L23.25-7.16zM3.022-17.873l-.32-.03-4.062 42.472.32.031 4.062-42.473zM.671-18a22 22 0 00-15.557 6.443l30.17 30.17A20.667 20.667 0 01.671 24.666V-18zm-15.557 6.443A22 22 0 00-21.329 4h42.666a20.667 20.667 0 01-6.053 14.613l-30.17-30.17zm-6.44 15.97a22.013 22.013 0 006.444 15.14l30.17-30.17a20.653 20.653 0 016.045 14.202l-42.658.829zm6.444 15.14A22.013 22.013 0 00.256 25.995l.829-42.659a20.654 20.654 0 0114.203 6.045l-30.17 30.17zM.671 26c-1.164 0-2.082-.104-2.119-.107a18.994 18.994 0 01-.782-.097l-.077-.011-.034-.005-.017-.003-.008-.001h-.004l-.003-.001c-.001 0-.002 0 3.235-21.087l3.235-21.086h-.003L4.09-16.4l-.009-.002-.02-.003-.043-.006a20.857 20.857 0 00-.453-.064 23.8 23.8 0 00-.676-.08c-.077-.007-1.03-.113-2.218-.113V26zm-1.42-.04a14.964 14.964 0 01-7.176-2.514c-1.516-1.03-2.277-2.022-1.708-1.373L22.433-6.073c-1.988-2.265-8.387-9.635-19.96-10.511L-.75 25.96zM-9.64-6.063c-.632.72.131-.28 1.635-1.313A15.178 15.178 0 01-.53-9.98l2.864 42.57c11.828-.795 18.337-8.508 20.107-10.528L-9.64-6.064zm9.424-3.934l-.266.014 2.237 42.608.266-.014L-.217-9.998zm-.478.026a21.996 21.996 0 00-15.122 7.4l31.993 28.23a20.67 20.67 0 01-14.21 6.954L-.695-9.972zm-15.122 7.4a21.996 21.996 0 00-5.46 15.925l42.584-2.66a20.67 20.67 0 01-5.131 14.965l-31.993-28.23zm-5.46 15.925a21.996 21.996 0 007.4 15.122l28.23-31.992a20.67 20.67 0 016.954 14.21l-42.584 2.66zm7.4 15.122a21.997 21.997 0 0015.925 5.46L-.612-8.648a20.67 20.67 0 0114.965 5.131l-28.23 31.992zm15.551 5.48l-.107.005.038-.001.083-.003a30.43 30.43 0 00.61-.03c.11-.006.277-.016.478-.032L-.627-8.637a19.716 19.716 0 01.715-.044l.032-.001H.104a63.22 63.22 0 00-.342.014l1.912 42.623zm1.04-.056c13.134-1.013 20.192-10.333 21.281-11.593L-8.285-5.595c-.496.575-.527.604-.51.587.07-.072.468-.484 1.15-.992a13.463 13.463 0 013.043-1.693 13.787 13.787 0 014.037-.949l3.28 42.54zm21.274-11.585c.486-.562.485-.551.403-.467-.133.138-.681.692-1.59 1.339a15.254 15.254 0 01-3.947 2.006A15.14 15.14 0 0114.09 26l-.173-42.667C.158-16.61-7.222-6.824-8.278-5.603l32.266 27.917z" fill="#A6ABBD" mask="url(#azb)"/></g><defs><clipPath id="azclip0_1268_71818"><path fill="#fff" d="M0 0h16v16H0z"/></clipPath></defs></symbol><symbol fill="none" viewBox="0 0 32 32" id="icon__star-octogram" xmlns="http://www.w3.org/2000/svg"><g clip-path="url(#baclip0_1262_35932)"><path d="M29.027 11.931a1.652 1.652 0 01-.934-2.267A4.319 4.319 0 0022.34 3.91a1.652 1.652 0 01-2.267-.934 4.319 4.319 0 00-8.133 0 1.652 1.652 0 01-2.267.934 4.319 4.319 0 00-5.761 5.756 1.65 1.65 0 01-.933 2.266 4.32 4.32 0 000 8.134 1.65 1.65 0 01.94 2.267 4.317 4.317 0 005.748 5.756 1.65 1.65 0 012.266.933 4.318 4.318 0 008.134 0 1.65 1.65 0 012.266-.933 4.319 4.319 0 005.755-5.754 1.653 1.653 0 01.933-2.267 4.32 4.32 0 000-8.133l.006-.004zm-.894 5.626a4.317 4.317 0 00-2.453 5.922 1.652 1.652 0 01-2.203 2.201 4.317 4.317 0 00-5.921 2.454 1.65 1.65 0 01-3.112 0A4.32 4.32 0 008.52 25.68a1.652 1.652 0 01-2.2-2.202 4.317 4.317 0 00-2.454-5.922 1.652 1.652 0 010-3.112A4.316 4.316 0 006.32 8.523 1.652 1.652 0 018.52 6.32a4.319 4.319 0 005.923-2.453 1.651 1.651 0 013.112 0 4.32 4.32 0 005.923 2.453 1.652 1.652 0 012.2 2.203 4.318 4.318 0 002.454 5.921 1.65 1.65 0 010 3.112z" fill="#A6ABBD"/></g><defs><clipPath id="baclip0_1262_35932"><path fill="#fff" d="M0 0h32v32H0z"/></clipPath></defs></symbol><symbol fill="none" viewBox="0 0 32 33" id="icon__target" xmlns="http://www.w3.org/2000/svg"><g clip-path="url(#bbclip0_1268_71723)"><path d="M16 .5a16 16 0 1016 16 16.018 16.018 0 00-16-16zm1.333 29.265v-2.598a1.333 1.333 0 10-2.666 0v2.598A13.353 13.353 0 012.735 17.833h2.598a1.333 1.333 0 100-2.666H2.735A13.353 13.353 0 0114.667 3.235v2.598a1.334 1.334 0 002.666 0V3.235a13.353 13.353 0 0111.932 11.932h-2.598a1.333 1.333 0 100 2.666h2.598a13.353 13.353 0 01-11.932 11.932zm4-13.265A1.333 1.333 0 0120 17.833h-2.667V20.5a1.333 1.333 0 11-2.666 0v-2.667H12a1.333 1.333 0 110-2.666h2.667V12.5a1.333 1.333 0 012.666 0v2.667H20a1.333 1.333 0 011.333 1.333z" fill="#A6ABBD"/></g><defs><clipPath id="bbclip0_1268_71723"><path fill="#fff" transform="translate(0 .5)" d="M0 0h32v32H0z"/></clipPath></defs></symbol><symbol fill="none" viewBox="0 0 32 33" id="icon__time-fast" xmlns="http://www.w3.org/2000/svg"><g clip-path="url(#bcclip0_1268_71754)" fill="#A6ABBD"><path d="M12 32.5H1.333a1.333 1.333 0 010-2.668H12a1.333 1.333 0 010 2.667zM9.333 27.167h-8a1.334 1.334 0 010-2.667h8a1.333 1.333 0 010 2.667zM6.667 21.834H1.333a1.333 1.333 0 010-2.666h5.334a1.334 1.334 0 010 2.666z"/><path d="M17.334 32.44a1.334 1.334 0 11-.12-2.667A13.333 13.333 0 102.722 15.286a1.334 1.334 0 01-2.656-.24A16 16 0 0132 16.5a15.913 15.913 0 01-14.547 15.935c-.04.004-.08.005-.12.005z"/><path d="M16 8.5a1.333 1.333 0 00-1.333 1.333V16.5c0 .354.14.693.39.943l4 4a1.334 1.334 0 001.886-1.886l-3.61-3.609V9.833A1.333 1.333 0 0016 8.5z"/></g><defs><clipPath id="bcclip0_1268_71754"><path fill="#fff" transform="translate(0 .5)" d="M0 0h32v32H0z"/></clipPath></defs></symbol><symbol fill="none" viewBox="0 0 32 33" id="icon__trophy" xmlns="http://www.w3.org/2000/svg"><g clip-path="url(#bdclip0_1262_35889)"><path d="M20.121 21.833C28.881 21.785 32 17.145 32 13.167a4.666 4.666 0 00-3.685-4.559c.181-.516.338-.99.444-1.348a5.184 5.184 0 00-.835-4.61A5.306 5.306 0 0023.639.5H8.36a5.305 5.305 0 00-4.285 2.15 5.183 5.183 0 00-.835 4.61c.106.359.267.832.444 1.348A4.667 4.667 0 000 13.167c0 3.978 3.119 8.618 11.879 8.666.078.405.118.816.121 1.228v4.106a2.511 2.511 0 01-2.667 2.666H8A1.334 1.334 0 008 32.5h16a1.333 1.333 0 100-2.667h-1.323A2.515 2.515 0 0120 27.167V23.06c.003-.412.044-.822.121-1.227zm7.212-10.666a2 2 0 012 2c0 2.712-2.145 5.6-8.048 5.96.296-.403.637-.77 1.016-1.095a20.175 20.175 0 004.97-6.879c.021.002.04.014.062.014zm-24.666 2a2 2 0 012-2c.022 0 .041-.012.062-.014a20.175 20.175 0 004.97 6.879c.38.324.72.692 1.016 1.095-5.903-.36-8.048-3.248-8.048-5.96zm11.35 16.666a5.44 5.44 0 00.65-2.666V23.06a9.241 9.241 0 00-3.242-7.06A20.451 20.451 0 015.8 6.5a2.533 2.533 0 01.413-2.259 2.659 2.659 0 012.15-1.074h15.277a2.659 2.659 0 012.149 1.08 2.534 2.534 0 01.413 2.258 20.45 20.45 0 01-5.626 9.496 9.237 9.237 0 00-3.242 7.059v4.107a5.44 5.44 0 00.65 2.666h-3.966z" fill="#A6ABBD"/></g><defs><clipPath id="bdclip0_1262_35889"><path fill="#fff" transform="translate(0 .5)" d="M0 0h32v32H0z"/></clipPath></defs></symbol></svg>