<?xml version="1.0" encoding="utf-8"?><svg xmlns="http://www.w3.org/2000/svg" xmlns:xlink="http://www.w3.org/1999/xlink"><symbol viewBox="0 0 20 20" id="dzen" xmlns="http://www.w3.org/2000/svg"><g clip-path="url(#aclip0_3001_2983)"><mask id="aa" style="mask-type:alpha" maskUnits="userSpaceOnUse" x="0" y="0" width="20" height="20"><path d="M0 10C0 4.477 4.477 0 10 0s10 4.477 10 10-4.477 10-10 10S0 15.523 0 10z"/></mask><g mask="url(#aa)"><path clip-rule="evenodd" d="M.004 9.7c4.052-.05 6.329-.327 7.849-1.847C9.373 6.333 9.65 4.056 9.7.004A10 10 0 00.004 9.7zM10.3.004c.05 4.051.327 6.329 1.847 7.849 1.52 1.52 3.797 1.797 7.849 1.847A10 10 0 0010.3.004zM19.996 10.3c-4.051.05-6.329.327-7.849 1.847-1.52 1.52-1.797 3.797-1.847 7.849a10 10 0 009.696-9.696zM9.7 19.996c-.05-4.051-.327-6.329-1.847-7.849-1.52-1.52-3.797-1.797-7.849-1.847A10 10 0 009.7 19.996z"/></g></g><defs><clipPath id="aclip0_3001_2983"><path d="M0 0h20v20H0z"/></clipPath></defs></symbol><symbol viewBox="0 0 20 20" id="icon__angle-left" xmlns="http://www.w3.org/2000/svg"><g clip-path="url(#bclip0_3023_12707)"><path d="M14.308 20a.833.833 0 01-.591-.242L6.907 12.95a4.167 4.167 0 010-5.9L13.716.242A.837.837 0 0114.9 1.425L8.092 8.233a2.5 2.5 0 000 3.534l6.808 6.808A.832.832 0 0114.308 20z"/></g><defs><clipPath id="bclip0_3023_12707"><path d="M0 0h20v20H0z"/></clipPath></defs></symbol><symbol viewBox="0 0 20 21" id="icon__angle-small-down" xmlns="http://www.w3.org/2000/svg"><path d="M15.592 7.342a.834.834 0 00-1.184 0l-3.816 3.816a.834.834 0 01-1.184 0L5.592 7.342a.834.834 0 10-1.184 1.175l3.825 3.825a2.5 2.5 0 003.534 0l3.825-3.825a.833.833 0 000-1.175z"/></symbol><symbol viewBox="0 0 20 20" id="icon__angle-small-left" xmlns="http://www.w3.org/2000/svg"><path d="M8.833 10.592a.834.834 0 010-1.184l3.825-3.816a.833.833 0 10-1.175-1.184L7.658 8.233a2.5 2.5 0 000 3.534l3.825 3.825a.833.833 0 001.175-1.184l-3.825-3.816z"/></symbol><symbol viewBox="0 0 20 21" id="icon__angle-small-right-white" xmlns="http://www.w3.org/2000/svg"><path d="M12.833 8.733L9.008 4.908a.833.833 0 10-1.175 1.184l3.834 3.816a.834.834 0 010 1.184l-3.834 3.816a.834.834 0 001.175 1.184l3.825-3.825a2.5 2.5 0 000-3.534z"/></symbol><symbol viewBox="0 0 20 20" id="icon__caret-up" xmlns="http://www.w3.org/2000/svg"><path d="M5.342 13.334h9.316a.834.834 0 00.584-1.425l-4.65-4.65a.834.834 0 00-1.184 0l-4.65 4.65a.833.833 0 00.584 1.425z"/></symbol><symbol viewBox="0 0 20 20" id="icon__cloud-download" xmlns="http://www.w3.org/2000/svg"><g clip-path="url(#gclip0_3017_7920)"><path d="M15.622 16.945a.833.833 0 01-.068 1.178L14.233 19.3a2.417 2.417 0 01-1.72.7 2.513 2.513 0 01-1.78-.736L9.446 18.12a.834.834 0 011.108-1.245l1.113.995v-6.203a.833.833 0 011.667 0v6.204l1.112-.993a.833.833 0 011.176.067zm-.325-10.81a.907.907 0 01-.602-.613 6.667 6.667 0 00-12.907.701 6.38 6.38 0 00.666 4.317 4.54 4.54 0 00-2.406 4.71 4.869 4.869 0 004.688 3.917h1.93a.834.834 0 000-1.667h-1.93a3.175 3.175 0 01-3.038-2.485 2.89 2.89 0 011.528-3 1.66 1.66 0 00.66-2.237 5 5 0 119.218-3.761 2.583 2.583 0 001.704 1.71 4.976 4.976 0 013.51 5.175 4.48 4.48 0 01-.926 2.424.834.834 0 001.322 1.016 6.222 6.222 0 001.266-3.31 6.634 6.634 0 00-4.683-6.898z"/></g><defs><clipPath id="gclip0_3017_7920"><path d="M0 0h20v20H0z"/></clipPath></defs></symbol><symbol viewBox="0 0 20 20" id="icon__cross-small" xmlns="http://www.w3.org/2000/svg"><path d="M15 5a.833.833 0 00-1.178 0L10 8.822 6.178 5A.833.833 0 005 6.178L8.822 10 5 13.822A.833.833 0 006.178 15L10 11.178 13.822 15A.833.833 0 0015 13.822L11.178 10 15 6.178A.833.833 0 0015 5z"/></symbol><symbol viewBox="0 0 32 32" id="icon__document-signed" xmlns="http://www.w3.org/2000/svg"><g clip-path="url(#iclip0_1262_35921)"><path d="M26.047 4.163l-2.208-2.211A6.624 6.624 0 0019.124 0h-8.457A6.675 6.675 0 004 6.667v18.666A6.675 6.675 0 0010.667 32h10.666A6.674 6.674 0 0028 25.333V8.876a6.625 6.625 0 00-1.953-4.713zM24.16 6.048c.19.188.359.396.506.619h-3.334V3.333c.223.149.43.318.62.507l2.208 2.208zm1.172 19.285a4 4 0 01-4 4H10.667a4 4 0 01-4-4V6.667a4 4 0 014-4h8v4a2.667 2.667 0 002.666 2.666h4v16zm-4-13.333a1.333 1.333 0 110 2.667H10.667a1.333 1.333 0 110-2.667h10.666zm1.334 6.667A1.333 1.333 0 0121.333 20H10.667a1.333 1.333 0 110-2.667h10.666a1.333 1.333 0 011.334 1.334zm-.256 4.55a1.334 1.334 0 01-.29 1.859 8.618 8.618 0 01-4.608 1.59 4.336 4.336 0 01-2.666-.933c-.438-.3-.604-.4-.934-.4a5.267 5.267 0 00-2.442 1.059 1.333 1.333 0 01-1.619-2.117 7.815 7.815 0 014.067-1.608 4.034 4.034 0 012.442.873c.317.285.726.448 1.152.46a6.113 6.113 0 003.036-1.079 1.334 1.334 0 011.862.296z"/></g><defs><clipPath id="iclip0_1262_35921"><path d="M0 0h32v32H0z"/></clipPath></defs></symbol><symbol viewBox="0 0 20 20" id="icon__download" xmlns="http://www.w3.org/2000/svg"><g clip-path="url(#jclip0_3015_1950)"><path d="M8.232 15.102a2.5 2.5 0 003.536 0l2.676-2.676a.833.833 0 00-1.178-1.176l-2.438 2.44.005-12.857A.833.833 0 0010 0a.833.833 0 00-.833.833l-.008 12.84-2.425-2.423a.833.833 0 10-1.178 1.18l2.676 2.672z"/><path d="M19.167 13.333a.833.833 0 00-.834.834V17.5a.834.834 0 01-.833.833h-15a.834.834 0 01-.833-.833v-3.333a.833.833 0 00-.834-.834.833.833 0 00-.833.834V17.5A2.5 2.5 0 002.5 20h15a2.5 2.5 0 002.5-2.5v-3.333a.833.833 0 00-.833-.834z"/></g><defs><clipPath id="jclip0_3015_1950"><path d="M0 0h20v20H0z"/></clipPath></defs></symbol><symbol viewBox="0 0 20 20" id="icon__envelope" xmlns="http://www.w3.org/2000/svg"><g clip-path="url(#kclip0_3015_1916)"><path d="M15.833.833H4.167A4.172 4.172 0 000 5v10a4.172 4.172 0 004.167 4.167h11.666A4.172 4.172 0 0020 15V5A4.172 4.172 0 0015.833.833zM4.167 2.5h11.666a2.5 2.5 0 012.317 1.572l-6.382 6.383a2.506 2.506 0 01-3.536 0L1.85 4.072A2.5 2.5 0 014.167 2.5zm11.666 15H4.167a2.5 2.5 0 01-2.5-2.5V6.25l5.386 5.383a4.172 4.172 0 005.894 0l5.386-5.383V15a2.5 2.5 0 01-2.5 2.5z"/></g><defs><clipPath id="kclip0_3015_1916"><path d="M0 0h20v20H0z"/></clipPath></defs></symbol><symbol viewBox="0 0 21 20" id="icon__file" xmlns="http://www.w3.org/2000/svg"><g clip-path="url(#lclip0_4001_10804)"><path d="M17.125 4.613L14.22 1.708A5.8 5.8 0 0010.096 0H6.334a4.172 4.172 0 00-4.167 4.167v11.666A4.172 4.172 0 006.334 20h8.333a4.171 4.171 0 004.167-4.167V8.738a5.794 5.794 0 00-1.71-4.125zm-1.179 1.179c.255.261.473.556.651.875H13a.833.833 0 01-.833-.834V2.237c.32.177.614.396.876.65l2.903 2.905zm1.221 10.041a2.5 2.5 0 01-2.5 2.5H6.334a2.5 2.5 0 01-2.5-2.5V4.167a2.5 2.5 0 012.5-2.5h3.762c.137 0 .27.026.404.039v4.127a2.5 2.5 0 002.5 2.5h4.128c.012.135.039.267.039.405v7.095z"/></g><defs><clipPath id="lclip0_4001_10804"><path transform="translate(.5)" d="M0 0h20v20H0z"/></clipPath></defs></symbol><symbol viewBox="0 0 20 20" id="icon__filter" xmlns="http://www.w3.org/2000/svg"><g clip-path="url(#mclip0_3027_17539)"><path d="M11.667 20a.833.833 0 01-.5-.167l-3.334-2.5a.832.832 0 01-.333-.666v-4.684L1.653 5.406A3.25 3.25 0 014.083 0h11.834a3.25 3.25 0 012.427 5.407L12.5 11.983v7.184a.833.833 0 01-.833.833zm-2.5-3.75l1.666 1.25v-5.833c0-.204.076-.401.211-.554L17.101 4.3a1.583 1.583 0 00-1.184-2.632H4.083A1.583 1.583 0 002.9 4.298l6.058 6.815c.135.153.21.35.21.554v4.583z"/></g><defs><clipPath id="mclip0_3027_17539"><path d="M0 0h20v20H0z"/></clipPath></defs></symbol><symbol viewBox="0 0 20 20" id="icon__lang" xmlns="http://www.w3.org/2000/svg"><g clip-path="url(#nclip0_3001_293)"><path d="M10 0a10 10 0 1010 10A10.011 10.011 0 0010 0zm7.206 5.833h-2.684a16.396 16.396 0 00-2.351-3.87 8.36 8.36 0 015.035 3.87zM13.75 10a8.506 8.506 0 01-.397 2.5H6.647A8.51 8.51 0 016.25 10a8.51 8.51 0 01.397-2.5h6.706c.257.809.39 1.652.397 2.5zm-6.435 4.167h5.37A16.344 16.344 0 0110 17.99a16.309 16.309 0 01-2.685-3.823zm0-8.334A16.345 16.345 0 0110 2.01a16.308 16.308 0 012.685 3.823h-5.37zm.518-3.87a16.396 16.396 0 00-2.355 3.87H2.794a8.36 8.36 0 015.04-3.87zM2.051 7.5h2.866a10.014 10.014 0 00-.334 2.5c.006.844.118 1.684.334 2.5H2.05a8.327 8.327 0 010-5zm.743 6.667h2.684a16.399 16.399 0 002.355 3.87 8.36 8.36 0 01-5.039-3.87zm9.377 3.87a16.396 16.396 0 002.35-3.87h2.685a8.36 8.36 0 01-5.035 3.87zm5.778-5.537h-2.866a10.01 10.01 0 00.334-2.5 10.01 10.01 0 00-.334-2.5h2.865a8.327 8.327 0 010 5h.001z"/></g><defs><clipPath id="nclip0_3001_293"><path d="M0 0h20v20H0z"/></clipPath></defs></symbol><symbol viewBox="0 0 20 20" id="icon__phone-call" xmlns="http://www.w3.org/2000/svg"><g clip-path="url(#oclip0_3040_3691)"><path d="M10.834.833A.834.834 0 0111.667 0 8.343 8.343 0 0120 8.333a.833.833 0 11-1.666 0 6.674 6.674 0 00-6.667-6.666.833.833 0 01-.833-.834zM11.667 5A3.333 3.333 0 0115 8.333a.833.833 0 101.667 0 5.005 5.005 0 00-5-5 .833.833 0 000 1.667zm7.577 8.949a2.584 2.584 0 010 3.648l-.758.874c-6.825 6.535-23.433-10.07-17-16.916l.958-.833A2.568 2.568 0 016.05.755c.026.026 1.57 2.032 1.57 2.032a2.583 2.583 0 01-.006 3.568L6.65 7.568a10.65 10.65 0 005.776 5.788l1.221-.971a2.583 2.583 0 013.567-.005s2.005 1.543 2.031 1.569zm-1.146 1.212s-1.994-1.534-2.02-1.56a.916.916 0 00-1.291 0c-.023.023-1.704 1.362-1.704 1.362a.833.833 0 01-.815.127 12.508 12.508 0 01-7.351-7.34.833.833 0 01.12-.833S6.378 5.235 6.4 5.213a.917.917 0 000-1.29 420.17 420.17 0 01-1.56-2.021.917.917 0 00-1.258.032l-.958.833c-4.702 5.654 9.69 19.248 14.645 14.566l.759-.875a.935.935 0 00.07-1.297z"/></g><defs><clipPath id="oclip0_3040_3691"><path d="M0 0h20v20H0z"/></clipPath></defs></symbol><symbol viewBox="0 0 20 20" id="icon__print" xmlns="http://www.w3.org/2000/svg"><g clip-path="url(#pclip0_3001_14259)"><path d="M15.833 5V3.333A3.333 3.333 0 0012.5 0h-5a3.333 3.333 0 00-3.333 3.333V5A4.172 4.172 0 000 9.167v4.166A4.172 4.172 0 004.167 17.5a2.5 2.5 0 002.5 2.5h6.666a2.5 2.5 0 002.5-2.5A4.172 4.172 0 0020 13.333V9.167A4.172 4.172 0 0015.833 5zm-10-1.667A1.667 1.667 0 017.5 1.667h5a1.667 1.667 0 011.667 1.666V5H5.833V3.333zM14.167 17.5a.833.833 0 01-.834.833H6.667a.834.834 0 01-.834-.833v-3.333a.833.833 0 01.834-.834h6.666a.833.833 0 01.834.834V17.5zm4.166-4.167a2.5 2.5 0 01-2.5 2.5v-1.666a2.5 2.5 0 00-2.5-2.5H6.667a2.5 2.5 0 00-2.5 2.5v1.666a2.5 2.5 0 01-2.5-2.5V9.167a2.5 2.5 0 012.5-2.5h11.666a2.5 2.5 0 012.5 2.5v4.166z"/><path d="M15 8.334h-1.667a.833.833 0 000 1.666H15a.834.834 0 000-1.666z"/></g><defs><clipPath id="pclip0_3001_14259"><path d="M0 0h20v20H0z"/></clipPath></defs></symbol><symbol viewBox="0 0 20 20" id="icon__redo" xmlns="http://www.w3.org/2000/svg"><g clip-path="url(#qclip0_3039_8237)"><path d="M0 19.166v-5.833a7.508 7.508 0 017.5-7.5h4.025V4.51a1.667 1.667 0 012.845-1.178l4.9 4.899a2.5 2.5 0 010 3.535l-4.9 4.9a1.667 1.667 0 01-2.845-1.18v-1.32H6.667a5.005 5.005 0 00-5 5 .833.833 0 11-1.667 0zm13.192-12.5a.833.833 0 01-.834.833H7.5a5.84 5.84 0 00-5.833 5.834v1.428a6.653 6.653 0 015-2.262h5.691a.833.833 0 01.834.834v2.155l4.899-4.9a.833.833 0 000-1.178l-4.9-4.899v2.155z"/></g><defs><clipPath id="qclip0_3039_8237"><path d="M0 0h20v20H0z"/></clipPath></defs></symbol><symbol viewBox="0 0 20 20" id="icon__refresh" xmlns="http://www.w3.org/2000/svg"><g clip-path="url(#rclip0_1761_4192)"><path d="M10 1.667a8.36 8.36 0 015.935 2.5h-2.602a.833.833 0 000 1.666h3.453a1.548 1.548 0 001.547-1.547V.833a.834.834 0 00-1.666 0v1.732A9.985 9.985 0 00.042 9.083a.84.84 0 001.387.71.818.818 0 00.27-.525A8.345 8.345 0 0110 1.667zM19.126 10a.819.819 0 00-.824.732 8.322 8.322 0 01-14.237 5.102h2.602a.833.833 0 100-1.667H3.214a1.546 1.546 0 00-1.547 1.547v3.453a.833.833 0 001.667 0v-1.732a9.984 9.984 0 0016.625-6.518.84.84 0 00-.834-.917h.001z"/></g><defs><clipPath id="rclip0_1761_4192"><path d="M0 0h20v20H0z"/></clipPath></defs></symbol><symbol viewBox="0 0 192 192" id="rutube" xmlns="http://www.w3.org/2000/svg"><path d="M130.294 45.58H22.001v116.843h30.141V124.41h57.756l26.352 38.013H170l-29.058-38.188c9.025-1.401 15.522-4.73 19.493-9.985 3.97-5.255 5.956-13.664 5.956-24.875v-8.759c0-6.657-.721-11.912-1.985-15.941-1.264-4.029-3.43-7.533-6.498-10.686-3.249-2.978-6.858-5.08-11.19-6.481-4.332-1.226-9.747-1.927-16.424-1.927zm-4.873 53.08H52.142V71.331h73.279c4.15 0 7.038.7 8.482 1.927 1.444 1.226 2.347 3.503 2.347 6.832v9.81c0 3.503-.903 5.78-2.347 7.006s-4.331 1.752-8.482 1.752z"/><path d="M163.929 43.578c5.52 0 9.998-4.477 9.998-10s-4.478-10-9.998-10c-5.524 0-10.002 4.477-10.002 10s4.478 10 10.002 10z"/></symbol><symbol viewBox="0 0 20 20" id="telegram" xmlns="http://www.w3.org/2000/svg"><g clip-path="url(#tclip0_3001_2950)"><path d="M10 0C4.48 0 0 4.48 0 10s4.48 10 10 10 10-4.48 10-10S15.52 0 10 0zm4.64 6.8c-.15 1.58-.8 5.42-1.13 7.19-.14.75-.42 1-.68 1.03-.58.05-1.02-.38-1.58-.75-.88-.58-1.38-.94-2.23-1.5-.99-.65-.35-1.01.22-1.59.15-.15 2.71-2.48 2.76-2.69a.2.2 0 00-.05-.18c-.06-.05-.14-.03-.21-.02-.09.02-1.49.95-4.22 2.79-.4.27-.76.41-1.08.4-.36-.01-1.04-.2-1.55-.37-.63-.2-1.12-.31-1.08-.66.02-.18.27-.36.74-.55 2.92-1.27 4.86-2.11 5.83-2.51 2.78-1.16 3.35-1.36 3.73-1.36.08 0 .27.02.39.12.1.08.13.19.14.27-.01.06.01.24 0 .38z"/></g><defs><clipPath id="tclip0_3001_2950"><path d="M0 0h20v20H0z"/></clipPath></defs></symbol><symbol viewBox="0 0 20 20" id="vk" xmlns="http://www.w3.org/2000/svg"><g clip-path="url(#uclip0_3001_2941)"><path d="M1.4 1.4C0 2.813 0 5.073 0 9.6v.8c0 4.52 0 6.78 1.4 8.2C2.813 20 5.073 20 9.6 20h.8c4.52 0 6.78 0 8.2-1.4 1.4-1.413 1.4-3.673 1.4-8.2v-.8c0-4.52 0-6.78-1.4-8.2C17.187 0 14.927 0 10.4 0h-.8C5.08 0 2.82 0 1.4 1.4zm1.973 4.687h2.294c.073 3.813 1.753 5.426 3.086 5.76v-5.76h2.154v3.286c1.313-.14 2.7-1.64 3.166-3.293h2.147a6.353 6.353 0 01-2.92 4.153 6.577 6.577 0 013.42 4.174h-2.367c-.506-1.58-1.773-2.807-3.446-2.974v2.974h-.267c-4.56 0-7.16-3.12-7.267-8.32z"/></g><defs><clipPath id="uclip0_3001_2941"><path d="M0 0h20v20H0z"/></clipPath></defs></symbol><symbol viewBox="0 0 20 20" id="youtube" xmlns="http://www.w3.org/2000/svg"><path d="M8 13.333l5.19-3-5.19-3v6zm11.56-7.83c.13.47.22 1.1.28 1.9.07.8.1 1.49.1 2.09l.06.84c0 2.19-.16 3.8-.44 4.83-.25.9-.83 1.48-1.73 1.73-.47.13-1.33.22-2.65.28-1.3.07-2.49.1-3.59.1l-1.59.06c-4.19 0-6.8-.16-7.83-.44-.9-.25-1.48-.83-1.73-1.73-.13-.47-.22-1.1-.28-1.9-.07-.8-.1-1.49-.1-2.09l-.06-.84c0-2.19.16-3.8.44-4.83.25-.9.83-1.48 1.73-1.73.47-.13 1.33-.22 2.65-.28 1.3-.07 2.49-.1 3.59-.1l1.59-.06c4.19 0 6.8.16 7.83.44.9.25 1.48.83 1.73 1.73z"/></symbol></svg>