<svg width="694" height="694" viewBox="0 0 694 694" fill="none" xmlns="http://www.w3.org/2000/svg">
<path d="M305.275 61.9732C305.657 101.287 282.198 77.1789 282.518 99.2608C282.664 109.352 295.116 118.354 301.854 131.389C309.858 146.876 312.182 166.74 309.607 182.446C307.931 192.662 304.537 202.946 299.988 212.342C287.632 237.871 267.941 251.861 236.525 249.371C206.673 247.004 176.6 247.254 146.656 245.776C135.863 245.243 104.144 234.611 103.193 241.159C101.786 250.865 107.31 257.688 115.81 260.309C130.727 264.909 146.093 269.411 161.584 270.82C191.402 273.528 221.566 272.902 251.331 275.942C267.084 277.551 283.271 282.042 297.538 288.633C321.066 299.504 327.208 318.542 324.842 348.088C322.565 376.542 308.628 396.047 282.98 409.167C277.249 412.099 271.797 415.597 266.502 419.216C257.524 425.35 258.174 432.512 267.983 436.984C273.694 439.586 279.579 441.839 285.314 444.397C311.885 456.248 329.348 490.052 322.682 516.626C319.347 529.915 302.323 535.709 291.212 527.445C274.222 514.807 255.854 504.965 233.922 502.823C215.994 501.075 200.744 506.402 189.133 519.653C186.846 522.262 184.825 527.41 186.041 529.882C187.46 532.768 192.385 535.196 196.104 535.7C203.242 536.665 210.609 536.364 217.87 536.18C263.947 535.01 293.573 555.158 309.215 596.742C327.632 645.696 287.961 684.156 247.09 692.175C218.808 697.723 194.659 688.044 172.508 672.399C151.707 657.706 134.666 639.519 118.76 618.703C133.99 619.37 148.095 619.269 162.011 620.771C180.825 622.801 199.516 625.948 218.209 628.901C221.8 629.467 225.305 631.083 228.601 632.682C237.831 637.157 237.928 642.499 229.875 648.874C225.232 650.477 219.155 654.42 223.025 658.459C227.133 662.377 230.233 662.733 234.156 663.793C237.425 664.677 241.237 664.357 244.696 663.86C254.762 662.409 264.367 659.517 268.571 649.563C272.818 639.506 267.575 631.224 261.337 623.597C244.715 603.27 221.027 598.047 195.922 596.2C160.477 593.592 124.992 591.456 89.5831 588.481C81.5831 587.808 73.5303 585.204 66.0115 582.292C46.8316 574.858 39.8103 558.153 47.1068 539.784C59.0241 543.013 70.7123 547.283 82.8098 549.229C109.247 553.481 133.652 548.233 154.342 531.174C164.645 522.678 170.262 512.039 167.986 498.548C166.743 491.18 162.212 488.905 155.883 493.218C149.535 497.544 143.501 502.368 137.777 507.434C121.911 521.473 103.454 525.333 82.8396 520.481C60.8811 515.311 41.1292 506.472 29.6795 486.526C17.1713 464.732 25.1428 434.886 48.385 414.842C53.163 410.722 58.5646 407.259 62.4005 404.432C71.5188 411.042 79.3737 417.171 87.7153 422.623C92.9162 426.024 98.5143 425.917 102.063 419.955C105.645 413.937 104.774 408.549 99.0063 403.81C93.682 399.436 87.9023 395.192 83.8725 389.831C73.083 375.48 75.6245 356.328 89.2158 344.349C90.6932 343.047 93.0328 341.939 94.9806 341.926C117.88 341.781 140.793 341.483 163.677 342.078C172.294 342.303 181.221 343.695 189.354 346.367C209.268 352.91 220.439 370.546 217.388 388.661C214.591 405.274 198.27 417.723 177.732 418.811C174.015 419.008 170.204 418.432 166.576 419.014C157.779 419.291 159.467 428.198 161.02 429.998C175.34 446.596 197.884 450.746 217.453 440.749C263.639 417.156 267.185 357.112 224.063 329.239C208.075 318.905 190.259 313.181 171.214 312.262C147.982 311.142 124.64 312.086 101.418 310.877C78.9386 309.705 58.8289 302.015 43.691 285.331C31.9567 272.4 29.464 257.531 35.6883 241.448C47.649 210.545 78.7719 194.552 115.807 201.349C140.818 205.939 165.355 213.056 190.463 216.928C206.213 219.355 222.842 219.561 238.698 217.744C264.249 214.816 279.468 199.384 284.966 175.494C290.51 151.408 284.079 131.038 263.225 115.731C246.034 103.112 225.905 97.5637 204.79 94.8121C181.805 91.8166 159.073 92.8033 136.806 99.4722C124.143 104.047 122.81 111.99 123.554 115.944C124.047 118.572 130.606 121.82 134.529 121.919C153.121 122.388 171.79 120.986 190.334 121.94C210.037 122.956 229.866 125.045 245.364 139.189C256.646 149.486 261.232 162.548 256.847 173.116C252.066 184.639 239.625 192.047 223.696 191.194C212.234 190.581 200.775 188.662 189.491 186.489C165.418 181.854 141.548 176.222 117.414 171.932C107.109 170.102 96.3469 170.609 85.4855 170.038C74.5604 142.87 68.1179 126.529 96.5055 101.279C122.757 77.9271 153.85 61.6262 191.162 62.5086C203.991 62.8136 216.65 68.1813 229.467 70.8868C240.242 73.1612 251.11 75.0575 261.992 76.802C263.976 77.1192 273.138 78.9789 270.667 74.8325C266.755 69.1192 264.246 63.4805 259.99 59.5808C240.665 41.877 216.784 34.464 190.487 33.1871C186.953 33.015 183.406 33.1193 179.865 33.0651C179.531 33.0611 179.2 32.851 177.896 32.4009C187.443 18.0004 199.258 6.41931 216.714 2.35426C239.914 -3.04999 262.052 1.24278 281.888 13.6548C301.887 26.1698 305.027 36.4972 305.275 61.9732ZM42.1837 319.228C36.8228 316.243 33.464 316.609 29.0492 320.122C5.88562 338.55 -0.917476 363.116 0.0964144 390.463C0.455614 400.137 3.51762 409.057 12.2645 414.898C19.7534 408.808 26.3559 402.451 33.9723 397.521C41.7283 392.496 50.4819 388.876 59.1257 384.473C55.5256 365.613 61.2253 348.418 71.8929 332.687C61.6035 328.126 51.4578 324.389 42.1824 319.228M390.631 63.7068C391.258 40.2627 393.687 29.6737 402.736 20.5311C432.526 -9.56708 485.101 -6.04422 509.682 27.627C510.708 29.0299 511.58 30.5385 512.893 32.5704C476.489 33.8757 443.165 40.1556 423.022 72.5703L423.972 76.3276C431.011 76.3276 438.188 77.1721 445.048 76.0918C451.964 75.0006 458.78 72.4876 465.263 69.7482C491.294 58.7472 517.224 59.8505 542.764 70.6021C563.082 79.1551 582.429 89.519 597.583 105.851C611.186 120.512 615.91 137.023 608.438 156.092C606.567 160.865 605.217 165.835 603.612 170.758C562.124 167.81 524.317 184.471 484.572 189.638C475.644 190.798 466.287 191.393 457.449 190.121C437.848 187.298 428.388 167.763 437.845 150.771C447.417 133.57 463.633 125.523 482.613 124.136C506.163 122.416 529.862 122.54 553.5 122.114C559.166 122.011 565.022 122.678 566.578 115.67C568.096 108.832 565.241 103.54 558.348 101.369C515.283 87.7976 473.333 89.763 434.05 112.706C410.008 126.746 401.64 150.09 408.406 176.895C414.881 202.549 432.021 216.369 460.724 219.068C491.165 221.931 520.027 213.951 548.932 206.598C567.917 201.769 586.845 197.603 606.583 201.797C636.558 208.166 659.546 238.543 654.354 265.326C651.352 280.814 640.965 291.133 627.729 298.877C611.672 308.271 594.094 311.651 575.375 311.323C548.628 310.854 521.708 309.022 495.478 316.51C479.032 321.204 464.479 329.24 452.813 341.471C428.247 367.227 434.474 411.341 465.727 435.348C486.105 451.001 509.608 449.803 527.695 431.708C529.909 429.494 530.872 425.17 530.597 421.974C530.491 420.74 525.388 419.425 522.437 419.02C516.327 418.181 509.976 418.613 504.005 417.303C486.418 413.444 475.679 401.66 473.73 385.063C472.086 371.053 481.852 355.538 496.964 348.168C511.61 341.025 527.36 341.856 543.051 341.975C559.265 342.097 575.485 341.777 591.693 342.071C594.76 342.127 598.566 343.367 600.71 345.392C615.467 359.326 614.884 381.759 599.599 396.389C596.623 399.236 593.065 401.5 589.82 404.085C584.224 408.541 583.778 414.143 587.044 419.851C590.392 425.704 595.875 426.127 601.079 422.635C609.239 417.157 616.97 411.071 625.529 404.768C645.869 413.259 664.101 441.353 663.556 465.006C663.024 488.207 647.081 506.612 618.544 516.95C592.371 526.431 568.519 524.409 548.065 503.924C543.904 499.756 538.97 496.214 533.995 492.961C528.44 489.329 524.328 490.704 522.851 497.485C519.486 512.92 526.661 524.364 538.4 533.157C567.367 554.853 598.957 554.594 631.619 542.393C634.49 541.321 637.279 540.043 640.074 538.873C648.294 553.566 642.65 574.163 626.216 580.055C609.54 586.033 591.561 589.656 573.843 591.528C542.167 594.876 510.207 595.574 478.473 598.481C460.973 600.085 445.48 607.437 433.707 620.753C426.025 629.442 419.07 638.768 424.793 651.044C429.131 660.349 444.086 666.061 457.857 663.761C461.709 663.117 465.177 660.272 468.819 658.436C466.574 655.198 464.935 651.239 461.966 648.861C453.928 642.423 453.798 635.701 463.745 632.663C478.933 628.026 494.649 624.35 510.417 622.384C529.999 619.94 549.866 619.654 572.362 618.266C560.873 631.019 551.478 642.51 540.949 652.906C521.762 671.85 500.456 687.64 472.595 692.797C423.801 701.832 374.181 658.472 380.372 611.994C386.462 566.267 424.19 534.786 471.245 536.051C479.08 536.263 487.009 536.65 494.735 535.707C498.491 535.249 503.305 532.65 504.962 529.626C506.192 527.38 504.057 522.087 501.791 519.524C486.729 502.479 466.939 498.198 446.215 505.27C430.504 510.631 415.823 519.429 401.561 528.074C391.141 534.391 374.978 529.891 371.548 518.057C364.303 493.072 379.896 458.777 404.472 446.136C410.908 442.826 417.741 440.26 424.331 437.228C434.09 432.739 434.873 425.138 425.954 419.065C418.935 414.284 411.823 409.496 404.252 405.645C365.866 386.112 364.673 339.886 372.61 312.522C376.7 298.425 388.831 290.921 401.677 285.241C426.751 274.156 453.768 274.725 480.504 273.079C506.979 271.453 533.422 268.862 559.74 265.62C566.566 264.778 573.362 260.606 579.223 256.633C582.53 254.39 585.255 249.588 585.732 245.65C586.15 242.207 584.004 236.835 581.208 235.179C579.042 233.895 574.139 237.085 570.423 238.192C561.716 240.788 553.107 244.993 544.252 245.578C516.436 247.418 488.515 247.653 460.655 248.943C417.777 250.926 393.307 232.15 385.169 188.434C382.574 174.507 382.928 159.807 383.868 145.58C384.697 133.017 391.621 122.815 403.134 116.112C406.57 114.113 410.153 112.089 412.937 109.364C415.438 106.919 421.228 98.6928 410.259 93.8159C410.259 93.8159 390.006 87.151 390.631 63.7068ZM682.293 413.847C706.366 396.233 690.782 330.803 658.58 316.693L622.62 332.697C633.755 348.447 638.463 366.055 635.609 382.626L682.293 413.847Z" fill="#FF5C00"/>
</svg>
