<svg width="150" height="126" viewBox="0 0 150 126" fill="none" xmlns="http://www.w3.org/2000/svg">
<g opacity="0.3" clip-path="url(#clip0_1268_58403)">
<path d="M50 0.996094H25C18.3696 0.996094 12.0107 3.63001 7.32233 8.31842C2.63392 13.0068 0 19.3657 0 25.9961L0 50.9961C0 54.3113 1.31696 57.4907 3.66117 59.8349C6.00537 62.1791 9.18479 63.4961 12.5 63.4961H49.4375C47.9546 72.2245 43.4342 80.1478 36.6752 85.8661C29.9162 91.5844 21.3534 94.7297 12.5 94.7461C10.8424 94.7461 9.25268 95.4046 8.08058 96.5767C6.90848 97.7488 6.25 99.3385 6.25 100.996C6.25 102.654 6.90848 104.243 8.08058 105.416C9.25268 106.588 10.8424 107.246 12.5 107.246C25.7563 107.231 38.4653 101.959 47.8389 92.585C57.2125 83.2114 62.4851 70.5023 62.5 57.2461V13.4961C62.5 10.1809 61.183 7.00146 58.8388 4.65726C56.4946 2.31305 53.3152 0.996094 50 0.996094V0.996094Z" fill="#A6ABBD"/>
<path d="M137.501 0.996094H112.501C105.871 0.996094 99.5117 3.63001 94.8233 8.31842C90.1349 13.0068 87.501 19.3657 87.501 25.9961V50.9961C87.501 54.3113 88.8179 57.4907 91.1621 59.8349C93.5063 62.1791 96.6858 63.4961 100.001 63.4961H136.938C135.456 72.2245 130.935 80.1478 124.176 85.8661C117.417 91.5844 108.854 94.7297 100.001 94.7461C98.3434 94.7461 96.7537 95.4046 95.5816 96.5767C94.4095 97.7488 93.751 99.3385 93.751 100.996C93.751 102.654 94.4095 104.243 95.5816 105.416C96.7537 106.588 98.3434 107.246 100.001 107.246C113.257 107.231 125.966 101.959 135.34 92.585C144.713 83.2114 149.986 70.5023 150.001 57.2461V13.4961C150.001 10.1809 148.684 7.00146 146.34 4.65726C143.996 2.31305 140.816 0.996094 137.501 0.996094V0.996094Z" fill="#A6ABBD"/>
</g>
<defs>
<clipPath id="clip0_1268_58403">
<rect width="150" height="150" fill="white" transform="translate(0 -24)"/>
</clipPath>
</defs>
</svg>
