<svg width="48" height="49" viewBox="0 0 48 49" fill="none" xmlns="http://www.w3.org/2000/svg">
<path d="M0 14.9184V29.3276L9.5908 38.9184L19.1724 48.5H33.5908H48V34.0816V19.6724L38.4092 10.0816L28.8276 0.5H14.4092H0V14.9184ZM37.0759 11.4241L46.1609 20.5V33.5851V46.6609H33.0851H20L10.9241 37.5851L1.83908 28.5V15.4793C1.83908 8.31609 1.86667 2.43103 1.90345 2.40345C1.93103 2.36667 7.81609 2.33908 14.9793 2.33908H28L37.0759 11.4241Z" fill="white"/>
<path d="M5.88477 14.1272C5.88477 21.2904 5.88477 21.2996 6.42729 22.3663C6.78592 23.0835 7.47557 23.6996 8.39511 24.1318C9.44339 24.6375 10.0595 24.7755 11.5215 24.8398L12.7813 24.895V23.2398V21.5847L12.1192 21.5203C11.1905 21.4284 10.556 21.1617 10.1698 20.7203C9.68247 20.1502 9.64569 19.8651 9.67327 17.1433L9.70086 14.7065L11.2457 14.6789L12.7813 14.6605V12.8674V11.0743H11.2181H9.65488V9.3272V7.58008H7.76982H5.88477V14.1272Z" fill="white"/>
<path d="M22.4832 7.63655C22.3821 7.65494 22.0694 7.71931 21.7936 7.77448C20.543 8.02276 19.1453 9.10782 18.5844 10.2572C18.097 11.2779 18.0234 11.7285 18.0234 13.9262V15.9124L18.4648 16.3262C19.2832 17.117 20.9016 18.248 21.2142 18.248C21.3062 18.248 21.3338 17.6136 21.3338 15.094C21.3338 13.3653 21.3798 11.6366 21.4257 11.2595C21.5545 10.3216 21.8303 9.79747 22.3453 9.5308C22.8418 9.28253 23.0993 9.28253 23.6142 9.51241C23.9361 9.65954 24.0464 9.77908 24.2303 10.1837C24.543 10.8641 24.6441 11.6825 24.6441 13.7607V15.5814H26.4832H28.3223V13.8986C28.3223 11.986 28.2395 11.5078 27.697 10.4871C27.0533 9.25494 25.6096 8.07793 24.3683 7.78368C23.8717 7.66414 22.7407 7.57218 22.4832 7.63655Z" fill="white"/>
<path d="M14.6939 8.04073C13.2594 8.47291 12.9652 10.5879 14.2341 11.4798C15.4387 12.3258 17.1951 11.3787 17.1951 9.87981C17.1951 8.61084 15.9169 7.67291 14.6939 8.04073Z" fill="white"/>
<path d="M13.5171 18.7982V24.8672H15.3562H17.1953V18.7982V12.7293H15.3562H13.5171V18.7982Z" fill="white"/>
<path d="M18.0234 18.32C18.0234 19.4051 18.051 19.6993 18.2073 20.1223C18.6487 21.2993 19.3936 21.9246 21.3154 22.7522C22.9706 23.451 24.3131 24.1407 25.2142 24.7384C26.0878 25.3177 27.3108 26.4947 27.8717 27.2947L28.3223 27.9292V26.5131C28.3223 24.3522 28.1292 23.7821 26.9614 22.5499C25.9407 21.4648 24.6901 20.6924 22.3913 19.6993C20.4602 18.8717 19.2004 18.1361 18.4188 17.3913L18.0234 17.0143V18.32Z" fill="white"/>
<path d="M18.0234 22.7712C18.0234 25.2907 18.6211 26.0539 21.6096 27.3505C25.1223 28.8677 26.6211 29.962 28.166 32.1321C28.3223 32.3528 28.3223 32.3068 28.2947 30.7068C28.2763 29.1252 28.2671 29.024 28.028 28.5183C27.7154 27.8654 26.9981 26.9367 26.4096 26.4493C25.4625 25.6585 23.789 24.7206 22.0234 23.9941C20.6165 23.424 19.1637 22.5689 18.3729 21.8516L18.0234 21.539V22.7712Z" fill="white"/>
<path d="M39.5772 24.6004C39.4116 24.6464 39.1266 24.8487 38.9243 25.0418C38.1243 25.851 38.1611 27.1199 39.0162 27.874C39.807 28.5636 40.9289 28.4809 41.6369 27.6809C42.9059 26.228 41.453 24.0579 39.5772 24.6004Z" fill="white"/>
<path d="M29.2041 31.9204C29.2593 38.6975 29.2685 39.0009 29.4432 39.4147C30.3075 41.4745 34.7673 41.9894 36.68 40.2607C36.9006 40.0676 37.1581 39.7457 37.2685 39.5434C37.4708 39.1756 37.4708 39.0837 37.4984 34.6699C37.5259 29.5572 37.5167 29.4561 36.8823 28.886C36.2938 28.3526 35.6409 28.1687 34.188 28.1043L32.919 28.0584V26.4676V24.8676H31.034H29.1489L29.2041 31.9204ZM33.6731 31.5526C33.8294 31.6906 33.8386 31.9112 33.8386 34.7618C33.8386 37.8239 33.8386 37.8239 33.6363 37.9618C33.3696 38.1457 33.3236 38.1457 33.1029 37.925C32.9282 37.7503 32.919 37.6216 32.919 34.7526C32.919 31.8837 32.9282 31.7549 33.1029 31.5802C33.3236 31.3595 33.4524 31.3503 33.6731 31.5526Z" fill="white"/>
<path d="M38.3452 35.351V41.4199H40.2303H42.1153V35.351V29.282H40.2303H38.3452V35.351Z" fill="white"/>
<path d="M24.92 34.1365C24.92 38.3112 24.8924 38.5411 24.4142 39.1663C24.1016 39.5801 23.743 39.764 23.2372 39.764C22.6763 39.764 22.2717 39.4698 21.9591 38.8537L21.7016 38.348V35.3319V32.3158H19.8625H18.0234V34.6882C18.0234 37.3457 18.0786 37.7043 18.6303 38.7618C19.0441 39.5526 19.8533 40.4445 20.405 40.7204C21.5545 41.3089 23.4027 41.5755 24.5798 41.3365C25.9315 41.0514 27.1361 40.0859 27.7246 38.8261C28.1752 37.8422 28.3223 36.9778 28.3223 35.3043V33.8698L27.9269 33.2537C27.2556 32.2146 25.9683 30.8905 25.205 30.4491L24.92 30.2836V34.1365Z" fill="white"/>
</svg>
