<svg width="130" height="29" viewBox="0 0 130 29" fill="none" xmlns="http://www.w3.org/2000/svg">
<path d="M14.9804 -1.90735e-06H22.9804V28H14.9804V17.68H8.18042V28H0.18042V-1.90735e-06H8.18042V9.92H14.9804V-1.90735e-06ZM43.1773 28L42.2173 24.4H34.1373L33.1773 28H24.5773L33.4973 -1.90735e-06H42.8573L51.7773 28H43.1773ZM35.8573 18H40.4973L38.1773 9.4L35.8573 18ZM67.382 -1.90735e-06H75.782L67.702 18.96C66.3687 22.08 64.6087 24.4 62.422 25.92C60.262 27.44 57.4353 28.1333 53.942 28V20.56C56.3686 20.7467 58.2086 20.28 59.462 19.16L50.182 -1.90735e-06H58.582L63.422 10.64L67.382 -1.90735e-06ZM101.638 28H92.7576L85.7976 16V28H77.7976V-1.90735e-06H85.7976V11.2L92.3576 -1.90735e-06H101.238L92.9176 13.6L101.638 28ZM120.638 28L119.678 24.4H111.598L110.638 28H102.038L110.958 -1.90735e-06H120.318L129.238 28H120.638ZM113.318 18H117.958L115.638 9.4L113.318 18Z" fill="#FF5C00"/>
</svg>
