<svg width="21" height="20" viewBox="0 0 21 20" fill="none" xmlns="http://www.w3.org/2000/svg">
<g clip-path="url(#clip0_4001_10804)">
<path d="M17.1245 4.61335L14.2212 1.70835C13.6806 1.16513 13.0377 0.734461 12.3297 0.441235C11.6216 0.148009 10.8625 -0.00195323 10.0962 1.92072e-05H6.33366C5.229 0.00134242 4.16996 0.440754 3.38884 1.22187C2.60773 2.00298 2.16832 3.06202 2.16699 4.16669V15.8334C2.16832 16.938 2.60773 17.9971 3.38884 18.7782C4.16996 19.5593 5.229 19.9987 6.33366 20H14.667C15.7717 19.9987 16.8307 19.5593 17.6118 18.7782C18.3929 17.9971 18.8323 16.938 18.8337 15.8334V8.73752C18.8357 7.9712 18.6857 7.2121 18.3923 6.50416C18.099 5.79623 17.668 5.15355 17.1245 4.61335V4.61335ZM15.9462 5.79169C16.2006 6.05347 16.4195 6.34768 16.597 6.66669H13.0003C12.7793 6.66669 12.5674 6.57889 12.4111 6.42261C12.2548 6.26633 12.167 6.05437 12.167 5.83335V2.23669C12.4861 2.41412 12.7806 2.63265 13.0428 2.88669L15.9462 5.79169ZM17.167 15.8334C17.167 16.4964 16.9036 17.1323 16.4348 17.6011C15.9659 18.07 15.33 18.3334 14.667 18.3334H6.33366C5.67062 18.3334 5.03473 18.07 4.56589 17.6011C4.09705 17.1323 3.83366 16.4964 3.83366 15.8334V4.16669C3.83366 3.50364 4.09705 2.86776 4.56589 2.39892C5.03473 1.93008 5.67062 1.66669 6.33366 1.66669H10.0962C10.2328 1.66669 10.3653 1.69335 10.5003 1.70585V5.83335C10.5003 6.49639 10.7637 7.13228 11.2326 7.60112C11.7014 8.06996 12.3373 8.33335 13.0003 8.33335H17.1278C17.1403 8.46835 17.167 8.60002 17.167 8.73752V15.8334Z" fill="#A6ABBD"/>
</g>
<defs>
<clipPath id="clip0_4001_10804">
<rect width="20" height="20" fill="white" transform="translate(0.5)"/>
</clipPath>
</defs>
</svg>
