<svg width="20" height="20" viewBox="0 0 20 20" fill="none" xmlns="http://www.w3.org/2000/svg">
<g clip-path="url(#clip0_3040_3691)">
<path d="M10.8335 0.833199C10.8335 0.612186 10.9213 0.400224 11.0775 0.243944C11.2338 0.0876633 11.4458 -0.000134037 11.6668 -0.000134037C13.8762 0.00229229 15.9944 0.881045 17.5567 2.44332C19.1189 4.0056 19.9977 6.12381 20.0001 8.3332C20.0001 8.55421 19.9123 8.76618 19.756 8.92246C19.5998 9.07874 19.3878 9.16653 19.1668 9.16653C18.9458 9.16653 18.7338 9.07874 18.5775 8.92246C18.4213 8.76618 18.3335 8.55421 18.3335 8.3332C18.3315 6.5657 17.6285 4.87116 16.3786 3.62135C15.1288 2.37153 13.4343 1.66852 11.6668 1.66653C11.4458 1.66653 11.2338 1.57874 11.0775 1.42246C10.9213 1.26617 10.8335 1.05421 10.8335 0.833199V0.833199ZM11.6668 4.99987C12.5509 4.99987 13.3987 5.35106 14.0238 5.97618C14.6489 6.6013 15.0001 7.44915 15.0001 8.3332C15.0001 8.55421 15.0879 8.76618 15.2442 8.92246C15.4005 9.07874 15.6125 9.16653 15.8335 9.16653C16.0545 9.16653 16.2664 9.07874 16.4227 8.92246C16.579 8.76618 16.6668 8.55421 16.6668 8.3332C16.6655 7.00752 16.1383 5.73652 15.2009 4.79913C14.2635 3.86173 12.9925 3.33452 11.6668 3.3332C11.4458 3.3332 11.2338 3.421 11.0775 3.57728C10.9213 3.73356 10.8335 3.94552 10.8335 4.16653C10.8335 4.38755 10.9213 4.59951 11.0775 4.75579C11.2338 4.91207 11.4458 4.99987 11.6668 4.99987V4.99987ZM19.2443 13.949C19.7272 14.4333 19.9984 15.0893 19.9984 15.7732C19.9984 16.4571 19.7272 17.1131 19.2443 17.5974L18.486 18.4715C11.661 25.0057 -4.94734 8.40153 1.48598 1.55487L2.44431 0.721533C2.92912 0.252097 3.57926 -0.00759314 4.25407 -0.001355C4.92888 0.00488313 5.5741 0.276548 6.05014 0.754866C6.07598 0.780699 7.62014 2.78653 7.62014 2.78653C8.07833 3.26789 8.33339 3.90731 8.33231 4.57187C8.33122 5.23643 8.07407 5.87501 7.61431 6.35487L6.64931 7.5682C7.18335 8.86579 7.96853 10.0451 8.95973 11.0383C9.95093 12.0315 11.1286 12.819 12.4251 13.3557L13.646 12.3849C14.1259 11.9255 14.7644 11.6686 15.4287 11.6677C16.0931 11.6668 16.7323 11.9218 17.2135 12.3799C17.2135 12.3799 19.2185 13.9232 19.2443 13.949ZM18.0976 15.1607C18.0976 15.1607 16.1035 13.6265 16.0776 13.6007C15.906 13.4305 15.674 13.335 15.4322 13.335C15.1905 13.335 14.9585 13.4305 14.7868 13.6007C14.7643 13.624 13.0835 14.9632 13.0835 14.9632C12.9702 15.0534 12.8354 15.1125 12.6923 15.1347C12.5493 15.1569 12.4029 15.1414 12.2676 15.0899C10.588 14.4645 9.06242 13.4855 7.79417 12.2191C6.52592 10.9527 5.54465 9.42856 4.91681 7.74987C4.86114 7.61275 4.84299 7.46327 4.86423 7.31682C4.88547 7.17036 4.94532 7.0322 5.03764 6.91653C5.03764 6.91653 6.37681 5.23487 6.39931 5.2132C6.56953 5.04152 6.66504 4.80955 6.66504 4.56778C6.66504 4.32602 6.56953 4.09404 6.39931 3.92237C6.37348 3.89737 4.83931 1.90153 4.83931 1.90153C4.66506 1.74529 4.43765 1.66161 4.20369 1.66766C3.96972 1.6737 3.74693 1.769 3.58098 1.93403L2.62265 2.76737C-2.07901 8.4207 12.3135 22.0149 17.2676 17.3332L18.0268 16.4582C18.2047 16.2934 18.3115 16.0659 18.3248 15.8238C18.338 15.5817 18.2565 15.3439 18.0976 15.1607V15.1607Z" fill="#A6ABBD"/>
</g>
<defs>
<clipPath id="clip0_3040_3691">
<rect width="20" height="20" fill="white"/>
</clipPath>
</defs>
</svg>
