<svg width="20" height="21" viewBox="0 0 20 21" fill="none" xmlns="http://www.w3.org/2000/svg">
<path d="M12.8334 8.73334L9.00841 4.90834C8.85228 4.75313 8.64107 4.66602 8.42091 4.66602C8.20076 4.66602 7.98955 4.75313 7.83341 4.90834C7.75531 4.98581 7.69331 5.07798 7.651 5.17953C7.6087 5.28108 7.58691 5.39 7.58691 5.50001C7.58691 5.61002 7.6087 5.71894 7.651 5.82049C7.69331 5.92204 7.75531 6.01421 7.83341 6.09168L11.6667 9.90834C11.7449 9.98581 11.8068 10.078 11.8492 10.1795C11.8915 10.2811 11.9132 10.39 11.9132 10.5C11.9132 10.61 11.8915 10.7189 11.8492 10.8205C11.8068 10.922 11.7449 11.0142 11.6667 11.0917L7.83341 14.9083C7.67649 15.0642 7.5879 15.2759 7.58712 15.4971C7.58633 15.7182 7.67343 15.9306 7.82925 16.0875C7.98506 16.2444 8.19683 16.333 8.41797 16.3338C8.6391 16.3346 8.85149 16.2475 9.00841 16.0917L12.8334 12.2667C13.3016 11.7979 13.5645 11.1625 13.5645 10.5C13.5645 9.83751 13.3016 9.20209 12.8334 8.73334V8.73334Z" fill="white"/>
</svg>
