<svg width="20" height="20" viewBox="0 0 20 20" fill="none" xmlns="http://www.w3.org/2000/svg">
<path d="M8 13.3333L13.19 10.3333L8 7.33325V13.3333ZM19.56 5.50325C19.69 5.97325 19.78 6.60325 19.84 7.40325C19.91 8.20325 19.94 8.89325 19.94 9.49325L20 10.3333C20 12.5233 19.84 14.1333 19.56 15.1633C19.31 16.0633 18.73 16.6433 17.83 16.8933C17.36 17.0233 16.5 17.1133 15.18 17.1733C13.88 17.2433 12.69 17.2733 11.59 17.2733L10 17.3333C5.81 17.3333 3.2 17.1733 2.17 16.8933C1.27 16.6433 0.69 16.0633 0.44 15.1633C0.31 14.6933 0.22 14.0633 0.16 13.2633C0.0900001 12.4633 0.0599999 11.7733 0.0599999 11.1733L0 10.3333C0 8.14325 0.16 6.53325 0.44 5.50325C0.69 4.60325 1.27 4.02325 2.17 3.77325C2.64 3.64325 3.5 3.55325 4.82 3.49325C6.12 3.42325 7.31 3.39325 8.41 3.39325L10 3.33325C14.19 3.33325 16.8 3.49325 17.83 3.77325C18.73 4.02325 19.31 4.60325 19.56 5.50325Z" fill="#A6ABBD"/>
</svg>
