<svg width="32" height="33" viewBox="0 0 32 33" fill="none" xmlns="http://www.w3.org/2000/svg">
<path d="M30.8252 1.67618C30.3472 1.19235 29.7524 0.839988 29.0984 0.653137C28.4445 0.466285 27.7533 0.45126 27.0919 0.609515L5.75852 5.10285C4.52995 5.27134 3.37283 5.77948 2.41745 6.57007C1.46208 7.36065 0.746402 8.40226 0.351017 9.5776C-0.0443667 10.7529 -0.103753 12.0153 0.179547 13.2226C0.462847 14.4299 1.07758 15.5341 1.95452 16.4108L4.24518 18.7002C4.36916 18.8241 4.46748 18.9713 4.53452 19.1333C4.60155 19.2953 4.63599 19.4689 4.63585 19.6442V23.8682C4.63879 24.4621 4.77551 25.0477 5.03585 25.5815L5.02518 25.5908L5.05985 25.6255C5.45054 26.411 6.08863 27.0463 6.87585 27.4335L6.91052 27.4682L6.91985 27.4575C7.45367 27.7179 8.03928 27.8546 8.63318 27.8575H12.8572C13.2106 27.8572 13.5496 27.9973 13.7999 28.2468L16.0892 30.5362C16.7032 31.157 17.434 31.6502 18.2396 31.9873C19.0451 32.3243 19.9093 32.4987 20.7825 32.5002C21.5102 32.4993 22.2329 32.3804 22.9225 32.1482C24.0871 31.7658 25.1217 31.0655 25.9095 30.1265C26.6973 29.1874 27.207 28.0469 27.3812 26.8335L31.8812 5.45351C32.0477 4.78637 32.0378 4.08741 31.8527 3.4252C31.6676 2.76299 31.3135 2.16027 30.8252 1.67618V1.67618ZM6.13318 16.8175L3.84118 14.5282C3.30748 14.0073 2.93341 13.345 2.7629 12.6191C2.59238 11.8931 2.63249 11.1335 2.87852 10.4295C3.11704 9.70728 3.55799 9.06875 4.14891 8.58987C4.73984 8.11098 5.45587 7.8119 6.21185 7.72818L27.3332 3.28151L7.29985 23.3175V19.6442C7.30187 19.1193 7.1998 18.5992 6.99955 18.114C6.79929 17.6288 6.50483 17.1882 6.13318 16.8175V16.8175ZM24.7612 26.3775C24.6588 27.114 24.3532 27.8073 23.8787 28.3797C23.4041 28.9521 22.7794 29.3809 22.0747 29.618C21.37 29.8551 20.6131 29.891 19.8891 29.7218C19.1651 29.5526 18.5025 29.185 17.9759 28.6602L15.6825 26.3668C15.3123 25.9946 14.872 25.6995 14.3871 25.4986C13.9021 25.2976 13.3821 25.1949 12.8572 25.1962H9.18385L29.2199 5.16685L24.7612 26.3775Z" fill="#A6ABBD"/>
</svg>
