<svg width="24" height="25" viewBox="0 0 24 25" fill="none" xmlns="http://www.w3.org/2000/svg">
<g clip-path="url(#clip0_1268_71695)">
<path d="M23.4214 17.0822L20.1304 13.7912C20.0386 13.6935 19.9282 13.6152 19.8057 13.5611C19.6831 13.5069 19.5509 13.4779 19.4169 13.4758C19.2829 13.4737 19.1499 13.4986 19.0257 13.549C18.9016 13.5993 18.7888 13.6741 18.694 13.7689C18.5993 13.8636 18.5246 13.9765 18.4744 14.1007C18.4241 14.2249 18.3994 14.358 18.4015 14.4919C18.4037 14.6259 18.4328 14.7581 18.487 14.8806C18.5413 15.0031 18.6196 15.1135 18.7174 15.2052L21.0074 17.4992C19.7625 17.502 18.5296 17.2557 17.3814 16.7748C16.2332 16.294 15.1927 15.5882 14.3214 14.6992C14.2246 14.6101 14.1109 14.5413 13.9871 14.497C13.8633 14.4526 13.7318 14.4336 13.6004 14.4411C13.4691 14.4486 13.3406 14.4823 13.2226 14.5404C13.1046 14.5985 12.9994 14.6797 12.9134 14.7792L12.9004 14.7992C12.7322 14.9947 12.6462 15.2477 12.6602 15.5052C12.6741 15.7628 12.7871 16.0049 12.9754 16.1812C14.0252 17.2429 15.277 18.0835 16.6571 18.6533C18.0371 19.2232 19.5173 19.5108 21.0104 19.4992L18.7174 21.7922C18.6129 21.882 18.5281 21.9925 18.4683 22.1167C18.4086 22.2409 18.3751 22.3761 18.3701 22.5138C18.3651 22.6516 18.3886 22.7888 18.4391 22.9171C18.4897 23.0453 18.5662 23.1617 18.6639 23.2589C18.7615 23.3562 18.8782 23.4322 19.0067 23.4822C19.1351 23.5322 19.2725 23.5551 19.4102 23.5495C19.5479 23.5439 19.6829 23.5098 19.8069 23.4496C19.9308 23.3893 20.0409 23.304 20.1304 23.1992L23.4214 19.9082C23.7957 19.5332 24.0059 19.025 24.0059 18.4952C24.0059 17.9653 23.7957 17.4571 23.4214 17.0822Z" fill="#A6ABBD"/>
<path d="M21.0068 7.49959L18.7168 9.78959C18.6973 9.81592 18.6793 9.84329 18.6628 9.87159C18.5015 10.0683 18.4219 10.3196 18.4405 10.5734C18.4592 10.8271 18.5746 11.0641 18.763 11.2351C18.9514 11.4062 19.1983 11.4983 19.4527 11.4924C19.7071 11.4866 19.9495 11.3832 20.1298 11.2036L21.8358 9.49959L23.4218 7.91459C23.69 7.64435 23.8754 7.30319 23.9564 6.93119C24.0373 6.5592 24.0104 6.17183 23.8788 5.81459C23.7817 5.54114 23.6253 5.29254 23.4208 5.08659L20.1298 1.79959C20.0385 1.7004 19.9281 1.6207 19.8053 1.56526C19.6824 1.50983 19.5495 1.47981 19.4148 1.47702C19.28 1.47423 19.146 1.49872 19.021 1.54901C18.8959 1.59931 18.7823 1.67438 18.6869 1.7697C18.5916 1.86502 18.5166 1.97864 18.4663 2.10371C18.416 2.22879 18.3915 2.36274 18.3943 2.49752C18.3971 2.6323 18.4271 2.76512 18.4825 2.88801C18.5379 3.01089 18.6176 3.1213 18.7168 3.21259L21.0098 5.50459C16.0768 5.51659 13.3728 8.17859 10.9208 10.9786C8.66885 8.43659 5.99985 5.89959 1.48686 5.54559L1.00586 5.49959C0.740642 5.49959 0.486288 5.60495 0.298752 5.79249C0.111216 5.98002 0.00585938 6.23438 0.00585938 6.49959C0.0109795 6.76321 0.11798 7.0146 0.304418 7.20104C0.490856 7.38747 0.742245 7.49447 1.00586 7.49959C1.07786 7.49959 1.29286 7.53259 1.29286 7.53259C5.18885 7.82759 7.42485 10.0216 9.59985 12.4996C7.43785 14.9656 5.21685 17.1996 1.35286 17.4596L0.952858 17.4806C0.689631 17.497 0.443717 17.6174 0.269215 17.8151C0.0947126 18.0129 0.00591595 18.2719 0.0223594 18.5351C0.0388028 18.7983 0.159139 19.0442 0.356896 19.2187C0.554653 19.3932 0.813631 19.482 1.07686 19.4656C1.23286 19.4586 1.48686 19.4526 1.61186 19.4426C6.63185 19.0556 9.35485 15.8426 11.7828 13.0336C14.2348 10.1996 16.5508 7.51759 21.0068 7.49959Z" fill="#A6ABBD"/>
</g>
<defs>
<clipPath id="clip0_1268_71695">
<rect width="24" height="24" fill="white" transform="translate(0 0.5)"/>
</clipPath>
</defs>
</svg>
