<svg width="25" height="25" viewBox="0 0 25 25" fill="none" xmlns="http://www.w3.org/2000/svg">
<g clip-path="url(#clip0_1268_71704)">
<path d="M12.5 0.5C10.1266 0.5 7.80655 1.20379 5.83316 2.52236C3.85977 3.84094 2.3217 5.71509 1.41345 7.9078C0.505199 10.1005 0.267559 12.5133 0.730582 14.8411C1.1936 17.1689 2.33649 19.3071 4.01472 20.9853C5.69295 22.6635 7.83115 23.8064 10.1589 24.2694C12.4867 24.7324 14.8995 24.4948 17.0922 23.5866C19.2849 22.6783 21.1591 21.1402 22.4776 19.1668C23.7962 17.1935 24.5 14.8734 24.5 12.5C24.4966 9.31846 23.2312 6.26821 20.9815 4.01852C18.7318 1.76883 15.6815 0.503441 12.5 0.5V0.5ZM12.5 22.5C10.5222 22.5 8.58879 21.9135 6.9443 20.8147C5.29981 19.7159 4.01809 18.1541 3.26121 16.3268C2.50433 14.4996 2.3063 12.4889 2.69215 10.5491C3.078 8.60929 4.03041 6.82746 5.42894 5.42893C6.82746 4.03041 8.60929 3.078 10.5491 2.69215C12.4889 2.3063 14.4996 2.50433 16.3268 3.2612C18.1541 4.01808 19.7159 5.29981 20.8147 6.9443C21.9135 8.58879 22.5 10.5222 22.5 12.5C22.4971 15.1513 21.4426 17.6931 19.5679 19.5679C17.6931 21.4426 15.1513 22.4971 12.5 22.5Z" fill="#A6ABBD"/>
<path d="M12.5 10.5002H11.5C11.2348 10.5002 10.9804 10.6056 10.7929 10.7931C10.6054 10.9807 10.5 11.235 10.5 11.5002C10.5 11.7655 10.6054 12.0198 10.7929 12.2074C10.9804 12.3949 11.2348 12.5002 11.5 12.5002H12.5V18.5002C12.5 18.7655 12.6054 19.0198 12.7929 19.2074C12.9804 19.3949 13.2348 19.5002 13.5 19.5002C13.7652 19.5002 14.0196 19.3949 14.2071 19.2074C14.3946 19.0198 14.5 18.7655 14.5 18.5002V12.5002C14.5 11.9698 14.2893 11.4611 13.9142 11.086C13.5391 10.711 13.0304 10.5002 12.5 10.5002Z" fill="#A6ABBD"/>
<path d="M12.5 8.49963C13.3284 8.49963 14 7.82806 14 6.99963C14 6.17121 13.3284 5.49963 12.5 5.49963C11.6716 5.49963 11 6.17121 11 6.99963C11 7.82806 11.6716 8.49963 12.5 8.49963Z" fill="#A6ABBD"/>
</g>
<defs>
<clipPath id="clip0_1268_71704">
<rect width="24" height="24" fill="white" transform="translate(0.5 0.5)"/>
</clipPath>
</defs>
</svg>
