<svg width="32" height="32" viewBox="0 0 32 32" fill="none" xmlns="http://www.w3.org/2000/svg">
<g clip-path="url(#clip0_1262_35940)">
<path d="M30.0838 1.9164C26.9185 -1.24893 22.1918 -0.476927 15.9998 4.18307C9.80915 -0.476927 5.08382 -1.25026 1.91582 1.9164C-1.25218 5.08307 -0.477513 9.80839 4.18249 16.0004C-0.477513 22.191 -1.25085 26.9177 1.91582 30.0844C2.50955 30.7 3.22301 31.1876 4.01228 31.5171C4.80156 31.8466 5.64993 32.0111 6.50515 32.0004C9.13315 32.0004 12.3065 30.5977 15.9998 27.819C19.6918 30.5977 22.8652 32.0004 25.4945 32.0004C26.3497 32.0111 27.1981 31.8466 27.9874 31.5171C28.7766 31.1876 29.4901 30.7 30.0838 30.0844C33.2505 26.9177 32.4838 22.1924 27.8172 16.0004C32.4772 9.80839 33.2505 5.08307 30.0838 1.9164ZM25.4465 2.7044C25.956 2.68906 26.4633 2.77801 26.9373 2.96579C27.4112 3.15357 27.8417 3.43623 28.2025 3.7964C30.5305 6.12573 28.8105 10.0804 26.0852 13.8484C24.9678 12.5311 23.7092 11.1617 22.2745 9.72573C20.8398 8.28973 19.4665 7.03106 18.1492 5.9124C20.6798 4.08173 23.2958 2.7044 25.4465 2.7044ZM24.4145 16.0004C23.0665 17.6271 21.6385 19.1484 20.3932 20.4004C19.1478 21.6524 17.6265 23.067 15.9998 24.415C14.3732 23.067 12.8518 21.639 11.6065 20.4004C10.3612 19.1617 8.93315 17.6271 7.58515 16.0004C8.93315 14.3737 10.3612 12.8511 11.6065 11.6071C12.8518 10.3631 14.3732 8.93373 15.9998 7.5844C17.6265 8.93106 19.1478 10.3617 20.3998 11.6071C21.6518 12.8524 23.0665 14.3737 24.4145 16.0004ZM3.79715 3.79773C4.15751 3.43693 4.58796 3.15378 5.06196 2.96574C5.53596 2.7777 6.04346 2.68876 6.55315 2.7044C8.70382 2.7044 11.3198 4.08173 13.8505 5.9124C12.5332 7.03106 11.1625 8.28973 9.72515 9.72573C8.28782 11.1617 7.03182 12.5257 5.91315 13.8484C3.18915 10.0804 1.46649 6.12573 3.79715 3.79773ZM3.79715 28.1977C1.46915 25.8697 3.18915 21.9137 5.91315 18.1471C7.03182 19.4644 8.29049 20.8337 9.72515 22.2697C11.1598 23.7057 12.5252 24.967 13.8438 26.0844C10.0772 28.8124 6.12249 30.5337 3.79715 28.203V28.1977ZM28.1972 28.1977C25.8705 30.523 21.9172 28.807 18.1505 26.0844C19.4652 24.967 20.8358 23.7017 22.2692 22.2697C23.7025 20.8377 24.9625 19.4697 26.0798 18.1471C28.8105 21.9204 30.5332 25.875 28.2025 28.203L28.1972 28.1977Z" fill="#A6ABBD"/>
<path d="M15.9997 18.6671C17.4724 18.6671 18.6663 17.4732 18.6663 16.0004C18.6663 14.5276 17.4724 13.3337 15.9997 13.3337C14.5269 13.3337 13.333 14.5276 13.333 16.0004C13.333 17.4732 14.5269 18.6671 15.9997 18.6671Z" fill="#A6ABBD"/>
</g>
<defs>
<clipPath id="clip0_1262_35940">
<rect width="32" height="32" fill="white"/>
</clipPath>
</defs>
</svg>
