<svg width="24" height="25" viewBox="0 0 24 25" fill="none" xmlns="http://www.w3.org/2000/svg">
<g clip-path="url(#clip0_1268_71692)">
<path d="M12 6.5C11.2089 6.5 10.4355 6.7346 9.77772 7.17412C9.11993 7.61365 8.60723 8.23836 8.30448 8.96927C8.00173 9.70017 7.92252 10.5044 8.07686 11.2804C8.2312 12.0563 8.61216 12.769 9.17157 13.3284C9.73098 13.8878 10.4437 14.2688 11.2196 14.4231C11.9956 14.5775 12.7998 14.4983 13.5307 14.1955C14.2616 13.8928 14.8864 13.3801 15.3259 12.7223C15.7654 12.0645 16 11.2911 16 10.5C16 9.43913 15.5786 8.42172 14.8284 7.67157C14.0783 6.92143 13.0609 6.5 12 6.5ZM12 12.5C11.6044 12.5 11.2178 12.3827 10.8889 12.1629C10.56 11.9432 10.3036 11.6308 10.1522 11.2654C10.0009 10.8999 9.96126 10.4978 10.0384 10.1098C10.1156 9.72186 10.3061 9.36549 10.5858 9.08579C10.8655 8.80608 11.2219 8.6156 11.6098 8.53843C11.9978 8.46126 12.3999 8.50087 12.7654 8.65224C13.1308 8.80362 13.4432 9.05996 13.6629 9.38886C13.8827 9.71776 14 10.1044 14 10.5C14 11.0304 13.7893 11.5391 13.4142 11.9142C13.0391 12.2893 12.5304 12.5 12 12.5Z" fill="#A6ABBD"/>
<path d="M11.9998 24.5003C11.1578 24.5046 10.3269 24.3071 9.57689 23.9243C8.82684 23.5416 8.17942 22.9847 7.68882 22.3003C3.87782 17.0433 1.94482 13.0913 1.94482 10.5533C1.94482 7.88654 3.00419 5.32901 4.88987 3.44333C6.77554 1.55765 9.33307 0.498291 11.9998 0.498291C14.6666 0.498291 17.2241 1.55765 19.1098 3.44333C20.9955 5.32901 22.0548 7.88654 22.0548 10.5533C22.0548 13.0913 20.1218 17.0433 16.3108 22.3003C15.8202 22.9847 15.1728 23.5416 14.4228 23.9243C13.6727 24.3071 12.8419 24.5046 11.9998 24.5003ZM11.9998 2.68129C9.91224 2.68367 7.91084 3.51402 6.4347 4.99016C4.95855 6.46631 4.12821 8.46771 4.12582 10.5553C4.12582 12.5653 6.01882 16.2823 9.45482 21.0213C9.74652 21.4231 10.1292 21.7501 10.5715 21.9756C11.0139 22.201 11.5033 22.3186 11.9998 22.3186C12.4963 22.3186 12.9858 22.201 13.4281 21.9756C13.8705 21.7501 14.2531 21.4231 14.5448 21.0213C17.9808 16.2823 19.8738 12.5653 19.8738 10.5553C19.8714 8.46771 19.0411 6.46631 17.565 4.99016C16.0888 3.51402 14.0874 2.68367 11.9998 2.68129Z" fill="#A6ABBD"/>
</g>
<defs>
<clipPath id="clip0_1268_71692">
<rect width="24" height="24" fill="white" transform="translate(0 0.5)"/>
</clipPath>
</defs>
</svg>
