<svg width="24" height="25" viewBox="0 0 24 25" fill="none" xmlns="http://www.w3.org/2000/svg">
<path d="M20.0002 12.5001C19.3867 12.5 18.7814 12.6412 18.2313 12.9128C17.6812 13.1844 17.2011 13.579 16.8282 14.0661L16.7582 14.0361C17.0332 13.1841 17.0744 12.2739 16.8775 11.4006C16.6806 10.5272 16.2529 9.72274 15.6389 9.07116C15.0249 8.41959 14.2473 7.94481 13.3871 7.69643C12.527 7.44804 11.616 7.43515 10.7492 7.65911L10.6582 7.48711C11.3845 6.84083 11.8503 5.95184 11.9682 4.98675C12.086 4.02166 11.8479 3.0467 11.2984 2.24461C10.7489 1.44252 9.92579 0.868336 8.98328 0.629678C8.04076 0.391021 7.04356 0.504266 6.17856 0.948193C5.31356 1.39212 4.64013 2.13625 4.28449 3.04114C3.92885 3.94602 3.91541 4.94954 4.24668 5.86363C4.57795 6.77772 5.2312 7.53963 6.08399 8.00657C6.93679 8.47351 7.9306 8.61343 8.87917 8.40011L8.95217 8.53711C7.95223 9.30443 7.27956 10.4216 7.06922 11.6644C6.85888 12.9071 7.12643 14.1835 7.81817 15.2371L5.93317 17.0001C5.08114 16.5294 4.08668 16.3855 3.13616 16.5954C2.18564 16.8053 1.34429 17.3547 0.769768 18.1405C0.195248 18.9263 -0.0730081 19.8946 0.0152689 20.864C0.103546 21.8334 0.542297 22.7374 1.2493 23.4065C1.95631 24.0756 2.88305 24.4639 3.85585 24.4987C4.82866 24.5335 5.78077 24.2124 6.53376 23.5954C7.28675 22.9785 7.78894 22.1082 7.94623 21.1476C8.10351 20.187 7.9051 19.2019 7.38817 18.3771L9.22617 16.6591C10.2357 17.3338 11.4564 17.6176 12.66 17.4573C13.8636 17.297 14.9675 16.7036 15.7652 15.7881L16.0442 15.9071C15.9231 16.7146 16.0521 17.5397 16.4137 18.2718C16.7753 19.0038 17.3523 19.6076 18.0672 20.0021C18.782 20.3967 19.6004 20.563 20.4126 20.4788C21.2247 20.3946 21.9916 20.0638 22.6103 19.531C23.2289 18.9982 23.6697 18.2888 23.8735 17.4982C24.0772 16.7075 24.0341 15.8735 23.7499 15.108C23.4658 14.3426 22.9542 13.6824 22.2839 13.2162C21.6136 12.75 20.8167 12.5001 20.0002 12.5001ZM6.00017 4.50011C6.00017 4.10454 6.11747 3.71786 6.33723 3.38897C6.55699 3.06007 6.86935 2.80372 7.2348 2.65235C7.60026 2.50097 8.00239 2.46137 8.39035 2.53854C8.77831 2.61571 9.13468 2.80619 9.41438 3.08589C9.69409 3.3656 9.88457 3.72196 9.96174 4.10993C10.0389 4.49789 9.99931 4.90002 9.84793 5.26547C9.69656 5.63093 9.44021 5.94328 9.11131 6.16305C8.78241 6.38281 8.39573 6.50011 8.00017 6.50011C7.46974 6.50011 6.96103 6.28939 6.58596 5.91432C6.21088 5.53925 6.00017 5.03054 6.00017 4.50011ZM4.00017 22.5001C3.60461 22.5001 3.21793 22.3828 2.88903 22.163C2.56013 21.9433 2.30379 21.6309 2.15241 21.2655C2.00104 20.9 1.96143 20.4979 2.0386 20.1099C2.11577 19.722 2.30625 19.3656 2.58596 19.0859C2.86566 18.8062 3.22203 18.6157 3.60999 18.5385C3.99795 18.4614 4.40009 18.501 4.76554 18.6523C5.13099 18.8037 5.44335 19.0601 5.66311 19.389C5.88287 19.7179 6.00017 20.1045 6.00017 20.5001C6.00017 21.0305 5.78946 21.5392 5.41438 21.9143C5.03931 22.2894 4.5306 22.5001 4.00017 22.5001ZM12.0002 15.5001C11.3509 15.4988 10.7195 15.2869 10.2009 14.8962C9.68227 14.5055 9.30442 13.9571 9.12408 13.3334C8.94373 12.7096 8.97063 12.0441 9.20073 11.437C9.43084 10.8298 9.85172 10.3137 10.4002 9.96611L10.8072 9.74911C11.2161 9.57121 11.6596 9.48674 12.1053 9.50183C12.551 9.51691 12.9878 9.63119 13.3838 9.83633C13.7798 10.0415 14.125 10.3323 14.3945 10.6877C14.6639 11.0431 14.8507 11.4541 14.9413 11.8908C15.0319 12.3274 15.024 12.7788 14.9181 13.212C14.8123 13.6453 14.6112 14.0495 14.3295 14.3952C14.0478 14.7409 13.6925 15.0195 13.2896 15.2106C12.8866 15.4018 12.4461 15.5007 12.0002 15.5001ZM20.0002 18.5001C19.6046 18.5001 19.2179 18.3828 18.889 18.163C18.5601 17.9433 18.3038 17.6309 18.1524 17.2655C18.001 16.9 17.9614 16.4979 18.0386 16.1099C18.1158 15.722 18.3063 15.3656 18.586 15.0859C18.8657 14.8062 19.222 14.6157 19.61 14.5385C19.998 14.4614 20.4001 14.501 20.7655 14.6523C21.131 14.8037 21.4433 15.0601 21.6631 15.389C21.8829 15.7179 22.0002 16.1045 22.0002 16.5001C22.0002 17.0305 21.7895 17.5392 21.4144 17.9143C21.0393 18.2894 20.5306 18.5001 20.0002 18.5001Z" fill="#A6ABBD"/>
</svg>
