<svg width="20" height="21" viewBox="0 0 20 21" fill="none" xmlns="http://www.w3.org/2000/svg">
<path d="M15.5917 7.34171C15.5142 7.26361 15.422 7.20161 15.3205 7.1593C15.2189 7.117 15.11 7.09521 15 7.09521C14.89 7.09521 14.7811 7.117 14.6795 7.1593C14.578 7.20161 14.4858 7.26361 14.4083 7.34171L10.5917 11.1584C10.5142 11.2365 10.422 11.2985 10.3205 11.3408C10.2189 11.3831 10.11 11.4049 10 11.4049C9.89 11.4049 9.78108 11.3831 9.67953 11.3408C9.57798 11.2985 9.48581 11.2365 9.40834 11.1584L5.59168 7.34171C5.51421 7.26361 5.42204 7.20161 5.32049 7.1593C5.21894 7.117 5.11002 7.09521 5.00001 7.09521C4.89 7.09521 4.78108 7.117 4.67953 7.1593C4.57798 7.20161 4.48581 7.26361 4.40834 7.34171C4.25313 7.49785 4.16602 7.70906 4.16602 7.92921C4.16602 8.14937 4.25313 8.36058 4.40834 8.51671L8.23334 12.3417C8.70209 12.8099 9.33751 13.0728 10 13.0728C10.6625 13.0728 11.2979 12.8099 11.7667 12.3417L15.5917 8.51671C15.7469 8.36058 15.834 8.14937 15.834 7.92921C15.834 7.70906 15.7469 7.49785 15.5917 7.34171Z" fill="#A6ABBD"/>
</svg>
