<svg width="20" height="20" viewBox="0 0 20 20" fill="none" xmlns="http://www.w3.org/2000/svg">
<path d="M15.0001 5.00009C14.8438 4.84387 14.6319 4.7561 14.4109 4.7561C14.19 4.7561 13.978 4.84387 13.8218 5.00009L10.0001 8.82176L6.17843 5.00009C6.02215 4.84387 5.81023 4.7561 5.58926 4.7561C5.36829 4.7561 5.15637 4.84387 5.00009 5.00009C4.84387 5.15637 4.7561 5.36829 4.7561 5.58926C4.7561 5.81023 4.84387 6.02215 5.00009 6.17843L8.82176 10.0001L5.00009 13.8218C4.84387 13.978 4.7561 14.19 4.7561 14.4109C4.7561 14.6319 4.84387 14.8438 5.00009 15.0001C5.15637 15.1563 5.36829 15.2441 5.58926 15.2441C5.81023 15.2441 6.02215 15.1563 6.17843 15.0001L10.0001 11.1784L13.8218 15.0001C13.978 15.1563 14.19 15.2441 14.4109 15.2441C14.6319 15.2441 14.8438 15.1563 15.0001 15.0001C15.1563 14.8438 15.2441 14.6319 15.2441 14.4109C15.2441 14.19 15.1563 13.978 15.0001 13.8218L11.1784 10.0001L15.0001 6.17843C15.1563 6.02215 15.2441 5.81023 15.2441 5.58926C15.2441 5.36829 15.1563 5.15637 15.0001 5.00009V5.00009Z" fill="#A6ABBD"/>
</svg>
